<svg xmlns="http://www.w3.org/2000/svg" width="162.706" height="24.524" viewBox="0 0 162.706 24.524">
  <g id="Header_Pre-login---Compact" data-name="Header/Pre-login---Compact" transform="translate(-36 -18)">
    <g id="Header_Logo" data-name="Header/Logo" transform="translate(36 18)">
      <g id="Group-26">
        <path id="Combined-Shape" d="M16.271,13.286s.14-.906-.917-.906H7.644c-1.061,0-.893-.889-.893-.889l.332-1.785a1.077,1.077,0,0,1,1.16-.922h8.747c.765,0,.908-.891.908-.891l.331-1.484s.143-.916-.916-.916H4.121a1.071,1.071,0,0,0-1.16.9L.009,21.567s-.166.89.9.89H3.849c.767,0,.909-.89.909-.89l.967-4.953a1.079,1.079,0,0,1,1.157-.92h8.194c.767,0,.906-.892.906-.892ZM79.409,19.15c-1.064,0-.9-.9-.9-.9l.353-1.887a1.074,1.074,0,0,1,1.156-.92H88.66c.768,0,.907-.892.907-.892l.283-1.521s.141-.9-.916-.9H80.778c-1.064,0-.9-.892-.9-.892l.286-1.526a1.08,1.08,0,0,1,1.161-.922H90.5c.767,0,.909-.89.909-.89l.331-1.484s.141-.916-.914-.916H77.2a1.066,1.066,0,0,0-1.155.9L73.1,21.567s-.166.89.9.89H88.4c.766,0,.905-.89.905-.89l.333-1.487a.808.808,0,0,0-.916-.93Zm24.658-6.918a1.081,1.081,0,0,0-1.155.929l-.278,1.512s-.165.906.9.906h2.724s.8-.029.621.843l-.247,1.259s-.123,1.083-.815,1.275a15.866,15.866,0,0,1-4.55.582c-2.786,0-6.259-1.143-6.259-4.94s4.934-6.221,8.526-6.221a10.361,10.361,0,0,1,5.006,1.234,1.032,1.032,0,0,0,1.13.118L112.2,8.121s1.064-.514.258-1.119c0,0-2.406-1.934-8.334-1.934S90.806,7.841,90.05,14.81c0,0-1.2,7.923,10.817,8.062a33.465,33.465,0,0,0,8.407-1.213s1.46-.374,1.65-1.537l1.3-6.828a.858.858,0,0,0-.967-1.062ZM60.095,22.444a1.226,1.226,0,0,1-1.081-.868L52.931,6.4s-.423-.909.476-.909h3.587a1.446,1.446,0,0,1,1.347.954l3.778,10s.284.956.968,0L70.193,6.4A2.272,2.272,0,0,1,71.8,5.489h3.024s1.273.024.564.93L64,21.592a2.1,2.1,0,0,1-1.6.852Zm74.112-.9-6.1-15.149a1.419,1.419,0,0,0-1.292-.911h-2.177a2.386,2.386,0,0,0-1.54.911L111.064,21.567c-.8,1,.519.887.519.887h3.284a2.031,2.031,0,0,0,1.541-.877l1.562-2.1a1.716,1.716,0,0,1,1.344-.751h7.65a1.282,1.282,0,0,1,1.185.893l.727,1.955a1.215,1.215,0,0,0,1.079.857h3.559S134.594,22.539,134.206,21.543Zm-8.645-5.993h-3.506c-1.169,0-.653-.753-.653-.753l2.477-3.426c1.062-1.5,1.434,0,1.434,0l1.137,3.426C126.748,15.672,125.562,15.55,125.562,15.55ZM46.22,5.493a2.532,2.532,0,0,0-1.392.9L33.866,20.2a.844.844,0,0,1-1.489,0L30,16.457c-.727-1.135.824-1.64.824-1.64,1.784-.581,4.224-1.973,4.277-5.175.068-4.526-8.043-4.149-8.043-4.149H20.024a1.066,1.066,0,0,0-1.157.9L15.914,21.567s-.166.89.9.89h2.936c.772,0,.914-.89.914-.89l.978-5.092a1.068,1.068,0,0,1,1.156-.907h.851c.69,0,1.063.848,1.063.848l2.9,5.127a1.544,1.544,0,0,0,1.275.91h7.7a2.03,2.03,0,0,0,1.54-.877l1.559-2.1a1.725,1.725,0,0,1,1.348-.751H48.69a1.279,1.279,0,0,1,1.183.893l.727,1.955a1.217,1.217,0,0,0,1.079.857H55.24s1.081.105.689-.89L49.838,6.394a1.42,1.42,0,0,0-1.291-.911H48.4ZM47.29,15.55H43.784c-1.17,0-.656-.753-.656-.753l2.479-3.426c1.063-1.5,1.431,0,1.431,0L48.175,14.8C48.474,15.672,47.29,15.55,47.29,15.55Zm-20.916-3.2-2.827.029c-1.061,0-.9-.89-.9-.89l.373-1.906a1.075,1.075,0,0,1,1.155-.92h2.41s2.619-.139,3.242.734a1.332,1.332,0,0,1,.229,1.205C29.876,11.418,29.082,12.279,26.374,12.351ZM51.715,0H49.45V.007a1.82,1.82,0,0,0-1.266.718L46.5,2.9c-.6.773.484.794.484.794H49.25V3.688a1.814,1.814,0,0,0,1.265-.722L52.2.794C52.8.022,51.715,0,51.715,0Z" fill="#013921" fill-rule="evenodd"/>
        <path id="Fill-17" d="M144.936,23.989c8.621-2.263,17.672-5.833,17.755-10.851,0,0,1.173-6.606-17.253-10.184,0,0-3.386-.7-4.062.042-.627.684,1.98,1.608,1.98,1.608,4.943,1.945,10.432,4.961,10.572,8.785,0,0,1.206,4.774-10.5,9.357,0,0-2.432.867-2.112,1.576.239.524,2.668-.111,3.617-.333" fill="#013921" fill-rule="evenodd"/>
        <path id="Fill-19" d="M142.839,21.947c5-1.943,9.747-4.727,9.762-8.307,0,0,.764-4.293-9.647-8.436-.323-.11-1.662-.556-2.295.113-.525.554,1.006,1.588,1.006,1.588,2,1.63,3.931,3.87,3.863,6.459-.064,2.329-1.868,4.426-4.341,6.187,0,0-2.329,1.527-1.764,2.416.652,1.034,2.493.291,3.416-.019" fill="#013921" fill-rule="evenodd"/>
      </g>
    </g>
  </g>
</svg>
