<svg id="Logo_Mel_Hero_Color" data-name="Logo Mel Hero Color" xmlns="http://www.w3.org/2000/svg" xmlns:xlink="http://www.w3.org/1999/xlink" width="74.088" height="46" viewBox="0 0 74.088 46">
  <defs>
    <clipPath id="clip-path">
      <rect id="Rectangle_2" data-name="Rectangle 2" width="74.088" height="46" fill="#013921"/>
    </clipPath>
  </defs>
  <g id="Group_1" data-name="Group 1" clip-path="url(#clip-path)">
    <path id="Path_1" data-name="Path 1" d="M60.336,25.4c.216,2.667,1.681,4.562,4.35,4.562a4.433,4.433,0,0,0,3.294-1.3,1.1,1.1,0,0,1,.831-.374h7.242a.116.116,0,0,1,.109.153C74.4,33.4,69.746,35.7,64.722,35.7c-7.138,0-12.52-4.43-12.52-12.239,0-6.819,4.737-12.37,11.792-12.37,8.865,0,12.692,5.192,12.692,14.311ZM68.6,20.774a3.8,3.8,0,0,0-3.78-3.97c-2.577,0-4.053,1.416-4.45,3.97Z" transform="translate(-13.526 -2.875)" fill="#013921"/>
    <path id="Path_2" data-name="Path 2" d="M88.828,32.24H96.5a.229.229,0,0,0,.229-.229V.229A.229.229,0,0,0,96.5,0h-7.67A.229.229,0,0,0,88.6.229V32.011a.229.229,0,0,0,.229.229" transform="translate(-22.957 0)" fill="#013921"/>
    <path id="Path_3" data-name="Path 3" d="M0,32.24H8.837a.119.119,0,0,0,.122-.115V11.558h.086l5.622,20.333a.483.483,0,0,0,.474.349h5.842a.484.484,0,0,0,.475-.349l5.619-20.333h.088V32.125a.119.119,0,0,0,.122.115H36a.119.119,0,0,0,.122-.115V.115A.119.119,0,0,0,36,0H23.356A.967.967,0,0,0,22.4.719L18.1,18.964h-.088L13.719.719A.965.965,0,0,0,12.765,0H.122A.119.119,0,0,0,0,.115Z" transform="translate(0 0)" fill="#013921"/>
    <path id="Path_4" data-name="Path 4" d="M2.5,52.943c1.754,0,3.067.431,3.067,2.2s-1.313,2.2-3.067,2.2h-.9V59.6H0V52.943Zm-.9,1.4V55.94h.952c.742,0,1.334-.08,1.334-.792s-.592-.8-1.334-.8Z" transform="translate(0 -13.719)" fill="#013921"/>
    <path id="Path_5" data-name="Path 5" d="M11.917,57.153h-1V59.6H9.321V52.943h2.5c1.754,0,3.067.411,3.067,2.085a1.846,1.846,0,0,1-1.313,1.854L15.224,59.6H13.36Zm-1-2.806v1.4h.952c.752,0,1.334-.07,1.334-.7s-.582-.7-1.334-.7Z" transform="translate(-2.415 -13.719)" fill="#013921"/>
    <path id="Path_6" data-name="Path 6" d="M22.032,59.68a3.275,3.275,0,0,1-3.5-3.468,3.231,3.231,0,0,1,3.5-3.418,3.239,3.239,0,0,1,3.508,3.418,3.283,3.283,0,0,1-3.508,3.468m0-5.543c-.982,0-1.814.651-1.814,2.074s.832,2.125,1.814,2.125,1.824-.7,1.824-2.125a1.813,1.813,0,0,0-1.824-2.074" transform="translate(-4.802 -13.68)" fill="#013921"/>
    <path id="Path_7" data-name="Path 7" d="M32.528,52.943c1.754,0,3.067.431,3.067,2.2s-1.313,2.2-3.067,2.2h-.9V59.6H30.032V52.943Zm-.9,1.4V55.94h.952c.742,0,1.334-.08,1.334-.792s-.592-.8-1.334-.8Z" transform="translate(-7.782 -13.719)" fill="#013921"/>
    <rect id="Rectangle_1" data-name="Rectangle 1" width="1.594" height="6.655" transform="translate(29.156 39.225)" fill="#013921"/>
    <path id="Path_8" data-name="Path 8" d="M44.1,52.943h5.182v1.4H45.7v1.133h3.388v1.4H45.7V58.2h3.588v1.4H44.1Z" transform="translate(-11.427 -13.719)" fill="#013921"/>
    <path id="Path_9" data-name="Path 9" d="M55.306,52.943c2.206,0,4.15.752,4.15,3.327S57.512,59.6,55.306,59.6H53.382V52.943Zm.03,1.4h-.361V58.2h.361c1.173,0,2.435-.14,2.435-1.925s-1.262-1.924-2.435-1.924" transform="translate(-13.832 -13.719)" fill="#013921"/>
    <path id="Path_10" data-name="Path 10" d="M64.776,52.943H66.52L69.075,59.6H67.341l-.421-1.2H64.344l-.421,1.2H62.23ZM64.836,57h1.594l-.792-2.275Z" transform="translate(-16.125 -13.719)" fill="#013921"/>
    <path id="Path_11" data-name="Path 11" d="M75.1,52.943c2.206,0,4.15.752,4.15,3.327S77.3,59.6,75.1,59.6H73.173V52.943Zm.03,1.4h-.361V58.2h.361c1.173,0,2.435-.14,2.435-1.925s-1.262-1.924-2.435-1.924" transform="translate(-18.96 -13.719)" fill="#013921"/>
    <path id="Path_12" data-name="Path 12" d="M83.36,52.943h5.182v1.4H84.954v1.133h3.388v1.4H84.954V58.2h3.588v1.4H83.36Z" transform="translate(-21.6 -13.719)" fill="#013921"/>
    <path id="Path_13" data-name="Path 13" d="M94.924,52.794a2.655,2.655,0,0,1,2.846,1.9l-1.584.231a1.286,1.286,0,0,0-1.353-.772c-.591,0-1.032.18-1.032.541,0,.341.3.562.771.662l.922.2c1.042.22,2.426.571,2.426,1.944,0,1.474-1.474,2.175-2.786,2.175-1.774,0-2.857-.8-3.157-2.155l1.583-.23a1.444,1.444,0,0,0,1.583,1.022c.552,0,1.123-.16,1.123-.631,0-.431-.571-.631-1.233-.772l-.822-.18c-1.053-.23-2.055-.722-2.055-1.954,0-1.394,1.514-1.985,2.766-1.985" transform="translate(-23.833 -13.68)" fill="#013921"/>
  </g>
</svg>
