<svg xmlns="http://www.w3.org/2000/svg" xmlns:xlink="http://www.w3.org/1999/xlink" width="120" height="74.505" viewBox="0 0 120 74.505">
  <defs>
    <clipPath id="clip-path">
      <rect id="Rectangle_2" data-name="Rectangle 2" width="120" height="74.506" fill="#fff"/>
    </clipPath>
  </defs>
  <g id="Logo_Mel_Blanco" data-name="Logo Mel Blanco" transform="translate(60)">
    <g id="Group_1" data-name="Group 1" transform="translate(-60)" clip-path="url(#clip-path)">
      <path id="Path_1" data-name="Path 1" d="M65.377,34.273c.349,4.32,2.723,7.388,7.045,7.388a7.18,7.18,0,0,0,5.335-2.107,1.782,1.782,0,0,1,1.346-.606h11.73a.188.188,0,0,1,.176.248C88.148,47.22,80.618,50.953,72.481,50.953c-11.562,0-20.279-7.176-20.279-19.824,0-11.045,7.673-20.035,19.1-20.035,14.358,0,20.557,8.41,20.557,23.179Zm13.391-7.5a6.153,6.153,0,0,0-6.122-6.431c-4.174,0-6.564,2.293-7.207,6.431Z" transform="translate(10.44 2.218)" fill="#fff"/>
      <path id="Path_2" data-name="Path 2" d="M88.97,52.218h12.422a.371.371,0,0,0,.371-.371V.371A.37.37,0,0,0,101.392,0H88.97A.37.37,0,0,0,88.6.371V51.847a.371.371,0,0,0,.371.371" transform="translate(17.72 0)" fill="#fff"/>
      <path id="Path_3" data-name="Path 3" d="M0,52.218H14.312a.192.192,0,0,0,.2-.186V18.72h.139l9.106,32.933a.782.782,0,0,0,.768.565h9.462a.784.784,0,0,0,.769-.565l9.1-32.933H44V52.032a.192.192,0,0,0,.2.186H58.31a.192.192,0,0,0,.2-.186V.186A.192.192,0,0,0,58.31,0H37.83a1.566,1.566,0,0,0-1.547,1.165l-6.96,29.551H29.18L22.22,1.165A1.564,1.564,0,0,0,20.675,0H.2A.192.192,0,0,0,0,.186Z" transform="translate(0 0)" fill="#fff"/>
      <path id="Path_4" data-name="Path 4" d="M4.043,52.943c2.84,0,4.967.7,4.967,3.571S6.883,60.07,4.043,60.07H2.581v3.653H0V52.943ZM2.581,55.216V57.8H4.123c1.2,0,2.16-.13,2.16-1.283s-.959-1.3-2.16-1.3Z" transform="translate(0 10.588)" fill="#fff"/>
      <path id="Path_5" data-name="Path 5" d="M13.526,59.761H11.9v3.961H9.321V52.943h4.043c2.84,0,4.967.666,4.967,3.377a2.989,2.989,0,0,1-2.126,3l2.678,4.4H15.863ZM11.9,55.216v2.273h1.542c1.218,0,2.16-.114,2.16-1.136,0-1.007-.942-1.136-2.16-1.136Z" transform="translate(1.864 10.588)" fill="#fff"/>
      <path id="Path_6" data-name="Path 6" d="M24.2,63.947a5.3,5.3,0,0,1-5.665-5.617c0-3.474,2.305-5.536,5.665-5.536s5.682,2.062,5.682,5.536A5.317,5.317,0,0,1,24.2,63.947m0-8.977c-1.591,0-2.939,1.055-2.939,3.36s1.348,3.442,2.939,3.442c1.607,0,2.954-1.136,2.954-3.442s-1.348-3.36-2.954-3.36" transform="translate(3.707 10.558)" fill="#fff"/>
      <path id="Path_7" data-name="Path 7" d="M34.075,52.943c2.84,0,4.967.7,4.967,3.571s-2.126,3.556-4.967,3.556H32.613v3.653H30.032V52.943Zm-1.462,2.273V57.8h1.542c1.2,0,2.16-.13,2.16-1.283s-.959-1.3-2.16-1.3Z" transform="translate(6.006 10.588)" fill="#fff"/>
      <rect id="Rectangle_1" data-name="Rectangle 1" width="2.581" height="10.78" transform="translate(47.224 63.532)" fill="#fff"/>
      <path id="Path_8" data-name="Path 8" d="M44.1,52.943h8.393v2.273H46.683v1.835H52.17v2.273H46.683V61.45h5.812v2.273H44.1Z" transform="translate(8.82 10.588)" fill="#fff"/>
      <path id="Path_9" data-name="Path 9" d="M56.5,52.943c3.572,0,6.721,1.218,6.721,5.389s-3.149,5.39-6.721,5.39H53.382V52.943Zm.049,2.273h-.584V61.45h.584c1.9,0,3.944-.227,3.944-3.118s-2.045-3.116-3.944-3.116" transform="translate(10.676 10.588)" fill="#fff"/>
      <path id="Path_10" data-name="Path 10" d="M66.353,52.943h2.825l4.139,10.78H70.509l-.682-1.949H65.655l-.682,1.949H62.23Zm.1,6.575h2.581l-1.283-3.685Z" transform="translate(12.446 10.588)" fill="#fff"/>
      <path id="Path_11" data-name="Path 11" d="M76.289,52.943c3.572,0,6.721,1.218,6.721,5.389s-3.149,5.39-6.721,5.39H73.173V52.943Zm.049,2.273h-.584V61.45h.584c1.9,0,3.944-.227,3.944-3.118s-2.045-3.116-3.944-3.116" transform="translate(14.635 10.588)" fill="#fff"/>
      <path id="Path_12" data-name="Path 12" d="M83.36,52.943h8.393v2.273H85.941v1.835h5.488v2.273H85.941V61.45h5.812v2.273H83.36Z" transform="translate(16.672 10.588)" fill="#fff"/>
      <path id="Path_13" data-name="Path 13" d="M96.75,52.794c2.176,0,4.14.974,4.61,3.084l-2.566.374A2.083,2.083,0,0,0,96.6,55c-.958,0-1.672.292-1.672.876,0,.552.487.91,1.249,1.072l1.494.325c1.688.356,3.929.925,3.929,3.149,0,2.387-2.387,3.523-4.513,3.523-2.873,0-4.627-1.3-5.113-3.491l2.564-.373a2.338,2.338,0,0,0,2.564,1.656c.894,0,1.819-.259,1.819-1.022,0-.7-.925-1.022-2-1.25L95.6,59.174c-1.705-.373-3.329-1.169-3.329-3.166,0-2.257,2.452-3.215,4.481-3.215" transform="translate(18.396 10.558)" fill="#fff"/>
    </g>
  </g>
</svg>
