<svg xmlns="http://www.w3.org/2000/svg" xmlns:xlink="http://www.w3.org/1999/xlink" width="136" height="136" viewBox="0 0 136 136">
  <defs>
    <clipPath id="clip-path">
      <rect id="Rectangle_82" data-name="Rectangle 82" width="136" height="136" transform="translate(0.134 0.134)" fill="none"/>
    </clipPath>
  </defs>
  <g id="Group_202" data-name="Group 202" transform="translate(-0.134 -0.134)">
    <g id="Group_202-2" data-name="Group 202" transform="translate(0 0)" clip-path="url(#clip-path)">
      <path id="Path_28" data-name="Path 28" d="M68.013,136.316A68.155,68.155,0,0,1,13.272,27.772,68.144,68.144,0,0,1,135.526,57.905a68.145,68.145,0,0,1-57.115,77.621,69.074,69.074,0,0,1-10.4.79M68.3,1.342a67.715,67.715,0,0,0-10.193.775,66.8,66.8,0,0,0-29.54,119.848,66.311,66.311,0,0,0,39.45,13.011,67.721,67.721,0,0,0,10.193-.775,66.8,66.8,0,0,0,29.54-119.848A66.309,66.309,0,0,0,68.3,1.342" transform="translate(-0.024 -0.024)" fill="#104c51"/>
      <path id="Path_29" data-name="Path 29" d="M140.367,183.919a43.545,43.545,0,1,1,6.575-.5,43.588,43.588,0,0,1-6.575.5m.116-85.717a42.745,42.745,0,0,0-6.436.489,42.184,42.184,0,0,0,6.321,83.887A42.2,42.2,0,0,0,182.1,134.046,42.2,42.2,0,0,0,140.483,98.2" transform="translate(-72.26 -72.259)" fill="#104c51"/>
      <path id="Path_30" data-name="Path 30" d="M50.963,204.657a4.294,4.294,0,0,1-1.991,2.709,4.284,4.284,0,0,1-1.6.56,4.675,4.675,0,0,1-1.806-.107,4.8,4.8,0,0,1-1.653-.746,4.224,4.224,0,0,1-1.156-1.228,4.17,4.17,0,0,1-.572-1.555,4.393,4.393,0,0,1,.095-1.755,4.231,4.231,0,0,1,.707-1.543,3.866,3.866,0,0,1,1.108-1.012,3.1,3.1,0,0,1,1.277-.437l.315,1.527a2.3,2.3,0,0,0-1.255.545,2.347,2.347,0,0,0-.752,1.268,2.673,2.673,0,0,0,.026,1.486,2.6,2.6,0,0,0,.794,1.191,3.439,3.439,0,0,0,1.451.714,3.383,3.383,0,0,0,1.626.039,2.655,2.655,0,0,0,1.269-.7,2.708,2.708,0,0,0,.72-1.306,2.814,2.814,0,0,0,.038-1.236,2.26,2.26,0,0,0-.5-1.053,1.922,1.922,0,0,0-1.028-.609l-.643-.16.783-.548-.774,3.113-1.3-.322.981-3.948.846.21a4.348,4.348,0,0,1,1.633.753,3.757,3.757,0,0,1,1.032,1.2,3.8,3.8,0,0,1,.443,1.445,4.418,4.418,0,0,1-.111,1.506" transform="translate(-31.448 -148.835)" fill="#104c51"/>
      <path id="Path_31" data-name="Path 31" d="M60.628,179.959l-6.743-6.2.818-1.875,9.132.724-.688,1.577-1.941-.174-1.338,3.068,1.443,1.314ZM58.76,176.1l.971-2.227-4.513-.409.176-.4Z" transform="translate(-40.209 -128.208)" fill="#104c51"/>
      <path id="Path_32" data-name="Path 32" d="M73.026,146.438,65.7,141.814l1.726-2.732a3.639,3.639,0,0,1,1.105-1.151,2.465,2.465,0,0,1,1.354-.4,2.756,2.756,0,0,1,1.468.473,2.661,2.661,0,0,1,1.056,1.169,2.511,2.511,0,0,1,.179,1.468l3.991.169-.956,1.514-4.355-.221,1.063-.552-1.161,1.838,2.7,1.707Zm-3.032-3.8.888-1.405a1.548,1.548,0,0,0,.254-.719,1.215,1.215,0,0,0-.137-.664,1.5,1.5,0,0,0-1.184-.748,1.227,1.227,0,0,0-.654.165,1.55,1.55,0,0,0-.54.539l-.888,1.405Z" transform="translate(-49.024 -102.587)" fill="#104c51"/>
      <path id="Path_33" data-name="Path 33" d="M95.048,122.452l-4.58-7.934,1.341-1.545,8.5,3.422-1.128,1.3-1.8-.747-2.195,2.527.984,1.686Zm-.628-4.24,1.593-1.835-4.184-1.74.29-.333Z" transform="translate(-67.492 -84.276)" fill="#104c51"/>
      <path id="Path_34" data-name="Path 34" d="M114.836,92.207l-5.544-6.653.956-.8,7.76,1.886-.4.5-4.189-5.027,1.215-1.012,5.543,6.653-.965.8-7.736-1.967.365-.47,4.219,5.063Z" transform="translate(-81.53 -60.508)" fill="#104c51"/>
      <path id="Path_35" data-name="Path 35" d="M142.979,73.688,139.172,67.5l-1.911,1.175-.731-1.188,5.148-3.167.731,1.188-1.881,1.157,3.807,6.188Z" transform="translate(-101.843 -47.992)" fill="#104c51"/>
      <path id="Path_36" data-name="Path 36" d="M159.934,48.839l-.215-2.137,1.771-.877-.212,2.349Zm4.3,8.781-3.843-7.76,1.427-.707,3.843,7.76Z" transform="translate(-119.136 -34.199)" fill="#104c51"/>
      <path id="Path_37" data-name="Path 37" d="M185.023,58.737l-.152-9.159,1.923-.7L192.56,56l-1.617.588-1.211-1.526L186.587,56.2l.042,1.951Zm1.51-4.012,2.283-.83L186,50.342l.415-.151Z" transform="translate(-137.894 -36.476)" fill="#104c51"/>
      <path id="Path_38" data-name="Path 38" d="M221.767,47.9,220.6,39.314l2.811-.381a4.931,4.931,0,0,1,2.441.226,3.937,3.937,0,0,1,1.766,1.3,4.8,4.8,0,0,1,.6,4.452,3.924,3.924,0,0,1-1.355,1.732,4.927,4.927,0,0,1-2.293.868Zm1.39-1.6,1.267-.172a3.047,3.047,0,0,0,1.466-.568,2.577,2.577,0,0,0,.859-1.149,3.521,3.521,0,0,0-.417-3.076,2.544,2.544,0,0,0-1.133-.873,3.09,3.09,0,0,0-1.563-.152l-1.267.172Z" transform="translate(-164.541 -29.016)" fill="#104c51"/>
      <path id="Path_39" data-name="Path 39" d="M257.583,44.881l-.015-8.66,5.765-.01,0,1.4-4.173.007,0,2.22,3.94-.007,0,1.407-3.94.007,0,2.244,4.173-.008,0,1.4Z" transform="translate(-192.108 -27.029)" fill="#104c51"/>
      <path id="Path_40" data-name="Path 40" d="M296.85,48.7a4.337,4.337,0,0,1-1.625-.658,4.12,4.12,0,0,1-1.168-1.185,4.422,4.422,0,0,1-.626-1.565,4.662,4.662,0,0,1,.012-1.809,4.784,4.784,0,0,1,.658-1.69,4.223,4.223,0,0,1,1.165-1.219,4.175,4.175,0,0,1,1.523-.653,4.4,4.4,0,0,1,1.758,0,4.221,4.221,0,0,1,1.578.625,3.856,3.856,0,0,1,1.069,1.053,3.1,3.1,0,0,1,.5,1.252l-1.52.393a2.292,2.292,0,0,0-1.9-1.907,2.675,2.675,0,0,0-1.482.1,2.6,2.6,0,0,0-1.148.855,3.444,3.444,0,0,0-.637,1.487,3.483,3.483,0,0,0,.035,1.623,2.593,2.593,0,0,0,.745,1.227,2.678,2.678,0,0,0,1.337.649A2.3,2.3,0,0,0,299.6,46.24l1.266.92a3.1,3.1,0,0,1-.934.974,3.857,3.857,0,0,1-1.385.578,4.223,4.223,0,0,1-1.7-.009" transform="translate(-218.792 -29.733)" fill="#104c51"/>
      <path id="Path_41" data-name="Path 41" d="M322.284,56.452l5.826-7.069,1.917.715-.228,9.157-1.612-.6.069-1.947-3.137-1.17-1.234,1.512Zm3.751-2.074,2.276.849.163-4.529.414.154Z" transform="translate(-240.371 -36.852)" fill="#104c51"/>
      <path id="Path_42" data-name="Path 42" d="M354.092,67.412l4.124-7.614,1.4.758-3.46,6.388,3.26,1.766-.664,1.227Z" transform="translate(-264.093 -44.619)" fill="#104c51"/>
      <rect id="Rectangle_80" data-name="Rectangle 80" width="8.66" height="1.592" transform="translate(95.324 25.833) rotate(-56.342)" fill="#104c51"/>
      <path id="Path_43" data-name="Path 43" d="M385.089,88.637l5.578-6.623,2.169,1.827a4.932,4.932,0,0,1,1.471,1.961,3.932,3.932,0,0,1,.22,2.183,4.8,4.8,0,0,1-2.893,3.436,3.922,3.922,0,0,1-2.193.159,4.928,4.928,0,0,1-2.183-1.116Zm2.117-.041.978.824a3.048,3.048,0,0,0,1.405.7,2.579,2.579,0,0,0,1.428-.134,3.52,3.52,0,0,0,2-2.374,2.539,2.539,0,0,0-.114-1.425,3.088,3.088,0,0,0-.937-1.26l-.978-.823Z" transform="translate(-287.209 -61.187)" fill="#104c51"/>
      <path id="Path_44" data-name="Path 44" d="M406.988,116.341l8.492-3.435,1.344,1.542-4.568,7.941-1.13-1.3.989-1.678-2.2-2.524-1.806.741Zm4.286-.034,1.6,1.832,2.3-3.9.29.333Z" transform="translate(-303.54 -84.225)" fill="#104c51"/>
      <path id="Path_45" data-name="Path 45" d="M429.075,138.958l7.361-4.562,1.494,2.411a4.934,4.934,0,0,1,.789,2.321,3.934,3.934,0,0,1-.469,2.144,4.8,4.8,0,0,1-3.819,2.366,3.923,3.923,0,0,1-2.134-.53,4.928,4.928,0,0,1-1.727-1.74Zm2.025.619.673,1.087a3.047,3.047,0,0,0,1.116,1.106,2.583,2.583,0,0,0,1.4.316,3.522,3.522,0,0,0,2.638-1.635,2.542,2.542,0,0,0,.335-1.39,3.09,3.09,0,0,0-.5-1.489l-.674-1.087Z" transform="translate(-320.012 -100.251)" fill="#104c51"/>
      <path id="Path_46" data-name="Path 46" d="M282.774,246.1c.522,2.213,1.995,3.616,4.237,3.275a3.763,3.763,0,0,0,2.6-1.513.936.936,0,0,1,.651-.421l6.082-.926a.1.1,0,0,1,.111.115c-.851,4.386-4.46,6.916-8.68,7.558-5.995.913-11.082-2.12-12.08-8.679-.872-5.727,2.4-10.995,8.323-11.9,7.446-1.133,11.324,2.739,12.489,10.4Zm6.352-4.946a3.227,3.227,0,0,0-3.683-2.852,3.534,3.534,0,0,0-3.229,3.9Z" transform="translate(-205.522 -174.099)" fill="#104c51"/>
      <path id="Path_47" data-name="Path 47" d="M359.228,223.483l6.441-.98a.2.2,0,0,0,.163-.222l-4.062-26.693a.2.2,0,0,0-.222-.163l-6.441.981a.194.194,0,0,0-.164.222l4.063,26.693a.2.2,0,0,0,.222.163" transform="translate(-264.726 -145.762)" fill="#104c51"/>
      <path id="Path_48" data-name="Path 48" d="M142.143,245.982l7.422-1.13a.1.1,0,0,0,.088-.112l-2.629-17.275.072-.011,7.321,16.359a.411.411,0,0,0,.443.232l4.906-.747a.411.411,0,0,0,.354-.354l2.12-17.8.074-.011,2.629,17.274a.1.1,0,0,0,.117.081l7.319-1.114a.1.1,0,0,0,.088-.112l-4.092-26.886a.1.1,0,0,0-.117-.081l-10.62,1.616a.821.821,0,0,0-.71.726l-1.277,15.873-.074.011-5.941-14.775a.82.82,0,0,0-.894-.482l-10.618,1.616a.1.1,0,0,0-.088.112Z" transform="translate(-102.966 -159.841)" fill="#104c51"/>
      <path id="Path_49" data-name="Path 49" d="M241.84,363.324l-.927-6.094-1.439.219-.2-1.3,2.977-.453,1.126,7.394Z" transform="translate(-178.467 -265.288)" fill="#104c51"/>
      <path id="Path_50" data-name="Path 50" d="M258.36,360.648l2.006-3.565.3.309q-.13.081-.247.145a1.366,1.366,0,0,1-.243.1,1.786,1.786,0,0,1-.265.061,2.407,2.407,0,0,1-1.262-.123,2.251,2.251,0,0,1-.962-.712,2.4,2.4,0,0,1-.485-1.15,2.521,2.521,0,0,1,.139-1.352,2.454,2.454,0,0,1,.8-1.035,2.808,2.808,0,0,1,1.31-.534,2.84,2.84,0,0,1,1.414.115,2.463,2.463,0,0,1,1.061.732,2.383,2.383,0,0,1,.528,1.2,3.6,3.6,0,0,1,.036.705,3.05,3.05,0,0,1-.162.8,6.482,6.482,0,0,1-.479,1.053l-1.651,2.963ZM260,356.4a1.1,1.1,0,0,0,.53-.223,1.081,1.081,0,0,0,.333-.447,1.1,1.1,0,0,0,.061-.6,1.132,1.132,0,0,0-.238-.563,1.086,1.086,0,0,0-.451-.327,1.163,1.163,0,0,0-1.1.167,1.068,1.068,0,0,0-.338.447,1.128,1.128,0,0,0-.06.608,1.106,1.106,0,0,0,.237.553,1.068,1.068,0,0,0,.456.327,1.107,1.107,0,0,0,.567.056" transform="translate(-191.811 -263.095)" fill="#104c51"/>
      <path id="Path_51" data-name="Path 51" d="M280.608,356.507l2.059-6.558-3.414.519-.2-1.29,5.032-.766.2,1.29-1.969,6.545Z" transform="translate(-208.133 -259.857)" fill="#104c51"/>
      <path id="Path_52" data-name="Path 52" d="M306.889,353.031a3,3,0,0,1-1.166-.051,2.657,2.657,0,0,1-1.03-.493,2.028,2.028,0,0,1-.656-.91l1.29-.664a1.252,1.252,0,0,0,.582.622,1.306,1.306,0,0,0,.768.107,1.24,1.24,0,0,0,.584-.236,1.026,1.026,0,0,0,.34-.468,1.271,1.271,0,0,0,.051-.633,1.237,1.237,0,0,0-.236-.583,1.03,1.03,0,0,0-.463-.341,1.24,1.24,0,0,0-.627-.052,1.3,1.3,0,0,0-.612.25.923.923,0,0,0-.335.534l-1.306-.106-.034-4.23,4.129-.628.2,1.291-3.5.533.47-.782.061,3.139-.472-.3a1.546,1.546,0,0,1,.539-.691,2.266,2.266,0,0,1,.959-.339,2.527,2.527,0,0,1,1.328.118,2.183,2.183,0,0,1,.959.733,2.678,2.678,0,0,1,.486,1.226,2.5,2.5,0,0,1-.154,1.359,2.547,2.547,0,0,1-.819,1.059,2.855,2.855,0,0,1-1.329.542" transform="translate(-226.763 -257.423)" fill="#104c51"/>
      <path id="Path_53" data-name="Path 53" d="M193.91,165.494a2.724,2.724,0,0,1-1.477-.161,2.764,2.764,0,0,1-1.143-.872,2.9,2.9,0,0,1-.579-1.374,2.861,2.861,0,0,1,.149-1.49,2.818,2.818,0,0,1,.838-1.168,2.689,2.689,0,0,1,1.342-.591,2.433,2.433,0,0,1,1.091.063,1.805,1.805,0,0,1,.826.519l-.183.333-.476-3.126,1.489-.227,1.144,7.514-1.389.212-.151-.993.185.287a1.741,1.741,0,0,1-.663.715,2.628,2.628,0,0,1-1,.361m-.025-1.367a1.352,1.352,0,0,0,.686-.3,1.316,1.316,0,0,0,.4-.6,1.833,1.833,0,0,0-.236-1.548,1.315,1.315,0,0,0-.562-.453,1.355,1.355,0,0,0-.743-.08,1.406,1.406,0,0,0-.7.3,1.364,1.364,0,0,0-.421.6,1.619,1.619,0,0,0-.062.8,1.647,1.647,0,0,0,.3.747,1.313,1.313,0,0,0,.581.45,1.432,1.432,0,0,0,.758.078" transform="translate(-142.221 -117.406)" fill="#104c51"/>
      <path id="Path_54" data-name="Path 54" d="M220.233,168.528a2.889,2.889,0,0,1-1.557-.154,2.675,2.675,0,0,1-1.139-.878,3,3,0,0,1-.565-1.376,2.909,2.909,0,0,1,.141-1.5,2.743,2.743,0,0,1,.825-1.151,2.693,2.693,0,0,1,1.334-.579,3.023,3.023,0,0,1,1.172.03,2.38,2.38,0,0,1,.926.443,2.544,2.544,0,0,1,.65.77,3.021,3.021,0,0,1,.338,1.02c.016.106.027.211.033.314a1.129,1.129,0,0,1-.015.272l-4.06.618-.166-1.092,3.216-.489-.626.623a1.416,1.416,0,0,0-.126-.758,1.026,1.026,0,0,0-.462-.468,1.145,1.145,0,0,0-.7-.092,1.171,1.171,0,0,0-.637.29,1.143,1.143,0,0,0-.332.619,2.19,2.19,0,0,0,.027.91,1.676,1.676,0,0,0,.231.787,1.178,1.178,0,0,0,.539.472,1.549,1.549,0,0,0,1.429-.182,1.159,1.159,0,0,0,.375-.5l1.277.384a1.814,1.814,0,0,1-.4.771,2.491,2.491,0,0,1-.739.585,3.1,3.1,0,0,1-1,.319" transform="translate(-161.804 -121.466)" fill="#104c51"/>
      <path id="Path_55" data-name="Path 55" d="M243.612,165.221a2.854,2.854,0,0,1-1.617-.185,2.139,2.139,0,0,1-1.072-1l1.013-.682a1.724,1.724,0,0,0,.67.6,1.376,1.376,0,0,0,.832.127.8.8,0,0,0,.467-.2.43.43,0,0,0,.114-.383.348.348,0,0,0-.09-.194.567.567,0,0,0-.2-.127,1.29,1.29,0,0,0-.315-.074l-.963-.118a2.041,2.041,0,0,1-1.115-.455,1.51,1.51,0,0,1-.509-.943,1.547,1.547,0,0,1,.123-.923,1.742,1.742,0,0,1,.635-.7,2.576,2.576,0,0,1,1.04-.377,2.621,2.621,0,0,1,1.451.16,2.04,2.04,0,0,1,1.008.918l-1.023.683a1.063,1.063,0,0,0-.514-.475,1.289,1.289,0,0,0-.74-.1.764.764,0,0,0-.434.188.388.388,0,0,0-.114.353.354.354,0,0,0,.09.189.51.51,0,0,0,.218.129,1.983,1.983,0,0,0,.352.078l.9.127a2.181,2.181,0,0,1,1.123.443,1.449,1.449,0,0,1,.508.933,1.522,1.522,0,0,1-.129.924,1.776,1.776,0,0,1-.639.7,2.66,2.66,0,0,1-1.069.381" transform="translate(-179.606 -119.008)" fill="#104c51"/>
      <path id="Path_56" data-name="Path 56" d="M264.141,154.8a2.722,2.722,0,0,1-1.477-.161,2.761,2.761,0,0,1-1.143-.872,2.9,2.9,0,0,1-.58-1.374,2.864,2.864,0,0,1,.149-1.49,2.821,2.821,0,0,1,.837-1.168,2.691,2.691,0,0,1,1.342-.591,2.426,2.426,0,0,1,1.091.063,1.8,1.8,0,0,1,.825.519l-.183.333-.476-3.126,1.489-.227,1.144,7.514-1.39.212-.151-.993.185.287a1.742,1.742,0,0,1-.663.715,2.631,2.631,0,0,1-1,.36m-.025-1.367a1.352,1.352,0,0,0,.686-.3,1.316,1.316,0,0,0,.4-.6,1.833,1.833,0,0,0-.236-1.548,1.313,1.313,0,0,0-.561-.453,1.356,1.356,0,0,0-.743-.08,1.4,1.4,0,0,0-.7.3,1.361,1.361,0,0,0-.422.6,1.625,1.625,0,0,0-.062.8,1.649,1.649,0,0,0,.3.747,1.313,1.313,0,0,0,.581.449,1.431,1.431,0,0,0,.758.078" transform="translate(-194.596 -109.435)" fill="#104c51"/>
      <path id="Path_57" data-name="Path 57" d="M290.464,157.839a2.889,2.889,0,0,1-1.557-.154,2.674,2.674,0,0,1-1.139-.878,3,3,0,0,1-.564-1.376,2.907,2.907,0,0,1,.141-1.5,2.744,2.744,0,0,1,.825-1.151,2.69,2.69,0,0,1,1.333-.579,3.031,3.031,0,0,1,1.173.03,2.379,2.379,0,0,1,.925.443,2.546,2.546,0,0,1,.651.769,3.027,3.027,0,0,1,.338,1.02q.024.158.033.314a1.1,1.1,0,0,1-.015.271l-4.06.618-.166-1.092,3.216-.489-.626.623a1.414,1.414,0,0,0-.126-.758,1.026,1.026,0,0,0-.462-.468,1.145,1.145,0,0,0-.7-.092,1.17,1.17,0,0,0-.636.29,1.141,1.141,0,0,0-.332.619,2.195,2.195,0,0,0,.027.91,1.674,1.674,0,0,0,.231.787,1.18,1.18,0,0,0,.539.472,1.55,1.55,0,0,0,1.43-.182,1.159,1.159,0,0,0,.375-.5l1.277.384a1.809,1.809,0,0,1-.4.771,2.48,2.48,0,0,1-.738.585,3.1,3.1,0,0,1-1,.319" transform="translate(-214.18 -113.495)" fill="#104c51"/>
      <path id="Path_58" data-name="Path 58" d="M46.227,277.951a7.071,7.071,0,1,0-5.927,8.055,7.071,7.071,0,0,0,5.927-8.055m-3.785-.923L39,281.7a.785.785,0,0,1-1.093.166l-1.97-1.45a.794.794,0,1,1,.941-1.28l1.32.972,2.96-4.022a.794.794,0,1,1,1.28.941" transform="translate(-24.01 -202.828)" fill="#104c51"/>
      <path id="Path_59" data-name="Path 59" d="M460.148,213.815a7.29,7.29,0,1,0-6.11,8.3,7.291,7.291,0,0,0,6.11-8.3m-3.9-.952-3.544,4.816a.81.81,0,0,1-1.127.171l-2.031-1.494a.819.819,0,0,1,.971-1.319l1.361,1,3.051-4.146a.819.819,0,1,1,1.319.971" transform="translate(-332.372 -154.86)" fill="#104c51"/>
      <path id="Path_60" data-name="Path 60" d="M70.83,376.319a4.343,4.343,0,0,1-.64-3.339,4.334,4.334,0,0,1,.685-1.572,4.728,4.728,0,0,1,1.321-1.265,4.847,4.847,0,0,1,1.69-.712,4.271,4.271,0,0,1,1.705-.013,4.221,4.221,0,0,1,1.547.646,4.443,4.443,0,0,1,1.236,1.277,4.274,4.274,0,0,1,.658,1.585,3.9,3.9,0,0,1-.011,1.517,3.131,3.131,0,0,1-.553,1.247l-1.349-.817a2.325,2.325,0,0,0,.46-1.3,2.376,2.376,0,0,0-.423-1.43,2.709,2.709,0,0,0-1.12-1,2.626,2.626,0,0,0-1.429-.231,3.484,3.484,0,0,0-1.528.585,3.42,3.42,0,0,0-1.146,1.179,2.686,2.686,0,0,0-.356,1.42,2.739,2.739,0,0,0,.474,1.432,2.845,2.845,0,0,0,.891.878,2.287,2.287,0,0,0,1.128.35,1.946,1.946,0,0,0,1.159-.344l.561-.367-.132.958-1.777-2.715,1.131-.74,2.253,3.443-.738.483a4.41,4.41,0,0,1-1.682.693,3.8,3.8,0,0,1-2.974-.723,4.483,4.483,0,0,1-1.04-1.117" transform="translate(-52.296 -275.462)" fill="#104c51"/>
      <path id="Path_61" data-name="Path 61" d="M85.528,403.134l8.492-3.7,1.4,1.523-4.4,8.151-1.177-1.281.954-1.723L88.5,403.609l-1.806.8Zm4.332-.15,1.662,1.809,2.224-4.008.3.329Z" transform="translate(-63.808 -297.905)" fill="#104c51"/>
      <path id="Path_62" data-name="Path 62" d="M112.344,421.982l5.5-6.816,2.544,2.052a3.676,3.676,0,0,1,1.027,1.245,2.49,2.49,0,0,1,.247,1.407,2.783,2.783,0,0,1-.647,1.419,2.692,2.692,0,0,1-1.3.924,2.543,2.543,0,0,1-1.5.009l-.635,3.989-1.409-1.137.73-4.35.43,1.133-1.711-1.38-2.03,2.516Zm4.169-2.6,1.308,1.056a1.567,1.567,0,0,0,.693.339,1.226,1.226,0,0,0,.683-.06,1.512,1.512,0,0,0,.89-1.1,1.249,1.249,0,0,0-.089-.676,1.577,1.577,0,0,0-.479-.605l-1.309-1.055Z" transform="translate(-83.806 -309.639)" fill="#104c51"/>
      <path id="Path_63" data-name="Path 63" d="M136.518,443.525l7.037-6.025,1.784,1.047-1.826,9.082-1.5-.88.408-1.927-2.92-1.713-1.493,1.291Zm4.1-1.411,2.119,1.243.954-4.483.385.226Z" transform="translate(-101.834 -326.295)" fill="#104c51"/>
      <path id="Path_64" data-name="Path 64" d="M170.48,456.364l3.19-8.156,1.171.458,2.113,7.794-.638-.111,2.411-6.163,1.489.583-3.19,8.155-1.182-.462-2.031-7.812.594.094-2.428,6.207Z" transform="translate(-127.162 -334.281)" fill="#104c51"/>
      <path id="Path_65" data-name="Path 65" d="M209.894,467.785l1.694-7.149-2.207-.523.325-1.373,5.948,1.41-.325,1.373-2.173-.515-1.695,7.149Z" transform="translate(-156.172 -342.135)" fill="#104c51"/>
      <path id="Path_66" data-name="Path 66" d="M231.74,464.2l1.245-8.668,1.594.229-1.245,8.669Zm1.452-9.779,1.046-1.9,1.978.284-1.522,1.836Z" transform="translate(-172.847 -337.492)" fill="#104c51"/>
      <path id="Path_67" data-name="Path 67" d="M243.947,475.218l3.318-8.649,2.067.071,2.721,8.856-1.739-.06-.559-1.889-3.384-.116-.7,1.846Zm2.932-3.193,2.455.084-1.3-4.4.446.015Z" transform="translate(-181.95 -347.973)" fill="#104c51"/>
      <path id="Path_68" data-name="Path 68" d="M287.771,473.5l-1.458-8.635,2.828-.478a4.989,4.989,0,0,1,2.475.149,3.98,3.98,0,0,1,1.828,1.259,4.857,4.857,0,0,1,.756,4.48,3.97,3.97,0,0,1-1.313,1.8,4.986,4.986,0,0,1-2.289.953Zm1.353-1.659,1.275-.215a3.08,3.08,0,0,0,1.463-.622,2.608,2.608,0,0,0,.83-1.189,3.562,3.562,0,0,0-.522-3.1,2.573,2.573,0,0,0-1.174-.845,3.12,3.12,0,0,0-1.585-.1l-1.275.215Z" transform="translate(-213.545 -346.285)" fill="#104c51"/>
      <path id="Path_69" data-name="Path 69" d="M320.723,463.922l-2.631-8.353,5.562-1.751.423,1.345-4.025,1.268.674,2.142,3.8-1.2.427,1.357-3.8,1.2.682,2.164,4.025-1.268.424,1.346Z" transform="translate(-237.244 -338.464)" fill="#104c51"/>
      <path id="Path_70" data-name="Path 70" d="M361,448.216a4.387,4.387,0,0,1-1.694.525,4.169,4.169,0,0,1-1.673-.18,4.488,4.488,0,0,1-1.492-.825,4.718,4.718,0,0,1-1.148-1.425,4.838,4.838,0,0,1-.566-1.745,4.27,4.27,0,0,1,.132-1.7,4.219,4.219,0,0,1,.775-1.486,4.443,4.443,0,0,1,1.378-1.123,4.273,4.273,0,0,1,1.636-.52,3.9,3.9,0,0,1,1.511.141,3.139,3.139,0,0,1,1.2.658l-.94,1.28a2.32,2.32,0,0,0-2.712-.275,2.712,2.712,0,0,0-1.094,1.03,2.627,2.627,0,0,0-.352,1.4,3.873,3.873,0,0,0,1.519,2.82,2.621,2.621,0,0,0,1.369.485,2.712,2.712,0,0,0,1.462-.347,2.329,2.329,0,0,0,1.268-2.405l1.58-.09a3.116,3.116,0,0,1-.109,1.36,3.888,3.888,0,0,1-.714,1.34A4.279,4.279,0,0,1,361,448.216" transform="translate(-264.316 -327.949)" fill="#104c51"/>
      <path id="Path_71" data-name="Path 71" d="M388.966,433.214l-2.952-8.781,1.639-1.263,7.738,5.093-1.378,1.062-1.634-1.1-2.682,2.067.638,1.868Zm.226-4.329,1.946-1.5-3.8-2.563.354-.273Z" transform="translate(-287.899 -315.608)" fill="#104c51"/>
      <path id="Path_72" data-name="Path 72" d="M409.261,417.07l-6.238-6.146,1.13-1.147,5.234,5.156,2.632-2.671,1,.99Z" transform="translate(-300.583 -305.62)" fill="#104c51"/>
      <rect id="Rectangle_81" data-name="Rectangle 81" width="1.61" height="8.757" transform="translate(106.603 100.894) rotate(-50.52)" fill="#104c51"/>
      <path id="Path_73" data-name="Path 73" d="M434.224,379.588l-7.331-4.791,1.569-2.4a4.991,4.991,0,0,1,1.79-1.716,3.982,3.982,0,0,1,2.165-.488,4.855,4.855,0,0,1,3.8,2.486,3.971,3.971,0,0,1,.427,2.183,4.988,4.988,0,0,1-.855,2.327Zm-.3-2.12.707-1.083a3.075,3.075,0,0,0,.536-1.5,2.608,2.608,0,0,0-.31-1.417,3.559,3.559,0,0,0-2.627-1.717,2.577,2.577,0,0,0-1.418.288,3.124,3.124,0,0,0-1.151,1.095l-.707,1.082Z" transform="translate(-318.385 -276.093)" fill="#104c51"/>
      <path id="Path_74" data-name="Path 74" d="M453.981,355.009l-6.712-6.385.859-1.882,9.221.888-.723,1.583L454.668,349l-1.406,3.079,1.436,1.354Zm-1.822-3.933,1.02-2.235-4.557-.491.186-.406Z" transform="translate(-333.58 -258.611)" fill="#104c51"/>
      <path id="Path_75" data-name="Path 75" d="M464.436,318.484,456,316.148l.765-2.764a4.989,4.989,0,0,1,1.182-2.179,3.981,3.981,0,0,1,1.915-1.123,4.855,4.855,0,0,1,4.379,1.211,3.969,3.969,0,0,1,1.071,1.949,4.984,4.984,0,0,1-.106,2.477Zm-.93-1.928.345-1.247a3.078,3.078,0,0,0,.055-1.588,2.608,2.608,0,0,0-.726-1.256,3.56,3.56,0,0,0-3.025-.837,2.569,2.569,0,0,0-1.263.706,3.12,3.12,0,0,0-.763,1.392l-.345,1.246Z" transform="translate(-340.088 -231.177)" fill="#104c51"/>
    </g>
  </g>
</svg>
