<svg xmlns="http://www.w3.org/2000/svg" xmlns:xlink="http://www.w3.org/1999/xlink" width="140" height="21.184" viewBox="0 0 140 21.184">
  <defs>
    <clipPath id="clip-path">
      <rect id="Rectangle_67" data-name="Rectangle 67" width="140" height="21.184" fill="#013921"/>
    </clipPath>
  </defs>
  <g id="peabody" clip-path="url(#clip-path)">
    <path id="Path_21" data-name="Path 21" d="M118.828,4.635a4.142,4.142,0,0,1,1.624.463,4.185,4.185,0,0,1,1.311,1.075,4.244,4.244,0,0,1,.786,1.512,4.291,4.291,0,0,1,.132,1.7,7.129,7.129,0,0,1-2.008,5.321,8.164,8.164,0,0,1-5.729,1.985,13.481,13.481,0,0,1-1.779-.083l1.647-9.258.132-.667a15.333,15.333,0,0,0-5.565.617l-2.42,13.228a37.09,37.09,0,0,0,6.436.45c5.153,0,8.511-.9,11.113-2.936a11.169,11.169,0,0,0,3.072-3.964,11.326,11.326,0,0,0,1.044-4.927,8.015,8.015,0,0,0-.815-4.132A7.883,7.883,0,0,0,125.017,1.9,15.139,15.139,0,0,0,116.885.232a34.7,34.7,0,0,0-6.157.484l-.807,4.137A30.568,30.568,0,0,1,118.828,4.635Z" transform="translate(-8.444 -0.015)" fill="#013921"/>
    <path id="Path_22" data-name="Path 22" d="M51.1,15.811l.362,5h5.795L54.324.4H47.162L37.071,20.849h5.861l2.206-5Zm-4.379-4.1,1.646-3.586c.576-1.184,1.119-2.669,1.646-3.853.148,1.184.313,2.669.428,3.82l.362,3.62Z" transform="translate(-2.927 -0.031)" fill="#013921"/>
    <path id="Path_23" data-name="Path 23" d="M67.818,12.128h1.2c2.074,0,3.9.25,3.9,2.185S70.88,16.7,68.707,16.7H66.978Zm-6.832,8.707c.675,0,3.836.167,6.025.117A17.2,17.2,0,0,0,75.6,19.417a5.741,5.741,0,0,0,2.278-2.106,5.844,5.844,0,0,0,.866-3,4.477,4.477,0,0,0-.872-2.815,4.376,4.376,0,0,0-2.421-1.639c2.19-.667,3.984-2,3.984-4.621a4.591,4.591,0,0,0-.966-2.655,4.491,4.491,0,0,0-2.327-1.565A14.362,14.362,0,0,0,70.929.235a33.336,33.336,0,0,0-6.223.534ZM69.349,4.6a9.393,9.393,0,0,1,1.745-.133c1.465,0,2.749.334,2.749,1.668s-1.465,2-3.655,2H68.658Z" transform="translate(-4.815 -0.018)" fill="#013921"/>
    <path id="Path_24" data-name="Path 24" d="M0,20.834H5.219l1.366-6.972a17.436,17.436,0,0,0,1.91.15,11.754,11.754,0,0,0,7.079-1.952,6.781,6.781,0,0,0,2.147-2.512,6.88,6.88,0,0,0,.717-3.243,5.258,5.258,0,0,0-.7-2.949,5.163,5.163,0,0,0-2.2-2.055A12.645,12.645,0,0,0,9.762.234a24.709,24.709,0,0,0-6.042.6ZM8.231,4.6a10.271,10.271,0,0,1,1.811-.133c1.465,0,2.963.4,2.963,2.352S11.359,9.675,9.153,9.675a8.418,8.418,0,0,1-1.86-.183Z" transform="translate(0 -0.017)" fill="#013921"/>
    <path id="Path_25" data-name="Path 25" d="M34.271,12.725H26.2l-.658,3.57h9.022l-.84,4.554H19.34L23.159.4H37.087l-.873,4.554H27.653l-.609,3.219h8.083Z" transform="translate(-1.527 -0.031)" fill="#013921"/>
    <path id="Path_26" data-name="Path 26" d="M92.129,21.184a12.239,12.239,0,0,0,8.626-3.336,11.751,11.751,0,0,0,3.391-8.524c0-5.988-3.918-9.324-9.433-9.324A12.257,12.257,0,0,0,86.12,3.336a11.685,11.685,0,0,0-2.647,3.957,11.811,11.811,0,0,0-.86,4.7c0,5.821,4.017,9.224,9.466,9.224Zm.675-4.5c-2.914,0-4.461-1.8-4.461-5S90.614,4.52,94.088,4.52c3.144-.083,4.3,2.152,4.3,5.138,0,3.686-2.272,7.022-5.548,7.022Z" transform="translate(-6.522 0)" fill="#013921"/>
    <path id="Path_27" data-name="Path 27" d="M133.95,20.849l1.647-8.524L130.855.4h5.729l1.252,4.637c.4,1.4.691,2.285.987,3.553.725-1.184,1.35-2.219,2.189-3.67L143.68.4h6.586l-9.4,11.676-1.646,8.741Z" transform="translate(-10.331 -0.031)" fill="#013921"/>
  </g>
</svg>
