<svg xmlns="http://www.w3.org/2000/svg" width="101" height="101" viewBox="0 0 101 101">
  <g id="outline" transform="translate(0.016)">
    <path id="Path_103" data-name="Path 103" d="M4.721,126.2h9.468a6.313,6.313,0,0,0,0-12.625,4.025,4.025,0,0,0-.533.024,6.251,6.251,0,0,0-4.2-1.6,6.326,6.326,0,0,0-6.166,4.955A4.734,4.734,0,0,0,4.721,126.2Zm0-6.312A1.578,1.578,0,0,0,6.3,118.312a3.156,3.156,0,0,1,3.156-3.156,3.093,3.093,0,0,1,2.408,1.126,1.578,1.578,0,0,0,1.556.542,3.568,3.568,0,0,1,.769-.091,3.156,3.156,0,0,1,0,6.313H4.721a1.578,1.578,0,0,1,0-3.156Z" transform="translate(0 -89.906)" fill="#89ce48"/>
    <path id="Path_104" data-name="Path 104" d="M428.734,180.622h6.312a6.312,6.312,0,1,0-5.5-9.4,5.035,5.035,0,0,0-.813-.067,4.734,4.734,0,0,0,0,9.469Zm0-6.313a1.436,1.436,0,0,1,.819.233,1.578,1.578,0,0,0,2.438-1.022,1.549,1.549,0,0,1,.071-.2c.01-.026.02-.049.028-.075a3.111,3.111,0,0,1,2.957-2.095,3.156,3.156,0,0,1,0,6.313h-6.312a1.578,1.578,0,0,1,0-3.156Z" transform="translate(-340.38 -134.856)" fill="#89ce48"/>
    <path id="Path_105" data-name="Path 105" d="M81.578,15.781H96.7l2.523,2.525a6.45,6.45,0,0,0,4.537,1.9,5.824,5.824,0,0,0,3.156-.907,6.066,6.066,0,0,0,1.022-9.366l-.464-.462h6.584l3.809,3.809V14.2a4.734,4.734,0,1,0,9.468,0V9.469a1.578,1.578,0,0,0-.462-1.117L118.988.462A1.578,1.578,0,0,0,117.872,0H81.578A1.578,1.578,0,0,0,80,1.578V14.2A1.578,1.578,0,0,0,81.578,15.781Zm42.606-5.66V14.2a1.578,1.578,0,1,1-3.156,0V12.625a1.578,1.578,0,0,0-.462-1.117l-4.734-4.734a1.578,1.578,0,0,0-1.116-.462H103.67a1.578,1.578,0,0,0-1.116,2.695l3.156,3.156a2.906,2.906,0,0,1-.491,4.474,3.039,3.039,0,0,1-3.748-.564l-3-2.987a1.578,1.578,0,0,0-1.116-.462H95.78V3.156h21.439ZM83.156,3.156h9.468v9.469H83.156Z" transform="translate(-64.233 0)" fill="#89ce48"/>
    <path id="Path_106" data-name="Path 106" d="M97.373,295.717a1.578,1.578,0,0,0-2.065-.142,12.44,12.44,0,0,0-3.12-2.959,7.891,7.891,0,0,0-2.462-10.153,4.685,4.685,0,0,0,.219-1.41,4.734,4.734,0,0,0-4.734-4.734v-4.734a1.578,1.578,0,0,0-1.578-1.578H68.506l-2.523-2.525a6.224,6.224,0,0,0-7.693-.986,6.066,6.066,0,0,0-1.024,9.366l.464.462H51.148l-1.9-1.906a4.931,4.931,0,0,0-6.967,6.967l3.945,3.945a1.578,1.578,0,0,0,1.116.458H77.984a7.866,7.866,0,0,0,.251,6.839,12.625,12.625,0,0,0-4.314,4.886L65.814,289.4a1.578,1.578,0,0,0-1.116-.462h-28.4a1.578,1.578,0,0,0-1.116.462l-8.107,8.108a12.625,12.625,0,0,0-4.314-4.886,7.891,7.891,0,0,0-2.462-10.155,4.685,4.685,0,0,0,.219-1.418,4.734,4.734,0,1,0-9.468,0,4.685,4.685,0,0,0,.219,1.418A7.891,7.891,0,0,0,8.8,292.624a12.44,12.44,0,0,0-3.12,2.959,1.578,1.578,0,0,0-2.065.142L.462,298.881A1.578,1.578,0,0,0,0,299.99v12.625a1.578,1.578,0,0,0,1.578,1.578H7.89a1.578,1.578,0,0,0,1.578-1.578v-1.578h3.156v1.578a1.578,1.578,0,0,0,1.578,1.578h6.312a1.578,1.578,0,0,0,1.578-1.578v-1.578h3.156v1.578a1.578,1.578,0,0,0,1.578,1.578h47.34a1.578,1.578,0,0,0,1.578-1.578v-1.578H78.9v1.578a1.578,1.578,0,0,0,1.578,1.578h6.312a1.578,1.578,0,0,0,1.578-1.578v-1.578h3.156v1.578a1.578,1.578,0,0,0,1.578,1.578h6.312a1.578,1.578,0,0,0,1.578-1.578V299.99a1.578,1.578,0,0,0-.462-1.117ZM82.055,282.63H72.587v-9.469h9.468Zm-37.544-3.484a1.769,1.769,0,0,1,2.5-2.5l2.367,2.367a1.578,1.578,0,0,0,1.116.462H61.541a1.578,1.578,0,0,0,1.116-2.695L59.5,273.623a2.906,2.906,0,0,1,.491-4.474,3.054,3.054,0,0,1,3.758.564l2.986,2.987a1.578,1.578,0,0,0,1.116.462h1.578v9.469H47.992Zm-38.2,31.89H3.156V300.643l1.578-1.578,1.578,1.578Zm3.156-3.156v-3.156h3.156v3.156Zm9.468,3.156H15.78V300.643l1.578-1.578,1.578,1.578Zm-.462-15.32a1.578,1.578,0,0,0-2.233,0l-3.156,3.156a1.578,1.578,0,0,0-.462,1.117v1.578H9.468V299.99a1.578,1.578,0,0,0-.462-1.117L7.955,297.82a9.271,9.271,0,0,1,3.787-3.235,1.578,1.578,0,0,0,.515-2.48,4.776,4.776,0,0,1-1.211-3.162,4.7,4.7,0,0,1,2.943-4.375,1.578,1.578,0,0,0,.592-2.511,1.488,1.488,0,0,1-.379-1,1.578,1.578,0,1,1,3.156,0,1.488,1.488,0,0,1-.377,1,1.578,1.578,0,0,0,.592,2.511,4.7,4.7,0,0,1,2.941,4.375,4.776,4.776,0,0,1-1.211,3.166,1.578,1.578,0,0,0,.513,2.478,9.469,9.469,0,0,1,5.3,6.981H22.092V299.99a1.578,1.578,0,0,0-.462-1.117Zm3.618,12.163v-3.156h3.156v3.156Zm15.78,3.156H34.716v-7.891a1.578,1.578,0,1,1,3.156,0Zm6.312,0H41.028v-7.891a4.734,4.734,0,1,0-9.468,0v7.891H28.4V300.643l7.89-7.891,7.89,7.891ZM40.1,292.1H64.044l6.312,6.313H46.414Zm15.127,18.938H52.073v-1.578a1.578,1.578,0,1,1,3.156,0Zm12.624,0H64.7v-1.578a1.578,1.578,0,1,1,3.156,0Zm4.734,0H71.009v-1.578a4.734,4.734,0,1,0-9.468,0v1.578H58.385v-1.578a4.734,4.734,0,1,0-9.468,0v1.578H47.34v-9.469H72.587Zm3.156-3.156v-3.156H78.9v3.156Zm9.468,3.156H82.055V300.643l1.578-1.578,1.578,1.578Zm-.462-15.32a1.578,1.578,0,0,0-2.233,0l-3.156,3.156a1.578,1.578,0,0,0-.462,1.117v1.578H75.877a9.469,9.469,0,0,1,5.3-6.981,1.578,1.578,0,0,0,.513-2.478,4.776,4.776,0,0,1-1.211-3.166,4.72,4.72,0,0,1,1.21-3.155h1.946a1.578,1.578,0,0,0,1.578-1.578v-4.734a1.578,1.578,0,0,1,1.578,1.578,1.5,1.5,0,0,1-.377,1.006A1.578,1.578,0,0,0,87,284.568a4.7,4.7,0,0,1,2.941,4.375,4.776,4.776,0,0,1-1.211,3.166,1.578,1.578,0,0,0,.515,2.48,9.271,9.271,0,0,1,3.787,3.235l-1.051,1.049a1.578,1.578,0,0,0-.462,1.117v1.578H88.367V299.99a1.578,1.578,0,0,0-.462-1.117Zm3.618,12.163v-3.156h3.156v3.156Zm9.468,3.156H94.679V300.643l1.578-1.578,1.578,1.578Z" transform="translate(-0.013 -213.193)" fill="#89ce48"/>
    <path id="Path_107" data-name="Path 107" d="M205.243,104.57l4.734,4.734a1.578,1.578,0,0,0,2.233,0l4.734-4.734a1.578,1.578,0,0,0,.462-1.117V90.416a11.047,11.047,0,0,0-4.734-19.989V65.578a1.578,1.578,0,1,0-3.156,0v4.849a11.047,11.047,0,0,0-4.734,19.989v.412a1.578,1.578,0,0,0,.462,1.117l2.042,2.04-2.042,2.04a1.578,1.578,0,0,0,0,2.233l2.042,2.04-2.042,2.04a1.578,1.578,0,0,0,0,2.233Zm5.85-26.367a1.578,1.578,0,1,1-1.578,1.578A1.578,1.578,0,0,1,211.093,78.2Zm-3.945,9.98a7.891,7.891,0,0,1,2.367-14.556v1.42a1.667,1.667,0,0,0,.024.264,4.734,4.734,0,1,0,3.109,0,1.667,1.667,0,0,0,.024-.264v-1.42a7.891,7.891,0,0,1,2.367,14.556,1.578,1.578,0,0,0-.789,1.367V102.8l-3.156,3.156-2.5-2.5,2.042-2.04a1.578,1.578,0,0,0,0-2.233l-2.042-2.04,2.042-2.04a1.578,1.578,0,0,0,0-2.233l-2.694-2.693V89.55a1.578,1.578,0,0,0-.789-1.367Z" transform="translate(-160.611 -51.375)" fill="#89ce48"/>
  </g>
</svg>
