<svg id="outline" xmlns="http://www.w3.org/2000/svg" width="101" height="101.003" viewBox="0 0 101 101.003">
  <path id="Path_100" data-name="Path 100" d="M164.734,288A4.734,4.734,0,0,0,160,292.734v3.156a1.578,1.578,0,0,0,1.578,1.578h6.313a1.578,1.578,0,0,0,1.578-1.578v-3.156A4.734,4.734,0,0,0,164.734,288Zm1.578,6.313h-3.156v-1.578a1.578,1.578,0,0,1,3.156,0Z" transform="translate(-128.437 -231.186)" fill="#89ce48"/>
  <path id="Path_101" data-name="Path 101" d="M94.689,18.938H69.439V11.047a1.578,1.578,0,0,0-1.578-1.578H52.732L48.923,5.66V1.578A1.578,1.578,0,0,0,47.345,0h-3.2a6.233,6.233,0,0,0-5.693,3.466,6.092,6.092,0,0,0,.5,6H36.3A4.734,4.734,0,0,0,31.563,14.2v4.734H15.782A6.313,6.313,0,0,0,9.469,25.25V48.27L6.774,50.963a1.578,1.578,0,0,0-.462,1.117v17.36H1.578A1.578,1.578,0,0,0,0,71.017v4.734a6.313,6.313,0,0,0,6.313,6.313h50.5v17.36a1.578,1.578,0,0,0,2.695,1.117l6.774-6.776,6.774,6.776a1.659,1.659,0,0,0,1.72.341,1.578,1.578,0,0,0,.975-1.458V82.064H85.22a1.593,1.593,0,0,0,.324-.034v.034A6.448,6.448,0,0,0,91.531,75.5V31.563h7.891A1.578,1.578,0,0,0,101,29.985V25.25A6.313,6.313,0,0,0,94.689,18.938ZM66.283,12.625V25.25H59.97V12.625ZM41.312,4.8a3.071,3.071,0,0,1,2.833-1.643h1.622V6.313a1.578,1.578,0,0,0,.462,1.117l4.734,4.734a1.578,1.578,0,0,0,1.117.462h4.734V25.25H47.345V14.2a4.734,4.734,0,0,0-4.028-4.681L41.88,8.088A2.878,2.878,0,0,1,41.312,4.8Zm-6.593,9.4A1.578,1.578,0,0,1,36.3,12.625H42.61A1.578,1.578,0,0,1,44.188,14.2V25.25H36.3a1.578,1.578,0,0,1-1.578-1.578ZM9.469,52.732l7.891-7.891,7.891,7.891V69.439H22.094v-14.2a4.734,4.734,0,1,0-9.469,0v14.2H9.469ZM28.407,69.439V53.657H44.188V69.439ZM27.482,50.5l-6.313-6.313H35.645L41.957,50.5ZM18.938,69.439H15.782v-14.2a1.578,1.578,0,0,1,3.156,0ZM6.313,78.908a3.156,3.156,0,0,1-3.156-3.156V72.6H56.814v6.313ZM77.255,48.08l1.026,1.026a1.973,1.973,0,0,1,0,2.789l-1.028,1.026a5.1,5.1,0,0,0-1.5,3.628V58a1.973,1.973,0,0,1-1.973,1.973H72.331a5.1,5.1,0,0,0-3.628,1.5L67.677,62.5a1.973,1.973,0,0,1-2.789,0l-1.026-1.024a5.1,5.1,0,0,0-3.628-1.505H58.786A1.973,1.973,0,0,1,56.814,58V56.549a5.09,5.09,0,0,0-1.5-3.628L54.285,51.9a1.973,1.973,0,0,1,0-2.789l1.028-1.026a5.1,5.1,0,0,0,1.5-3.628V43a1.973,1.973,0,0,1,1.973-1.973h1.448a5.1,5.1,0,0,0,3.628-1.5L64.888,38.5a1.973,1.973,0,0,1,2.789,0L68.7,39.527a5.1,5.1,0,0,0,3.628,1.505h1.448A1.973,1.973,0,0,1,75.751,43v1.448a5.089,5.089,0,0,0,1.5,3.628ZM67.391,90.416a1.578,1.578,0,0,0-2.233,0l-5.188,5.2V63.126h.264a1.961,1.961,0,0,1,1.4.578l1.024,1.026a5.129,5.129,0,0,0,7.254,0L70.934,63.7a1.961,1.961,0,0,1,1.4-.578H72.6V95.615Zm8.36-11.509V72.6h3.156v3.156a6.277,6.277,0,0,0,.846,3.156ZM88.377,25.25V75.491A3.336,3.336,0,0,1,85.388,78.9v.014a1.561,1.561,0,0,0-.168-.01,3.156,3.156,0,0,1-3.156-3.156V71.017a1.578,1.578,0,0,0-1.578-1.578H75.751V62.732A5.129,5.129,0,0,0,78.908,58V56.549a1.973,1.973,0,0,1,.578-1.4l1.026-1.026a5.129,5.129,0,0,0,0-7.252l-1.026-1.026a1.973,1.973,0,0,1-.578-1.4V43a5.129,5.129,0,0,0-5.129-5.129H72.331a1.961,1.961,0,0,1-1.4-.578L69.91,36.272a5.129,5.129,0,0,0-7.254,0L61.631,37.3a1.961,1.961,0,0,1-1.4.578H58.786A5.129,5.129,0,0,0,53.657,43v1.448a1.973,1.973,0,0,1-.578,1.4l-1.026,1.026a5.129,5.129,0,0,0,0,7.252l1.026,1.026a1.973,1.973,0,0,1,.578,1.4V58a5.129,5.129,0,0,0,3.156,4.734v6.707H47.345V52.079a1.578,1.578,0,0,0-.462-1.117h0l-9.469-9.469a1.578,1.578,0,0,0-1.117-.462H17.36a1.578,1.578,0,0,0-1.117.462l-3.618,3.62V25.25a3.156,3.156,0,0,1,3.156-3.156H31.563v1.578A4.734,4.734,0,0,0,36.3,28.407H67.861a1.578,1.578,0,0,0,1.578-1.578V22.094H89.223A6.277,6.277,0,0,0,88.377,25.25Zm9.469,3.156H91.533V25.25a3.156,3.156,0,1,1,6.313,0Z" fill="#89ce48"/>
  <path id="Path_102" data-name="Path 102" d="M297.678,208.26a9.418,9.418,0,1,0,9.418,9.418A9.418,9.418,0,0,0,297.678,208.26Zm0,15.679a6.261,6.261,0,1,1,6.261-6.261A6.261,6.261,0,0,1,297.678,223.939Z" transform="translate(-231.395 -167.177)" fill="#89ce48"/>
</svg>
