<svg id="outline" xmlns="http://www.w3.org/2000/svg" width="101" height="101" viewBox="0 0 101 101">
  <path id="Path_94" data-name="Path 94" d="M99.422,297.026H91.531v-36.3a1.578,1.578,0,0,0-1.578-1.578H83.641a1.578,1.578,0,0,0-1.578,1.578v2.5l-6.774-6.776a1.578,1.578,0,0,0-2.233,0L57.274,272.238a1.578,1.578,0,0,0-.462,1.117v23.672H52.078v-4.734a1.578,1.578,0,0,0-1.578-1.578H47.344v-4.734a1.578,1.578,0,0,0-1.578-1.578H23.672a1.578,1.578,0,0,0-1.578,1.578v4.734H18.937a1.578,1.578,0,0,0-1.578,1.578v4.734H1.578A1.578,1.578,0,0,0,0,298.6v6.313a1.578,1.578,0,0,0,1.578,1.578H99.422A1.578,1.578,0,0,0,101,304.917V298.6A1.578,1.578,0,0,0,99.422,297.026Zm-14.2-34.719h3.156v7.238l-3.156-3.156Zm-25.25,11.7,14.2-14.2,14.2,14.2v23.019H85.219V276.511a1.578,1.578,0,0,0-.462-1.117l-9.469-9.469a1.578,1.578,0,0,0-2.233,0l-9.469,9.469a1.578,1.578,0,0,0-.462,1.117v20.516H59.969Zm12.625,12.625V294.8l-6.312-6.312V280.32Zm3.156,0,6.313-6.312v8.163L75.75,294.8Zm0-4.462V270.851l5.66,5.66Zm-3.156,0-5.66-5.659,5.66-5.66Zm-6.312,10.775,4.081,4.081H66.281Zm15.781,0v4.081H77.981ZM25.25,287.557H44.187v3.156H25.25Zm-4.734,6.313H48.922v3.156H20.516Zm77.328,9.469H3.156v-3.156H97.844Z" transform="translate(0 -205.495)" fill="#89ce48"/>
  <path id="Path_95" data-name="Path 95" d="M4.734,182.2h7.891v7.891a1.578,1.578,0,0,0,.462,1.117l1.578,1.578a1.578,1.578,0,0,0,1.117.462H26.175l2.693,2.695,7.891,7.891a1.578,1.578,0,0,0,2.233,0L51.617,191.21a1.578,1.578,0,0,0,0-2.233l-7.891-7.891L31.1,168.462A1.578,1.578,0,0,0,29.984,168H22.094a1.578,1.578,0,0,0-1.117.462L19.4,170.04a1.578,1.578,0,0,0-.462,1.117v1.578H4.734a4.734,4.734,0,0,0,0,9.469Zm33.141,18.285-5.66-5.66,10.394-10.394,5.66,5.66Zm-33.141-24.6H20.516a1.578,1.578,0,0,0,1.578-1.578v-2.5l.653-.653h6.585L40.378,182.2,29.984,192.6l-2.04-2.042a1.578,1.578,0,0,0-1.117-.462H16.434l-.653-.653v-8.816a1.578,1.578,0,0,0-1.578-1.578H4.734a1.578,1.578,0,0,1,0-3.156Z" transform="translate(0 -134.859)" fill="#89ce48"/>
  <path id="Path_96" data-name="Path 96" d="M208.613,22.113H173.894a1.578,1.578,0,0,0-1.117.462l-3.618,3.62-4.32-4.322q.748-.971,1.436-1.99l.2.2a1.578,1.578,0,0,0,2.233,0l4.734-4.734a1.578,1.578,0,0,0,0-2.233L160.815.487a1.578,1.578,0,0,0-2.233,0l-4.734,4.734a1.578,1.578,0,0,0,0,2.233l.2.2a38.6,38.6,0,0,0-10.394,10.394l-.2-.2a1.578,1.578,0,0,0-2.233,0l-4.734,4.734a1.578,1.578,0,0,0,0,2.233L149.112,37.44a1.578,1.578,0,0,0,2.233,0l4.734-4.734a1.578,1.578,0,0,0,0-2.233l-.2-.2q1.018-.686,1.99-1.436l7.478,7.476-.464.462a1.578,1.578,0,0,0,0,2.233l11.047,11.047a1.578,1.578,0,0,0,2.233,0l4.734-4.734,1.115-1.117h24.6a1.578,1.578,0,0,0,1.578-1.578V23.691A1.578,1.578,0,0,0,208.613,22.113Zm-34.066,3.156h16.706v6.313h-7.238l-2.693-2.695a1.579,1.579,0,1,0-2.233,2.233l2.042,2.04-4.081,4.081-5.2-5.2L169.813,30ZM159.691,3.828l10.394,10.394-2.5,2.5L157.188,6.332Zm-9.469,30.257L139.828,23.691l2.5-2.5,10.394,10.394Zm-4.308-13.777A35.367,35.367,0,0,1,156.308,9.914L164,17.607A35.368,35.368,0,0,1,153.607,28ZM160.3,26.8q1.308-1.184,2.5-2.5l4.129,4.127-.464.462a1.578,1.578,0,0,0,0,2.233l2.042,2.04-.925.925ZM177.05,46.71l-8.816-8.816,2.5-2.5,5.2,5.2a1.578,1.578,0,0,0,2.233,0l2.04-2.042,2.5,2.5-.464.462-1.578,1.578Zm9.469-5.66a1.578,1.578,0,0,0-.462-1.117l-3.62-3.618,1.578-1.578h7.238V41.05Zm20.516,0H194.41V25.269h12.625Z" transform="translate(-109.191 -0.019)" fill="#89ce48"/>
  <path id="Path_97" data-name="Path 97" d="M3.156,15.511v5a1.578,1.578,0,0,0,2.695,1.117L11.7,15.781h8.816a4.734,4.734,0,0,0,4.734-4.734V4.734A4.734,4.734,0,0,0,20.516,0H4.734A4.734,4.734,0,0,0,0,4.734v6.312a4.735,4.735,0,0,0,3.157,4.464Zm0-10.777A1.578,1.578,0,0,1,4.734,3.156H20.516a1.578,1.578,0,0,1,1.578,1.578v6.312a1.578,1.578,0,0,1-1.578,1.578H11.047a1.578,1.578,0,0,0-1.117.462l-3.618,3.62V14.2a1.578,1.578,0,0,0-1.578-1.578,1.578,1.578,0,0,1-1.578-1.578Z" transform="translate(0)" fill="#89ce48"/>
  <path id="Path_98" data-name="Path 98" d="M4.734,302.088H20.516a4.734,4.734,0,0,0,4.734-4.734v-6.312a4.734,4.734,0,0,0-4.734-4.734H11.7l-5.849-5.851a1.578,1.578,0,0,0-2.695,1.116v5A4.734,4.734,0,0,0,0,291.042v6.313a4.734,4.734,0,0,0,4.734,4.734ZM3.156,291.042a1.578,1.578,0,0,1,1.578-1.578,1.578,1.578,0,0,0,1.578-1.578v-2.5L9.93,289a1.578,1.578,0,0,0,1.117.462h9.469a1.578,1.578,0,0,1,1.578,1.578v6.313a1.578,1.578,0,0,1-1.578,1.578H4.734a1.578,1.578,0,0,1-1.578-1.578Z" transform="translate(0 -224.76)" fill="#89ce48"/>
  <path id="Path_99" data-name="Path 99" d="M404.516,0H388.734A4.734,4.734,0,0,0,384,4.734v6.312a4.734,4.734,0,0,0,4.734,4.734h3.89l2.687,4.032a1.578,1.578,0,0,0,2.628,0l2.687-4.032h3.89a4.734,4.734,0,0,0,4.734-4.734V4.734A4.734,4.734,0,0,0,404.516,0Zm1.578,11.047a1.578,1.578,0,0,1-1.578,1.578h-4.734a1.578,1.578,0,0,0-1.314.7l-1.842,2.762-1.842-2.762a1.578,1.578,0,0,0-1.314-.7h-4.734a1.578,1.578,0,0,1-1.578-1.578V4.734a1.578,1.578,0,0,1,1.578-1.578h15.781a1.578,1.578,0,0,1,1.578,1.578Z" transform="translate(-308.25)" fill="#89ce48"/>
</svg>
