<svg xmlns="http://www.w3.org/2000/svg" width="101" height="101.002" viewBox="0 0 101 101.002">
  <g id="outline" transform="translate(0 0.006)">
    <path id="Path_76" data-name="Path 76" d="M99.422,15.776H88.375V11.042a1.578,1.578,0,0,0-.462-1.117L78.444.457a1.578,1.578,0,0,0-1.117-.462H67.859a1.578,1.578,0,0,0-1.117.462L57.274,9.925h0a1.578,1.578,0,0,0-.462,1.117v4.734H45.766a1.578,1.578,0,0,0-1.578,1.578v14.2H41.031V20.511a1.578,1.578,0,0,0-1.578-1.578H31.562V11.042a1.578,1.578,0,0,0-1.578-1.578H28.406V7.886a1.578,1.578,0,0,0-.462-1.117L21.632.457a1.578,1.578,0,0,0-2.233,0L13.087,6.769a1.578,1.578,0,0,0-.462,1.117V9.464H11.047a1.578,1.578,0,0,0-1.578,1.578V31.557H1.578A1.578,1.578,0,0,0,0,33.136V99.417a1.578,1.578,0,0,0,1.578,1.578H55.234a1.578,1.578,0,0,0,1.578-1.578v-14.2h5.66l4.734,4.734-2.042,2.04a1.578,1.578,0,0,0,0,2.233l3.156,3.156a1.578,1.578,0,0,0,1.117.462h8.816l2.693,2.695a1.578,1.578,0,0,0,2.233,0L94.226,89.486a1.578,1.578,0,0,0,0-2.233l-2.042-2.04h7.238A1.578,1.578,0,0,0,101,83.635V17.354A1.578,1.578,0,0,0,99.422,15.776Zm-14.2-4.081V22.089H82.062V14.2a4.734,4.734,0,1,0-9.469,0v7.891H69.437V11.695L77.328,3.8ZM78.906,22.089H75.75V14.2a1.578,1.578,0,0,1,3.156,0ZM68.512,3.151h5.007L67.206,9.464H62.2ZM66.281,22.089H59.969V12.62h6.312Zm-9.469-3.156v4.734a1.578,1.578,0,0,0,1.578,1.578H86.8a1.578,1.578,0,0,0,1.578-1.578V18.932h9.469V28.4h-50.5V18.932ZM37.875,22.089V37.87H34.719V22.089Zm-6.312,0V37.87H28.406V22.089Zm-4.734-3.156a1.578,1.578,0,0,0-1.578,1.578V37.87H22.094V12.62h6.312v6.312ZM25.25,9.464H22.094V5.382L25.25,8.539Zm-9.469-.925,3.156-3.156V9.464H15.781ZM12.625,12.62h6.312V37.87H12.625ZM9.469,34.714v4.734a1.578,1.578,0,0,0,1.578,1.578H39.453a1.578,1.578,0,0,0,1.578-1.578V34.714h3.156v9.469H3.156V34.714ZM53.656,97.838H3.156v-50.5H44.187v36.3a1.578,1.578,0,0,0,1.578,1.578h7.891Zm28.406-.653-2.04-2.042a1.578,1.578,0,0,0-1.117-.462H70.09L68.512,93.1l2.042-2.04a1.578,1.578,0,0,0,0-2.233L60.3,78.574a1.775,1.775,0,0,1,2.5-2.5L68.321,81.6a1.578,1.578,0,0,0,2.233,0L76.4,75.745h1.85L90.878,88.37Zm-24-23.346a4.892,4.892,0,0,0-1.184,1.906H53.656V69.432h6.312v3.225a4.892,4.892,0,0,0-1.906,1.182Zm39.78,8.218H89.028L80.023,73.05a1.578,1.578,0,0,0-1.117-.462H75.75a1.578,1.578,0,0,0-1.117.462l-5.2,5.2L65.03,73.839a4.892,4.892,0,0,0-1.906-1.184v-4.8a1.578,1.578,0,0,0-1.578-1.578H52.078A1.578,1.578,0,0,0,50.5,67.854v9.469A1.578,1.578,0,0,0,52.078,78.9h4.8a4.892,4.892,0,0,0,1.184,1.906l1.253,1.251H47.344v-50.5h50.5Z" transform="translate(0)" fill="#89ce48"/>
    <path id="Path_77" data-name="Path 77" d="M43.047,256H33.578A1.578,1.578,0,0,0,32,257.578v9.469a1.578,1.578,0,0,0,1.578,1.578h9.469a1.578,1.578,0,0,0,1.578-1.578v-9.469A1.578,1.578,0,0,0,43.047,256Zm-1.578,9.469H35.156v-6.312h6.312Z" transform="translate(-25.688 -205.505)" fill="#89ce48"/>
    <path id="Path_78" data-name="Path 78" d="M43.047,336H33.578A1.578,1.578,0,0,0,32,337.578v9.469a1.578,1.578,0,0,0,1.578,1.578h9.469a1.578,1.578,0,0,0,1.578-1.578v-9.469A1.578,1.578,0,0,0,43.047,336Zm-1.578,9.469H35.156v-6.312h6.312Z" transform="translate(-25.688 -269.724)" fill="#89ce48"/>
    <path id="Path_79" data-name="Path 79" d="M43.047,416H33.578A1.578,1.578,0,0,0,32,417.578v9.469a1.578,1.578,0,0,0,1.578,1.578h9.469a1.578,1.578,0,0,0,1.578-1.578v-9.469A1.578,1.578,0,0,0,43.047,416Zm-1.578,9.469H35.156v-6.312h6.312Z" transform="translate(-25.688 -333.943)" fill="#89ce48"/>
    <path id="Path_80" data-name="Path 80" d="M257.578,188.625h9.469a1.578,1.578,0,0,0,1.578-1.578v-9.469A1.578,1.578,0,0,0,267.047,176h-9.469A1.578,1.578,0,0,0,256,177.578v9.469A1.578,1.578,0,0,0,257.578,188.625Zm1.578-9.469h6.312v6.312h-6.312Z" transform="translate(-205.5 -141.286)" fill="#89ce48"/>
    <path id="Path_81" data-name="Path 81" d="M257.578,268.625h9.469a1.578,1.578,0,0,0,1.578-1.578v-9.469A1.578,1.578,0,0,0,267.047,256h-9.469A1.578,1.578,0,0,0,256,257.578v9.469A1.578,1.578,0,0,0,257.578,268.625Zm1.578-9.469h6.312v6.312h-6.312Z" transform="translate(-205.5 -205.505)" fill="#89ce48"/>
    <path id="Path_82" data-name="Path 82" d="M113.578,267.156h15.781a1.578,1.578,0,0,0,0-3.156H113.578a1.578,1.578,0,0,0,0,3.156Z" transform="translate(-89.906 -211.927)" fill="#89ce48"/>
    <path id="Path_83" data-name="Path 83" d="M113.578,299.156h15.781a1.578,1.578,0,0,0,0-3.156H113.578a1.578,1.578,0,0,0,0,3.156Z" transform="translate(-89.906 -237.615)" fill="#89ce48"/>
    <path id="Path_84" data-name="Path 84" d="M113.578,347.156h15.781a1.578,1.578,0,0,0,0-3.156H113.578a1.578,1.578,0,0,0,0,3.156Z" transform="translate(-89.906 -276.146)" fill="#89ce48"/>
    <path id="Path_85" data-name="Path 85" d="M113.578,379.156h15.781a1.578,1.578,0,0,0,0-3.156H113.578a1.578,1.578,0,0,0,0,3.156Z" transform="translate(-89.906 -301.833)" fill="#89ce48"/>
    <path id="Path_86" data-name="Path 86" d="M113.578,427.156h15.781a1.578,1.578,0,0,0,0-3.156H113.578a1.578,1.578,0,0,0,0,3.156Z" transform="translate(-89.906 -340.365)" fill="#89ce48"/>
    <path id="Path_87" data-name="Path 87" d="M112,457.578a1.578,1.578,0,0,0,1.578,1.578h25.25a1.578,1.578,0,0,0,0-3.156h-25.25A1.578,1.578,0,0,0,112,457.578Z" transform="translate(-89.906 -366.052)" fill="#89ce48"/>
    <path id="Path_88" data-name="Path 88" d="M337.578,187.156h25.25a1.578,1.578,0,0,0,0-3.156h-25.25a1.578,1.578,0,0,0,0,3.156Z" transform="translate(-269.719 -147.708)" fill="#89ce48"/>
    <path id="Path_89" data-name="Path 89" d="M337.578,219.156h25.25a1.578,1.578,0,0,0,0-3.156h-25.25a1.578,1.578,0,0,0,0,3.156Z" transform="translate(-269.719 -173.396)" fill="#89ce48"/>
    <path id="Path_90" data-name="Path 90" d="M337.578,267.156h25.25a1.578,1.578,0,0,0,0-3.156h-25.25a1.578,1.578,0,0,0,0,3.156Z" transform="translate(-269.719 -211.927)" fill="#89ce48"/>
    <path id="Path_91" data-name="Path 91" d="M337.578,299.156h25.25a1.578,1.578,0,0,0,0-3.156h-25.25a1.578,1.578,0,0,0,0,3.156Z" transform="translate(-269.719 -237.615)" fill="#89ce48"/>
    <path id="Path_92" data-name="Path 92" d="M337.578,347.156h25.25a1.578,1.578,0,0,0,0-3.156h-25.25a1.578,1.578,0,0,0,0,3.156Z" transform="translate(-269.719 -276.146)" fill="#89ce48"/>
    <path id="Path_93" data-name="Path 93" d="M439.891,376h-6.312a1.578,1.578,0,0,0,0,3.156h6.313a1.578,1.578,0,0,0,0-3.156Z" transform="translate(-346.781 -301.833)" fill="#89ce48"/>
  </g>
</svg>
