<svg xmlns="http://www.w3.org/2000/svg" width="130" height="18.489" viewBox="0 0 130 18.489">
  <path id="simmons" d="M13.106,12.626c0,3.213-3.353,5.4-7.108,5.4A14.855,14.855,0,0,1,.141,16.79L-.01,12.442a5.939,5.939,0,0,0,5.582,4.244c3.173,0,3.934-1.824,3.934-3.085,0-2.468-2.653-2.8-5.429-4.063C1.272,8.227.049,6.838.049,4.883.049,1.386,3.926,0,6.7,0a11.339,11.339,0,0,1,4.607.951l.152,3.806A5.332,5.332,0,0,0,6.369,1.334c-2.322,0-3.236,1.363-3.236,2.472,0,1.566,1.311,2.158,4.179,3.264C10.148,8.2,13.106,9.048,13.106,12.626Zm108.4,0c0,3.213-3.354,5.4-7.107,5.4a14.872,14.872,0,0,1-5.859-1.233l-.149-4.348a5.938,5.938,0,0,0,5.582,4.244c3.173,0,3.934-1.824,3.934-3.085,0-2.468-2.653-2.8-5.429-4.063-2.806-1.312-4.028-2.7-4.028-4.656,0-3.5,3.874-4.884,6.65-4.884a11.336,11.336,0,0,1,4.607.951l.152,3.806a5.334,5.334,0,0,0-5.092-3.421c-2.321,0-3.236,1.363-3.236,2.472,0,1.566,1.312,2.158,4.179,3.264,2.837,1.131,5.8,1.978,5.8,5.556ZM20.457.28a1.141,1.141,0,0,0-.691,1.158V16.61a1.184,1.184,0,0,0,.691,1.157H15.649a1.228,1.228,0,0,0,.692-1.157V1.438A1.181,1.181,0,0,0,15.649.28h4.808Zm18.506,0H43.45a1.181,1.181,0,0,0-.69,1.158V16.61a1.228,1.228,0,0,0,.69,1.157H38.7a1.226,1.226,0,0,0,.69-1.157V3.676a3.607,3.607,0,0,1,.054-.591l-.239.591L32.83,18.13,26.4,4.087l-.187-.693V16.612a1.229,1.229,0,0,0,.743,1.157H24.013a1.269,1.269,0,0,0,.691-1.157V1.438A1.443,1.443,0,0,0,23.855.28h4.673l5.312,11.8Zm22.169,0h4.49a1.179,1.179,0,0,0-.691,1.158V16.61a1.227,1.227,0,0,0,.691,1.157H60.866a1.224,1.224,0,0,0,.692-1.157V3.676a3.66,3.66,0,0,1,.053-.591l-.239.591L55,18.13,48.574,4.087l-.185-.693V16.612a1.228,1.228,0,0,0,.744,1.157H46.184a1.269,1.269,0,0,0,.691-1.157V1.438A1.446,1.446,0,0,0,46.026.28H50.7l5.31,11.8ZM77.519,18.023c-5.342-.073-9.8-3.88-9.694-9.153C67.906,4.421,71.569-.08,77.943,0c4.54.049,9.691,3.238,9.612,9.077-.108,6.017-5.231,9-10.036,8.948Zm-6-9.436c0,5.478,3.185,7.972,6.239,7.972,3.479,0,6.053-2.675,6.053-7.331.055-4.962-2.575-7.894-6.109-7.894S71.569,4.036,71.516,8.587Zm31.811-7.149A1.182,1.182,0,0,0,102.636.28h2.946a1.22,1.22,0,0,0-.69,1.158V18.487S92.147,3.932,92.147,3.727V16.612a1.228,1.228,0,0,0,.744,1.157H89.945a1.274,1.274,0,0,0,.688-1.157V2.879c0-1,.026-1.029-.478-1.619A4.272,4.272,0,0,0,88.96.28h4.569l9.8,11.316Zm21.172,14h-.914v-.492h2.405v.492h-.914v2.589H124.5V15.434Zm2.073-.492h.879l.817,2.365h.026l.817-2.365h.878v3.082h-.577V15.449h-.018l-.884,2.575h-.465l-.885-2.575h-.012v2.575h-.577V14.942Z" transform="translate(0.01 0.002)" fill="#013921"/>
</svg>
