<svg id="Group_1025" data-name="Group 1025" xmlns="http://www.w3.org/2000/svg" width="74.532" height="48" viewBox="0 0 74.532 48">
  <path id="Path_16" data-name="Path 16" d="M73.91.928H67.662V0H6.893V.928H0V47.053H6.893V48H67.62v-.947h6.912V.928ZM6.893,45.081v.726H1.249V2.177H6.893v.745H67.662V2.177h5.625v43.63H67.62v-.726Z" fill="#013921"/>
  <path id="Path_17" data-name="Path 17" d="M51.617,36.062l-.666-11.69.384-12.263,1.73-.99h-5.4v.241l1.411.489.806,11.915L49.3,36.326l-1.43,1.215h8.276V31.916l-1.411,5.159Z" fill="#013921"/>
  <path id="Path_18" data-name="Path 18" d="M57.925,11.119l.726.527L59.2,24.028l-.506,12.3-1.552,1.215L63.3,37.5l-2.617-1.173L60.34,24.575l1.974.241,1.308,2.855V20.891L62.5,23.52l-2.077.466.262-9.244.2-2.732,4.309-.424,2.073,4.291-.038-4.758Z" fill="#013921"/>
  <path id="Path_19" data-name="Path 19" d="M19.293,23.9l2.343-11.8,1.813-1.048v-.221l-5.505-.042,1.493.766L17.986,24.168,15.746,34.4,11.392,18.374,9.959,11.757l1.451-.926H7.376l1.535.762,6.37,24.662-1.813.846H19.72L17.7,36.392Z" fill="#013921"/>
  <path id="Path_20" data-name="Path 20" d="M34.515,11.009A13.266,13.266,0,1,0,47.78,24.277,13.269,13.269,0,0,0,34.515,11.009Zm3.743,25.253c-5.6,1.749-11.809-2.2-13.875-8.822s.787-13.406,6.382-15.155,11.805,2.2,13.875,8.822-.791,13.405-6.386,15.151Z" fill="#013921"/>
</svg>
