<svg id="_022-bath" data-name="022-bath" xmlns="http://www.w3.org/2000/svg" width="35.121" height="35.121" viewBox="0 0 35.121 35.121">
  <path id="Path_1343" data-name="Path 1343" d="M35.121,3.43V.686A.686.686,0,0,0,34.435,0H.686A.686.686,0,0,0,0,.686V3.43a.686.686,0,0,0,.686.686H2.744V14.684c-.162,0-.667,0-.76,0A1.986,1.986,0,0,0,.571,15.3,2.07,2.07,0,0,0,0,16.739a2.1,2.1,0,0,0,.154.792,2.056,2.056,0,0,0,.423.653,1.989,1.989,0,0,0,.37.3c-.023,1.411-.032,2.8.044,4.165a7.967,7.967,0,0,0,2.782,5.5,9.6,9.6,0,0,0,1.362,1.132L4.129,34.3a.686.686,0,0,0,.673.821H6.86a.686.686,0,0,0,.635-.427l1.573-3.862a9.632,9.632,0,0,0,1.423.105H26.018l1.54,3.759a.686.686,0,0,0,.635.426h2.058a.686.686,0,0,0,.666-.85l-.853-3.411a4.967,4.967,0,0,0,4.1-4.9V23.757a1.919,1.919,0,0,0,.946-1.705,2.032,2.032,0,0,0-.565-1.428,1.9,1.9,0,0,0-1.366-.594h0a1.93,1.93,0,0,0-.531.086c-.278.081-.564.162-.849.232a.688.688,0,0,0,.163,1.356.694.694,0,0,0,.163-.02c.308-.075,1-.283,1.056-.283h0a.561.561,0,0,1,.392.182.658.658,0,0,1,.182.463.627.627,0,0,1-.407.6,22.018,22.018,0,0,1-6.8,1.083h0a19.178,19.178,0,0,1-9.756-2.579A29.649,29.649,0,0,0,2.277,17.423H2a.6.6,0,0,1-.436-.19.725.725,0,0,1,0-.987A.607.607,0,0,1,2,16.053h.3A28.566,28.566,0,0,1,16.1,19.6a20.265,20.265,0,0,0,5.021,2.076,21.208,21.208,0,0,0,4.7.677.686.686,0,0,0,.045-1.371q-.586-.019-1.163-.071V4.116h9.741a.686.686,0,0,0,.686-.686ZM6.4,33.749H5.639l.8-3.715a9.38,9.38,0,0,0,1.309.5Zm22.255,0L27.5,30.937h1.184l.692,2.812ZM2.314,18.8A28.562,28.562,0,0,1,16.1,22.342a20.253,20.253,0,0,0,5.428,2.178,21.408,21.408,0,0,0,5.012.586h.005a23.357,23.357,0,0,0,4.335-.411,18.249,18.249,0,0,0,1.913-.449v1.718a3.58,3.58,0,0,1-3.572,3.6H10.49a8.073,8.073,0,0,1-5.748-2.381c-1.662-1.662-2.286-2.868-2.382-4.608-.068-1.234-.066-2.494-.047-3.78ZM10.975,1.372h5.488V2.744H10.975Zm5.119,2.744a2.741,2.741,0,0,1-4.749,0ZM4.116,1.372H9.6V2.744H4.116ZM9.234,4.116a2.741,2.741,0,0,1-4.749,0ZM2.744,2.744H1.372V1.372H2.744ZM23.323,20.737a18.9,18.9,0,0,1-5.468-1.749l-.038-5.561a.674.674,0,0,0-.686-.668h0a.673.673,0,0,0-.681.677l.033,4.808a26.689,26.689,0,0,0-5.463-2.295l-.039-6.359a.678.678,0,0,0-.686-.672h0A.675.675,0,0,0,9.6,9.6l.037,5.983a31.6,31.6,0,0,0-5.525-.841V5.809a4.111,4.111,0,0,0,6.174-.792,4.113,4.113,0,0,0,6.86,0,4.111,4.111,0,0,0,6.174.792ZM18.2,4.116h4.749a2.741,2.741,0,0,1-4.749,0Zm5.119-1.372H17.835V1.372h5.488Zm10.427,0H24.695V1.372h9.055Z" fill="#12782e"/>
  <circle id="Ellipse_82" data-name="Ellipse 82" cx="0.686" cy="0.686" r="0.686" transform="translate(28.231 20.86)" fill="#12782e"/>
</svg>
