<svg xmlns="http://www.w3.org/2000/svg" width="35.004" height="35.004" viewBox="0 0 35.004 35.004">
  <g id="_028-shower_head" data-name="028-shower head" transform="translate(0)">
    <path id="Path_1390" data-name="Path 1390" d="M196.345,0a.513.513,0,0,0-.513.513V1.965H192.1a3.566,3.566,0,0,0-2.538,1.051l-2.059,2.059a5.031,5.031,0,0,0-4.44.607L180.5,7.163a.513.513,0,1,0,.513.888l2.224-1.284,5.477,5.477-4.022,6.966-1.582-1.582a.513.513,0,1,0-.725.725l1.777,1.777-.2.341a.513.513,0,0,1-.807.106l-8.253-8.253a.513.513,0,0,1,.106-.807l.341-.2,5.725,5.725a.513.513,0,1,0,.725-.725l-5.531-5.531,3.214-1.856a.513.513,0,1,0-.513-.888L174.5,10.628a1.538,1.538,0,0,0-.319,2.42l8.253,8.253a1.526,1.526,0,0,0,1.084.451,1.567,1.567,0,0,0,.2-.013,1.527,1.527,0,0,0,1.131-.756l4.946-8.567a5.031,5.031,0,0,0,.607-4.44l1.909-1.909h3.515V34.491a.513.513,0,1,0,1.025,0V.513A.513.513,0,0,0,196.345,0ZM184.182,6.259a3.524,3.524,0,0,1,3.126-.148l2.063,2.063a3.524,3.524,0,0,1-.148,3.126ZM192.1,5.042a.513.513,0,0,0-.363.15l-1.952,1.952-1.45-1.45,1.952-1.952a2.547,2.547,0,0,1,1.813-.751h3.728V5.042Z" transform="translate(-161.854)" fill="#12782e"/>
    <path id="Path_1391" data-name="Path 1391" d="M1.856,312.915C1.27,313.466.7,314.03.147,314.592a.513.513,0,1,0,.734.716c.538-.551,1.1-1.105,1.678-1.646a.513.513,0,1,0-.7-.747Z" transform="translate(-0.002 -291.392)" fill="#12782e"/>
    <path id="Path_1392" data-name="Path 1392" d="M64.852,259.969a.511.511,0,0,0,.33-.12c.559-.471,1.145-.947,1.741-1.417a.513.513,0,0,0-.635-.806c-.6.476-1.2.96-1.766,1.437a.513.513,0,0,0,.33.905Z" transform="translate(-59.94 -239.911)" fill="#12782e"/>
    <path id="Path_1393" data-name="Path 1393" d="M133.425,208.606a.511.511,0,0,0,.3-.1c.584-.417,1.192-.841,1.809-1.261a.513.513,0,0,0-.577-.848c-.623.424-1.239.853-1.829,1.274a.513.513,0,0,0,.3.93Z" transform="translate(-123.825 -192.208)" fill="#12782e"/>
    <path id="Path_1394" data-name="Path 1394" d="M178.136,464.61a.513.513,0,0,0-.682.247c-.327.7-.659,1.427-1.016,2.226a.513.513,0,1,0,.936.418c.355-.793.684-1.516,1.009-2.21A.513.513,0,0,0,178.136,464.61Z" transform="translate(-164.334 -432.801)" fill="#12782e"/>
    <path id="Path_1395" data-name="Path 1395" d="M214.889,392.061a.513.513,0,0,0-.7.2c-.354.649-.706,1.314-1.046,1.977a.513.513,0,1,0,.913.468c.336-.656.684-1.313,1.034-1.954A.513.513,0,0,0,214.889,392.061Z" transform="translate(-198.522 -365.199)" fill="#12782e"/>
    <path id="Path_1396" data-name="Path 1396" d="M255.665,317.877a.513.513,0,0,0-.706.163c-.417.667-.819,1.325-1.194,1.957a.513.513,0,1,0,.881.525c.372-.625.77-1.277,1.183-1.938A.513.513,0,0,0,255.665,317.877Z" transform="translate(-236.348 -296.072)" fill="#12782e"/>
    <path id="Path_1397" data-name="Path 1397" d="M2.219,423.7a.513.513,0,0,0-.72.082c-.492.619-.963,1.237-1.4,1.835a.513.513,0,1,0,.828.6c.429-.587.891-1.193,1.375-1.8A.513.513,0,0,0,2.219,423.7Z" transform="translate(0 -394.631)" fill="#12782e"/>
    <path id="Path_1398" data-name="Path 1398" d="M54.015,360.868a.513.513,0,0,0-.724.03c-.506.55-1,1.1-1.472,1.641a.513.513,0,0,0,.772.675c.466-.533.955-1.078,1.455-1.622A.513.513,0,0,0,54.015,360.868Z" transform="translate(-48.158 -336.071)" fill="#12782e"/>
    <path id="Path_1399" data-name="Path 1399" d="M112.147,300.9a.513.513,0,0,0-.714-.736c-.541.525-1.076,1.053-1.59,1.57a.513.513,0,1,0,.728.723C111.08,301.946,111.61,301.422,112.147,300.9Z" transform="translate(-102.195 -279.51)" fill="#12782e"/>
    <path id="Path_1400" data-name="Path 1400" d="M171.943,242.591c-.6.53-1.192,1.07-1.772,1.6a.513.513,0,0,0,.695.755c.576-.53,1.167-1.065,1.759-1.592a.513.513,0,0,0-.682-.766Z" transform="translate(-158.384 -225.885)" fill="#12782e"/>
    <path id="Path_1401" data-name="Path 1401" d="M86.52,466.285a.513.513,0,0,0-.7.178c-.428.719-.836,1.432-1.213,2.122a.513.513,0,1,0,.9.492c.37-.678.772-1.38,1.194-2.088A.513.513,0,0,0,86.52,466.285Z" transform="translate(-78.762 -434.339)" fill="#12782e"/>
    <path id="Path_1402" data-name="Path 1402" d="M126.767,403.382a.513.513,0,0,0-.713.133c-.438.639-.866,1.28-1.271,1.905a.513.513,0,1,0,.86.558c.4-.618.824-1.252,1.257-1.884A.513.513,0,0,0,126.767,403.382Z" transform="translate(-116.175 -375.72)" fill="#12782e"/>
    <path id="Path_1403" data-name="Path 1403" d="M168.5,343.039c.431-.592.88-1.2,1.335-1.8a.513.513,0,1,0-.817-.62c-.459.6-.913,1.214-1.348,1.812a.513.513,0,1,0,.829.6Z" transform="translate(-156.121 -317.147)" fill="#12782e"/>
    <path id="Path_1404" data-name="Path 1404" d="M216.718,281.194a.513.513,0,0,0-.722.067c-.479.576-.957,1.163-1.422,1.744a.513.513,0,1,0,.8.641c.461-.576.935-1.158,1.41-1.729A.513.513,0,0,0,216.718,281.194Z" transform="translate(-199.8 -261.86)" fill="#12782e"/>
  </g>
</svg>
