<svg xmlns="http://www.w3.org/2000/svg" width="39.871" height="35.175" viewBox="0 0 39.871 35.175">
  <g id="_010-parking_sign" data-name="010-parking sign" transform="translate(0 -30.152)">
    <path id="Path_1382" data-name="Path 1382" d="M384.551,78.523v-2.8c.484,0,1.209-.007,1.584-.007a2.782,2.782,0,1,0,0-5.563h-2.168a.584.584,0,0,0-.584.584v7.787a.584.584,0,0,0,1.168,0Zm0-7.2h1.584a1.614,1.614,0,1,1,0,3.227c-.376,0-1.1,0-1.584.007Z" transform="translate(-353.528 -36.885)" fill="#12782e"/>
    <path id="Path_1383" data-name="Path 1383" d="M38.119,30.152H26.438A1.754,1.754,0,0,0,24.686,31.9v5.621a66.666,66.666,0,0,0-13.161-.363.584.584,0,0,0,.08,1.165,61.207,61.207,0,0,1,14.331.6,1.753,1.753,0,0,1,1.347,1.319l.035.151C22.3,38.977,10.425,38.977,5.4,40.4l.035-.151a1.753,1.753,0,0,1,1.347-1.319c.782-.161,1.7-.3,2.726-.415a.584.584,0,0,0-.129-1.161c-1.063.118-2.016.263-2.833.432a2.924,2.924,0,0,0-2.249,2.2L2.37,48.306l-1.7,3.042A5.268,5.268,0,0,0,0,53.914v5.064c0,1.487,1.338,2.243,2.758,2.671v1.925A1.754,1.754,0,0,0,4.51,65.327H6.847A1.754,1.754,0,0,0,8.6,63.575v-1.09c2.083.13,4.642.192,7.762.192s5.679-.063,7.762-.192v1.09a1.754,1.754,0,0,0,1.752,1.752h2.336a1.754,1.754,0,0,0,1.752-1.752V61.65c1.421-.429,2.758-1.184,2.758-2.671V53.914a5.268,5.268,0,0,0-.669-2.566l-1.7-3.042-1.93-8.323a2.924,2.924,0,0,0-2.249-2.2l-.318-.063V31.9a.585.585,0,0,1,.584-.584H38.119a.585.585,0,0,1,.584.584V43.585a.585.585,0,0,1-.584.584H31.264a.584.584,0,0,0,0,1.168h6.855a1.754,1.754,0,0,0,1.752-1.752V31.9a1.754,1.754,0,0,0-1.752-1.752ZM16.361,40.507c4.88,0,9.229.474,11.265,1.216l1.441,6.212H22.288a.584.584,0,1,0,0,1.168h7.17l1.288,2.3-2.631,1.458q-.285.158-.547.317a80.621,80.621,0,0,1-11.208.54,80.624,80.624,0,0,1-11.208-.54q-.262-.159-.547-.317L1.974,51.407l1.288-2.3H19.952a.584.584,0,1,0,0-1.168H3.655L5.1,41.722c2.036-.742,6.385-1.216,11.265-1.216ZM31.553,53.914v1.95c0,1.3-2.591,1.94-6.235,2.252.166-1.824,1.109-2.98,3.364-4.229l2.6-1.439A4.1,4.1,0,0,1,31.553,53.914Zm-30.385,0a4.1,4.1,0,0,1,.274-1.467l2.6,1.439c2.253,1.248,3.2,2.4,3.364,4.225-4.235-.362-6.235-1.092-6.235-2.248Zm6.263,9.661a.585.585,0,0,1-.584.584H4.51a.585.585,0,0,1-.584-.584V61.938l.223.044a31.347,31.347,0,0,0,3.281.418Zm21.364,0a.585.585,0,0,1-.584.584H25.875a.585.585,0,0,1-.584-.584V62.4a31.347,31.347,0,0,0,3.281-.418l.223-.044ZM16.361,61.509c-7.513,0-15.193-.3-15.193-2.531V57.81a5.678,5.678,0,0,0,1.657.743,34.581,34.581,0,0,0,7.944.924h.021a.584.584,0,0,0,.021-1.168q-1.192-.043-2.23-.11a5.32,5.32,0,0,0-1.6-3.624c2.321.213,5.372.314,9.378.314s7.057-.1,9.377-.314a5.321,5.321,0,0,0-1.6,3.628c-2.374.152-5.087.191-7.779.191-1.109,0-2.153-.008-3.1-.023h-.01a.584.584,0,0,0-.009,1.168c.957.016,2.008.023,3.123.023a71.838,71.838,0,0,0,12.211-.695A8.042,8.042,0,0,0,31.553,57.8v1.177C31.553,61.209,23.873,61.509,16.361,61.509Z" fill="#12782e"/>
  </g>
</svg>
