<svg xmlns="http://www.w3.org/2000/svg" width="35.076" height="35.003" viewBox="0 0 35.076 35.003">
  <g id="_041-grill" data-name="041-grill" transform="translate(0 -0.528)">
    <g id="Group_847" data-name="Group 847" transform="translate(0 0.528)">
      <g id="Group_846" data-name="Group 846" transform="translate(0 0)">
        <path id="Path_1432" data-name="Path 1432" d="M33.587,148.581H31.074a.555.555,0,0,0-.555.555v.351h-.586c0-.108.007-.216.008-.324,0,0,0-.005,0-.008s0-.029,0-.043c0-2.5-6.24-3.809-12.4-3.809s-12.4,1.308-12.4,3.809c0,.015,0,.029,0,.044s0,0,0,.007q0,.162.007.324H4.556v-.351A.555.555,0,0,0,4,148.581H1.488A1.315,1.315,0,0,0,0,149.927v.23A1.315,1.315,0,0,0,1.488,151.5H4a.555.555,0,0,0,.555-.555V150.6h.677a12.435,12.435,0,0,0,7.374,9.84l-3.121,6.629a.555.555,0,1,0,1,.473l3.157-6.7a12.4,12.4,0,0,0,3.458.613v8.388a.555.555,0,0,0,1.109,0v-8.4a12.389,12.389,0,0,0,3.423-.678l3.193,6.781a.555.555,0,0,0,1-.473l-3.165-6.721a12.409,12.409,0,0,0,4.288-3.221.555.555,0,0,0-.842-.722,11.286,11.286,0,0,1-7.9,3.923v-2.477a.555.555,0,0,0-1.109,0v2.489A11.338,11.338,0,0,1,6.4,150.886a6.379,6.379,0,0,0,.631.346.553.553,0,0,0,.072.035c2.327,1.091,6.4,1.653,10.439,1.653,4.486,0,9.011-.693,11.142-2.034a11.247,11.247,0,0,1-1.523,4.084.555.555,0,1,0,.944.582,12.363,12.363,0,0,0,1.741-4.957h.675v.351a.555.555,0,0,0,.555.555h2.513a1.315,1.315,0,0,0,1.488-1.345v-.23A1.316,1.316,0,0,0,33.587,148.581ZM3.447,150.392H1.488c-.379,0-.379-.1-.379-.236v-.23c0-.137,0-.236.379-.236H3.447Zm22.627-2.96a10.457,10.457,0,0,1,1.479.549l-.641.621H24.867Zm-1.261-.322L23.274,148.6H21.229l1.863-1.807C23.7,146.886,24.271,146.991,24.813,147.11Zm-3.132-.492L19.636,148.6H17.591l2.2-2.132C20.437,146.506,21.07,146.555,21.682,146.619Zm-4.142-.206q.357,0,.71.006L16,148.6H13.953l2.237-2.17Q16.857,146.413,17.54,146.412Zm-5.329.351c.73-.1,1.5-.184,2.295-.243L12.36,148.6H10.315Zm-2.9.582c.3-.083.621-.161.95-.234L8.721,148.6H6.543A6.98,6.98,0,0,1,9.308,147.346ZM7.2,150.077a3.647,3.647,0,0,1-.554-.364h.929Zm2.106.8c-.373-.1-.709-.209-1.01-.318l.873-.847h2.045l-1.349,1.309Q9.581,150.952,9.308,150.878Zm3.673.681c-.627-.073-1.23-.161-1.8-.264l1.631-1.582h2.045l-1.78,1.727A.552.552,0,0,0,12.981,151.559Zm3.365.236c-.662-.018-1.311-.052-1.942-.1l2.044-1.983h2.045Zm1.578.015,2.162-2.1H22.13l-2.088,2.025C19.352,151.779,18.644,151.8,17.924,151.809Zm6.47-.763a.554.554,0,0,0-.124.18c-.774.151-1.608.274-2.486.368l1.94-1.882h2.045Zm1.938-.334,1.031-1h1.069A6.582,6.582,0,0,1,26.331,150.712Zm2.175-2.109.015-.015.016.015Zm5.461,1.553c0,.137,0,.236-.379.236H31.629v-.7h1.958c.379,0,.379.1.379.236Z" transform="translate(0 -135.385)" fill="#12782e"/>
        <path id="Path_1433" data-name="Path 1433" d="M147.921,31.2a.555.555,0,0,0,.766.8,2.869,2.869,0,0,0,.038-4.073,1.731,1.731,0,0,1-.494-1.677,1.7,1.7,0,0,1,.434-.686.555.555,0,0,0-.721-.843,2.7,2.7,0,0,0-.881,1.747,2.965,2.965,0,0,0,.818,2.18A1.776,1.776,0,0,1,147.921,31.2Z" transform="translate(-136.982 -22.943)" fill="#12782e"/>
        <path id="Path_1434" data-name="Path 1434" d="M209.6,7.137a.555.555,0,0,0,.766.8,2.869,2.869,0,0,0,.038-4.073,1.731,1.731,0,0,1-.494-1.677,1.7,1.7,0,0,1,.434-.686.555.555,0,0,0-.721-.843,2.7,2.7,0,0,0-.881,1.747,2.964,2.964,0,0,0,.818,2.18A1.776,1.776,0,0,1,209.6,7.137Z" transform="translate(-194.434 -0.528)" fill="#12782e"/>
        <path id="Path_1435" data-name="Path 1435" d="M271.276,7.138a.555.555,0,0,0,.766.8,2.869,2.869,0,0,0,.039-4.073,1.731,1.731,0,0,1-.494-1.677,1.7,1.7,0,0,1,.434-.687A.555.555,0,0,0,271.3.661a2.7,2.7,0,0,0-.881,1.747,2.964,2.964,0,0,0,.818,2.18A1.776,1.776,0,0,1,271.276,7.138Z" transform="translate(-251.887 -0.529)" fill="#12782e"/>
        <path id="Path_1436" data-name="Path 1436" d="M332.951,31.2a.555.555,0,0,0,.766.8,2.869,2.869,0,0,0,.038-4.073,1.731,1.731,0,0,1-.494-1.677,1.7,1.7,0,0,1,.434-.686.555.555,0,0,0-.721-.843,2.7,2.7,0,0,0-.881,1.748,2.964,2.964,0,0,0,.818,2.18A1.776,1.776,0,0,1,332.951,31.2Z" transform="translate(-309.337 -22.944)" fill="#12782e"/>
      </g>
    </g>
  </g>
</svg>
