<svg xmlns="http://www.w3.org/2000/svg" width="43.752" height="35" viewBox="0 0 43.752 35">
  <g id="sprouting_plant_growth_seedling_gardening_new_life" data-name="sprouting plant, growth, seedling, gardening, new life" transform="translate(-6.998 -11.999)">
    <path id="Path_1418" data-name="Path 1418" d="M50.358,35.771l-2.629-1.752a5.688,5.688,0,0,0-6.212,0,3.9,3.9,0,0,1-3,.535V32.247A7.807,7.807,0,0,1,40.2,27.386a15.954,15.954,0,0,0,2.117.142c1.968,0,4.593-.379,6.321-2.107,3.011-3.011,1.928-8.74,1.88-8.982a.875.875,0,0,0-.69-.69c-.242-.047-5.97-1.132-8.982,1.88-2.607,2.606-2.144,7.245-1.942,8.6a9.6,9.6,0,0,0-1.014,1.492,18.555,18.555,0,0,0-1.739-4.3.861.861,0,0,0,.153-.334c.048-.242,1.132-5.971-1.879-8.981s-8.74-1.928-8.981-1.88a.874.874,0,0,0-.69.69c-.048.242-1.132,5.972,1.879,8.982,1.729,1.729,4.353,2.107,6.321,2.107.549,0,1.047-.029,1.461-.067a16.939,16.939,0,0,1,2.348,8.614v1.208a5.683,5.683,0,0,0-5.748.258,3.913,3.913,0,0,1-4.288,0,5.683,5.683,0,0,0-5.748-.258V32.254a17.073,17.073,0,0,1,2.405-8.431.875.875,0,1,0-1.5-.9,18.875,18.875,0,0,0-2.022,4.8,9.594,9.594,0,0,0-1.02-1.5c.2-1.356.665-5.995-1.942-8.6-3.012-3.012-8.741-1.928-8.982-1.88a.875.875,0,0,0-.69.69c-.048.242-1.132,5.972,1.88,8.982,1.729,1.729,4.353,2.107,6.321,2.107a15.961,15.961,0,0,0,2.117-.142,7.807,7.807,0,0,1,1.688,4.861v2.306a3.9,3.9,0,0,1-3-.532,5.607,5.607,0,0,0-6.22,0l-2.625,1.75A.875.875,0,0,0,7,36.5v9.624A.874.874,0,0,0,7.875,47H19.249a.875.875,0,1,0,0-1.75H8.75V42.217l2.235-1.49a3.847,3.847,0,0,1,4.279,0,5.593,5.593,0,0,0,6.22,0,3.847,3.847,0,0,1,4.279,0,5.593,5.593,0,0,0,6.22,0,3.847,3.847,0,0,1,4.279,0,5.593,5.593,0,0,0,6.22,0,3.847,3.847,0,0,1,4.279,0L49,42.217v3.032H26.249a.875.875,0,0,0,0,1.75H49.872a.874.874,0,0,0,.875-.875V36.5a.875.875,0,0,0-.39-.728ZM42.086,18.865c1.863-1.862,5.4-1.657,6.807-1.488.169,1.41.374,4.944-1.488,6.806-1.47,1.47-3.976,1.649-5.662,1.578l1.767-1.768a.875.875,0,0,0-1.237-1.237l-1.764,1.765c-.071-1.686.111-4.189,1.579-5.656Zm-14.214,1.8c-1.862-1.862-1.657-5.4-1.487-6.807,1.41-.167,4.942-.373,6.8,1.488,1.548,1.548,1.666,4.25,1.565,5.928a19.04,19.04,0,0,0-1.746-2.015.875.875,0,0,0-1.237,1.237,17.229,17.229,0,0,1,1.511,1.756c-1.676.042-4.014-.191-5.411-1.588ZM10.343,24.184c-1.863-1.862-1.658-5.4-1.488-6.806,1.413-.169,4.945-.374,6.807,1.488,1.467,1.467,1.65,3.97,1.579,5.656l-1.764-1.765a.875.875,0,0,0-1.237,1.237l1.766,1.767c-1.686.071-4.192-.108-5.662-1.577Zm37.39,15.088a5.593,5.593,0,0,0-6.22,0,3.847,3.847,0,0,1-4.279,0,5.593,5.593,0,0,0-6.22,0,3.847,3.847,0,0,1-4.279,0,5.593,5.593,0,0,0-6.22,0,3.847,3.847,0,0,1-4.279,0,5.593,5.593,0,0,0-6.22,0l-1.265.843V36.968l2.234-1.489a3.859,3.859,0,0,1,4.284,0,5.683,5.683,0,0,0,5.056.564.848.848,0,0,0,.194-.073,5.514,5.514,0,0,0,.961-.492,3.913,3.913,0,0,1,4.288,0,5.688,5.688,0,0,0,6.212,0,3.913,3.913,0,0,1,4.288,0,5.771,5.771,0,0,0,6.212,0,3.916,3.916,0,0,1,4.283,0L49,36.968v3.147l-1.265-.843Z" fill="#12782e"/>
    <circle id="Ellipse_97" data-name="Ellipse 97" cx="1" cy="1" r="1" transform="translate(21.785 44.999)" fill="#12782e"/>
  </g>
</svg>
