<svg xmlns="http://www.w3.org/2000/svg" width="34.012" height="35.038" viewBox="0 0 34.012 35.038">
  <g id="_037-deck_chair" data-name="037-deck chair" transform="translate(-7.5)">
    <path id="Path_1336" data-name="Path 1336" d="M41.152,30.823V9.1A9.085,9.085,0,0,0,27.175,1.43a9.122,9.122,0,0,0-3.041,3.222,14.873,14.873,0,0,0-7.822.423,9.67,9.67,0,0,0-6.246,5.505.684.684,0,0,0,.409.877L34.41,20.165a.685.685,0,0,0,.878-.409,9.663,9.663,0,0,0-1.245-8.231,14.891,14.891,0,0,0-5.931-5.46,5.044,5.044,0,0,1,.434-.5,4.927,4.927,0,0,1,3.517-1.463,4.988,4.988,0,0,1,4.981,5V26.767l-1.038-1.025a3.384,3.384,0,0,0-2.369-.968H32.293a.684.684,0,1,0,0,1.369h1.344a2.041,2.041,0,0,1,1.431.581l4.885,4.747a.65.65,0,0,1,.206.475.719.719,0,0,1-.194.487.67.67,0,0,1-.506.211.7.7,0,0,1-.492-.2L34.08,27.7a.682.682,0,0,0-.477-.193H16.447a2.04,2.04,0,0,1-1.621-.792L9,19.234a.664.664,0,0,1-.133-.4.717.717,0,0,1,.2-.489.685.685,0,0,1,.509-.213.71.71,0,0,1,.571.287L16,25.88a.682.682,0,0,0,.539.262h9.6a.684.684,0,1,0,0-1.369H16.868l-2.419-3.085a2.636,2.636,0,0,0,.727-3.893,2.654,2.654,0,0,0-3.237-.746l-.821.4a2.072,2.072,0,0,0-1.542-.684H9.57A2.06,2.06,0,0,0,7.9,20.053l5.84,7.505a3.445,3.445,0,0,0,1.2.974,3.41,3.41,0,0,0,.416.169l-2.39,5.376a.684.684,0,0,0,.626.962h2.739a.685.685,0,0,0,.626-.406L18.3,31.617H31.62l1.341,3.015a.685.685,0,0,0,.626.406h2.739a.684.684,0,0,0,.626-.962L35.636,31.12l2.369,2.3h0a2.071,2.071,0,0,0,1.453.594h.009a2.044,2.044,0,0,0,1.5-.643,2.068,2.068,0,0,0,.548-1.425,1.691,1.691,0,0,0-.359-1.122ZM11.627,10.42C13.148,7.427,17.438,5.3,22.258,5.748a9.394,9.394,0,0,0-1.616,1.107,14.534,14.534,0,0,0-3.892,5.429Zm21.245,1.815a8.686,8.686,0,0,1,1.325,6.4l-5.124-1.864a14.528,14.528,0,0,0,.51-6.66,9.388,9.388,0,0,0-.525-1.883A13.286,13.286,0,0,1,32.872,12.235Zm-4.639-1.892a13.1,13.1,0,0,1-.451,5.954l-9.745-3.545A13.106,13.106,0,0,1,21.523,7.9c1.538-1.292,3.1-1.784,4.292-1.351s2.071,1.815,2.419,3.792Zm11.55,19.085L38.414,28.1V9.1a6.346,6.346,0,0,0-11.575-3.62c-.185-.075-1.068-.394-1.325-.473a7.8,7.8,0,0,1,6.566-3.64,7.708,7.708,0,0,1,7.7,7.733V29.428ZM12.54,18.28a1.277,1.277,0,0,1,1.558.359,1.258,1.258,0,0,1,.271.782,1.361,1.361,0,0,1-.777,1.178l-1.6-2.047ZM34.031,33.67l-1.341-3.015a.685.685,0,0,0-.626-.406H17.854a.685.685,0,0,0-.626.406L15.887,33.67h-1.24l2.13-4.79H33.142l2.13,4.79Z" transform="translate(0 0)" fill="#12782e"/>
    <ellipse id="Ellipse_76" data-name="Ellipse 76" cx="0.685" cy="0.684" rx="0.685" ry="0.684" transform="translate(28.527 24.773)" fill="#12782e"/>
  </g>
</svg>
