<svg xmlns="http://www.w3.org/2000/svg" width="45.39" height="28.867" viewBox="0 0 45.39 28.867">
  <g id="_023-air_conditioner" data-name="023-air conditioner" transform="translate(0 -93.189)">
    <path id="Path_1363" data-name="Path 1363" d="M46.6,140.447a.665.665,0,1,1,.665.665A.665.665,0,0,1,46.6,140.447Z" transform="translate(-42.464 -42.462)" fill="#12782e"/>
    <path id="Path_1364" data-name="Path 1364" d="M93.189,140.447a.665.665,0,1,1,.665.665A.665.665,0,0,1,93.189,140.447Z" transform="translate(-84.928 -42.462)" fill="#12782e"/>
    <path id="Path_1365" data-name="Path 1365" d="M139.782,140.447a.665.665,0,1,1,.665.665A.665.665,0,0,1,139.782,140.447Z" transform="translate(-127.39 -42.462)" fill="#12782e"/>
    <g id="Group_832" data-name="Group 832" transform="translate(0 93.189)">
      <path id="Path_1366" data-name="Path 1366" d="M43.4,93.189H31.273a.665.665,0,1,0,0,1.33H43.4a.666.666,0,0,1,.665.665V111.8a.666.666,0,0,1-.665.665h-.759V106.2a2,2,0,0,0-1.995-1.995H14.506a.665.665,0,1,0,0,1.33H40.642a.666.666,0,0,1,.665.665v.759H4.083V106.2a.666.666,0,0,1,.665-.665h6.86a.665.665,0,1,0,0-1.33H4.748A2,2,0,0,0,2.754,106.2v6.266H1.995a.666.666,0,0,1-.665-.665V95.184a.666.666,0,0,1,.665-.665H28.376a.665.665,0,1,0,0-1.33H1.995A2,2,0,0,0,0,95.184V111.8a2,2,0,0,0,1.995,1.995H43.4A2,2,0,0,0,45.39,111.8V95.184A2,2,0,0,0,43.4,93.189ZM4.083,112.465v-1.424H21.246a.665.665,0,1,0,0-1.33H4.083v-1.424H41.307v1.424H24.144a.665.665,0,1,0,0,1.33H41.307v1.424Z" transform="translate(0 -93.189)" fill="#12782e"/>
      <path id="Path_1367" data-name="Path 1367" d="M279.562,124.918v2.754a.665.665,0,0,0,.665.665h8.261a.665.665,0,0,0,.665-.665v-2.754a.665.665,0,0,0-.665-.665h-8.261A.665.665,0,0,0,279.562,124.918Zm1.33.665h6.931v1.424h-6.931Z" transform="translate(-254.778 -121.499)" fill="#12782e"/>
      <path id="Path_1368" data-name="Path 1368" d="M407.9,126.294a2.042,2.042,0,1,0-2.042,2.042A2.044,2.044,0,0,0,407.9,126.294Zm-2.753,0a.712.712,0,1,1,.712.712A.713.713,0,0,1,405.142,126.294Z" transform="translate(-368.013 -121.498)" fill="#12782e"/>
      <path id="Path_1369" data-name="Path 1369" d="M249.165,341.685a.665.665,0,0,0-.665.665v5.508a.665.665,0,0,0,1.33,0V342.35A.665.665,0,0,0,249.165,341.685Z" transform="translate(-226.47 -319.655)" fill="#12782e"/>
      <path id="Path_1370" data-name="Path 1370" d="M158.73,341.685a.665.665,0,0,0-.665.665,4.843,4.843,0,0,1-2.386,4.913.665.665,0,0,0-.3.892.675.675,0,0,0,.892.3,6.108,6.108,0,0,0,3.121-6.1A.665.665,0,0,0,158.73,341.685Z" transform="translate(-141.543 -319.655)" fill="#12782e"/>
      <path id="Path_1371" data-name="Path 1371" d="M81.077,341.685a.665.665,0,0,0-.665.665,6.821,6.821,0,0,1-2.559,5.037.665.665,0,0,0,.94.94,8.285,8.285,0,0,0,2.948-5.978.665.665,0,0,0-.665-.665Z" transform="translate(-70.774 -319.655)" fill="#12782e"/>
      <path id="Path_1372" data-name="Path 1372" d="M314.09,347.263a4.855,4.855,0,0,1-2.386-4.913.665.665,0,1,0-1.33,0,6.059,6.059,0,0,0,3.121,6.1.675.675,0,0,0,.892-.3A.665.665,0,0,0,314.09,347.263Z" transform="translate(-282.836 -319.655)" fill="#12782e"/>
      <path id="Path_1373" data-name="Path 1373" d="M389.61,342.35a.654.654,0,0,0-.665-.665.665.665,0,0,0-.665.665,8.316,8.316,0,0,0,2.949,5.978.665.665,0,1,0,.94-.94C390.782,346.131,389.531,343.948,389.61,342.35Z" transform="translate(-353.858 -319.655)" fill="#12782e"/>
    </g>
  </g>
</svg>
