<svg xmlns="http://www.w3.org/2000/svg" width="38.656" height="35.98" viewBox="0 0 38.656 35.98">
  <g id="_030-golf-bag" data-name="030-golf-bag" transform="translate(0 -0.002)">
    <path id="Path_1419" data-name="Path 1419" d="M199.076,217.5,196.37,214.8a1.437,1.437,0,0,0-2.03,0L191,218.136a1.437,1.437,0,0,0,0,2.03l2.706,2.706a1.437,1.437,0,0,0,2.03,0l3.337-3.338A1.437,1.437,0,0,0,199.076,217.5Zm-4.138,4.567a.307.307,0,0,1-.428,0l-2.706-2.706a.307.307,0,0,1,0-.428l1.291-1.291a1.422,1.422,0,0,0,.191.237l2.706,2.706a1.435,1.435,0,0,0,.237.191Zm3.338-3.337-1.054,1.054a.307.307,0,0,1-.428,0l-2.706-2.706a.307.307,0,0,1,0-.428l1.054-1.054a.308.308,0,0,1,.429,0l2.706,2.706A.306.306,0,0,1,198.275,218.733Zm0,0" transform="translate(-176.195 -198.191)" fill="#12782e"/>
    <path id="Path_1420" data-name="Path 1420" d="M257.109,249.86a.566.566,0,1,0-.8.8l.164.164a.566.566,0,1,0,.8-.8Zm0,0" transform="translate(-236.804 -230.84)" fill="#12782e"/>
    <path id="Path_1421" data-name="Path 1421" d="M36.4,8.491a1.437,1.437,0,0,0-2.03,0L30.59,12.272l-1.2-1.2,5.921-5.921a2.23,2.23,0,0,0,.36-2.675L34.772.9A1.789,1.789,0,0,0,32.191.327a1.812,1.812,0,0,0-.55,2.345C32.79,4.792,32.769,4.6,32.808,6.044l-4.223,4.223L27.336,9.018,31,5.35a2.229,2.229,0,0,0,.36-2.675l-.894-1.568A1.789,1.789,0,0,0,27.888.531a1.812,1.812,0,0,0-.55,2.345C28.487,5,28.466,4.8,28.5,6.247l-1.969,1.97-.47-.47a1.691,1.691,0,0,0-2.389,0l-9.982,9.982a2.256,2.256,0,0,1-2.232.571,7.5,7.5,0,0,0-7.423,1.88C2.026,22.193.856,23.092.251,25.4a7.5,7.5,0,0,0,1.937,7.223l1.169,1.169a7.5,7.5,0,0,0,10.591,0l8.166-8.166a.566.566,0,1,0-.8-.8l-2.708,2.708-3.961-3.961a2.126,2.126,0,0,0-3,0L3.19,32.023A6.408,6.408,0,0,1,1.63,24.854c.581-1.386,1.149-1.812,3.212-3.874a6.367,6.367,0,0,1,6.3-1.594A3.389,3.389,0,0,0,14.5,18.53l3.211-3.211a2.315,2.315,0,0,1,3.268,0l1.166,1.166a.566.566,0,0,0,.8-.8L21.776,14.52a3.434,3.434,0,0,0-2.268-1l4.969-4.969a.557.557,0,0,1,.787,0l5.8,5.8a.509.509,0,0,1,0,.719L26.7,19.442l-1.887-1.887a.566.566,0,1,0-.8.8L25.9,20.242l-2.714,2.714a.566.566,0,0,0,.8.8l7.886-7.886a1.64,1.64,0,0,0,0-2.32l-.479-.479,2.246-2.246,2.049,2.049a1.437,1.437,0,0,0,2.03,0l.519-.519a1.437,1.437,0,0,0,0-2.03ZM32.636,2.133a.679.679,0,0,1,.206-.879.654.654,0,0,1,.946.211l.894,1.568a1.1,1.1,0,0,1-.177,1.313l-.623.623A7.989,7.989,0,0,0,32.636,2.133Zm-4.3.2a.68.68,0,0,1,.206-.879.655.655,0,0,1,.946.211l.894,1.568A1.094,1.094,0,0,1,30.2,4.549l-.623.623A7.991,7.991,0,0,0,28.333,2.337ZM12.442,24.373a.992.992,0,0,1,1.4,0l3.961,3.961-4.657,4.657a6.366,6.366,0,0,1-9.157-.167ZM37.435,11.555l-.519.519a.306.306,0,0,1-.429,0l-2.049-2.049.733-.733a.305.305,0,0,1,.428,0l1.835,1.835A.305.305,0,0,1,37.435,11.555Zm0,0" transform="translate(0 0)" fill="#12782e"/>
  </g>
</svg>
