<svg xmlns="http://www.w3.org/2000/svg" width="38.844" height="35.115" viewBox="0 0 38.844 35.115">
  <path id="_003-cinema" data-name="003-cinema" d="M36.2,51.346h-2.02V50.88a2.644,2.644,0,0,0-2.641-2.641h-2.02v-.466a2.626,2.626,0,0,0-.234-1.088h6.683a.777.777,0,0,0,.777-.777V24.777A.777.777,0,0,0,35.969,24H23a.777.777,0,0,0,0,1.554h12.2V45.131H3.651V25.554H16a.778.778,0,0,0,.775-.831.8.8,0,0,0-.8-.723H2.874a.777.777,0,0,0-.777.777V45.908a.777.777,0,0,0,.777.777H9.557a2.626,2.626,0,0,0-.234,1.088v.466H7.3A2.644,2.644,0,0,0,4.661,50.88v.466H2.641A2.644,2.644,0,0,0,0,53.987v4.351a.777.777,0,0,0,.777.777h37.29a.777.777,0,0,0,.777-.777V53.987A2.644,2.644,0,0,0,36.2,51.346Zm-3.574-.466v.466H27.5a2.633,2.633,0,0,0-1.865.772,2.652,2.652,0,0,0-.777-.538v-.7a1.089,1.089,0,0,1,1.088-1.088h5.594A1.089,1.089,0,0,1,32.629,50.88Zm-17.091,0a1.089,1.089,0,0,1,1.088-1.088h5.594a1.089,1.089,0,0,1,1.088,1.088v.466H15.538Zm11.342-4.2a1.089,1.089,0,0,1,1.088,1.088v.466h-2.02a2.633,2.633,0,0,0-1.865.772,2.652,2.652,0,0,0-.777-.538v-.7a1.089,1.089,0,0,1,1.088-1.088Zm-6.215,0a1.089,1.089,0,0,1,1.088,1.088v.466H17.091v-.466a1.089,1.089,0,0,1,1.088-1.088Zm-9.789,1.088a1.089,1.089,0,0,1,1.088-1.088H14.45a1.089,1.089,0,0,1,1.088,1.088v.7a2.652,2.652,0,0,0-.777.538,2.633,2.633,0,0,0-1.865-.772h-2.02ZM6.215,50.88A1.089,1.089,0,0,1,7.3,49.792H12.9a1.089,1.089,0,0,1,1.088,1.088v.7a2.652,2.652,0,0,0-.777.538,2.633,2.633,0,0,0-1.865-.772H6.215ZM1.554,53.987A1.089,1.089,0,0,1,2.641,52.9h8.7a1.089,1.089,0,0,1,1.088,1.088v3.574H1.554Zm12.43,0A1.089,1.089,0,0,1,15.071,52.9h8.7a1.089,1.089,0,0,1,1.088,1.088v3.574H13.984ZM37.29,57.561H26.414V53.987A1.089,1.089,0,0,1,27.5,52.9h8.7a1.089,1.089,0,0,1,1.088,1.088ZM15.771,30.409v9.866a.777.777,0,0,0,1.165.673l8.544-4.933a.777.777,0,0,0,0-1.346l-8.544-4.933a.777.777,0,0,0-1.165.673Zm1.554,1.345,6.214,3.588L17.324,38.93Zm1.4-6.978a.777.777,0,1,1,.777.777A.778.778,0,0,1,18.723,24.777Z" transform="translate(0 -24)" fill="#12782e"/>
</svg>
