<svg xmlns="http://www.w3.org/2000/svg" width="50" height="31" viewBox="0 0 50 31">
  <path id="Path_1416" data-name="Path 1416" d="M47,37a9.87,9.87,0,0,0-3.13.51L41,31.76V28h4a1,1,0,0,1,0,2H44a1,1,0,0,0,0,2h1a3,3,0,0,0,0-6H38a1,1,0,0,0,0,2h1v3H28V29h1a1,1,0,0,0,0-2H25a1,1,0,0,0,0,2h1v2.67l-4.73,6.3A9.993,9.993,0,1,0,26.95,48h5.07a1.018,1.018,0,0,0,.86-.53l2.21-4.15a1,1,0,1,0-1.76-.94l-1.12,2.09L28.39,33h9.94L37.1,35.32a.993.993,0,0,0,.41,1.35,1.016,1.016,0,0,0,1.35-.41l1.11-2.08,2.07,4.15A9.982,9.982,0,1,0,47,37ZM17,55a8,8,0,1,1,3.05-15.39l-2.59,3.44A3.406,3.406,0,0,0,17,43a4,4,0,1,0,3.86,5h4.07A8,8,0,0,1,17,55Zm2-8a2,2,0,1,1-2-2A2.006,2.006,0,0,1,19,47Zm1.86-1a4.018,4.018,0,0,0-1.47-2.19l2.4-3.2A8.006,8.006,0,0,1,24.93,46H20.86Zm9.75,0H26.95a10.02,10.02,0,0,0-3.96-6.99l3.66-4.88L30.61,46ZM47,55a7.992,7.992,0,0,1-4.06-14.88l1.8,3.59A3.989,3.989,0,1,0,47,43c-.12,0-.24.03-.36.04l-1.86-3.72A8.1,8.1,0,0,1,47,39a8,8,0,0,1,0,16Zm-2-8a2,2,0,1,1,2,2A2.006,2.006,0,0,1,45,47Z" transform="translate(-7 -26)" fill="#12782e"/>
</svg>
