<svg xmlns="http://www.w3.org/2000/svg" width="32.996" height="35.16" viewBox="0 0 32.996 35.16">
  <g id="_023-bathrobe" data-name="023-bathrobe" transform="translate(-15 0)">
    <path id="Path_1384" data-name="Path 1384" d="M47.548,32.417a1.63,1.63,0,0,0-1.174-.5H37.35l-3.069-6.776a1.619,1.619,0,0,0-.573-.678c1.051-1.522,2.372-3.151,3.66-4.7a42.571,42.571,0,0,0,5.315-7.682.541.541,0,1,0-.968-.484,41.547,41.547,0,0,1-5.18,7.475c-1.4,1.689-2.848,3.475-3.96,5.134-.026,0-.052.007-.078.012-2.412.463-4.425.914-6.086,1.367,1.088-2.6,3.147-5.679,6.406-9.6C39.776,7.6,38.905,4.846,38.487,3.52c-.032-.1-.06-.191-.076-.26a.541.541,0,1,0-1.054.244c.026.111.061.223.1.341a3.916,3.916,0,0,1,.209,1.063A25.315,25.315,0,0,0,31.3,4.327a25.309,25.309,0,0,0-6.364.581,3.916,3.916,0,0,1,.209-1.063c.037-.119.073-.231.1-.341a.541.541,0,0,0-1.054-.244c-.016.07-.044.158-.076.26-.418,1.326-1.289,4.085,5.67,12.46.284.342.56.679.825,1.007-1.152,1.458-2.127,2.8-2.94,4.045-.456-.572-.976-1.208-1.6-1.963-3.3-3.968-5.332-7.2-6.048-9.607-.793-2.667.248-3.708.591-4.051l2.961-2.961c.934-.934,3.391-1.369,7.731-1.369s6.8.435,7.731,1.369l2.961,2.961c.357.357,1.445,1.445.514,4.3a.541.541,0,0,0,1.028.336,6.312,6.312,0,0,0,.258-3.628l1.313.714a2.7,2.7,0,0,1,1.412,2.376V26.348a2.708,2.708,0,0,1-2.7,2.7H38.157a.541.541,0,0,0,0,1.082h5.656A3.791,3.791,0,0,0,47.6,26.348V9.507A3.784,3.784,0,0,0,45.622,6.18L42.7,4.591,39.8,1.686C38.614.5,36.073,0,31.3,0s-7.315.5-8.5,1.686L19.9,4.591,16.977,6.18A3.784,3.784,0,0,0,15,9.507v2.33a.541.541,0,1,0,1.082,0V9.507a2.7,2.7,0,0,1,1.412-2.376l1.312-.714a6.086,6.086,0,0,0,.173,3.354c.768,2.583,2.813,5.851,6.252,9.99.732.881,1.317,1.6,1.824,2.241A22.121,22.121,0,0,0,25.1,25.961a18.319,18.319,0,0,0-3.255,1.292,4.571,4.571,0,0,0-2,1.8h-1.06a2.708,2.708,0,0,1-2.7-2.7V14A.541.541,0,1,0,15,14V26.348a3.791,3.791,0,0,0,3.786,3.786h.732a3.82,3.82,0,0,0-.027.455,5.461,5.461,0,0,0,.207,1.488,1.623,1.623,0,0,0,.71,3.081H46.343a1.636,1.636,0,0,0,1.651-1.545,1.609,1.609,0,0,0-.447-1.2ZM30.614,15.289C26.636,10.5,25.347,7.7,25.024,6.01a23.335,23.335,0,0,1,6.276-.6,23.338,23.338,0,0,1,6.276.6c-.324,1.7-1.612,4.49-5.591,9.279q-.352.423-.685.834C31.078,15.849,30.848,15.57,30.614,15.289Zm15.729,18.79H20.409a.541.541,0,0,1,0-1.082h3.53a.541.541,0,0,0,0-1.082H20.78a4.346,4.346,0,0,1-.206-1.324c0-.874.3-1.579,1.79-2.387,1.81-.981,5.192-1.939,10.337-2.927a.54.54,0,0,1,.595.308l2.867,6.33H26.1A.541.541,0,0,0,26.1,33h20.27a.541.541,0,0,1,.54.568A.563.563,0,0,1,46.343,34.078Z" fill="#12782e"/>
  </g>
</svg>
