<svg id="_019-towel_warmer" data-name="019-towel warmer" xmlns="http://www.w3.org/2000/svg" width="34.875" height="34.875" viewBox="0 0 34.875 34.875">
  <circle id="Ellipse_81" data-name="Ellipse 81" cx="0.681" cy="0.681" r="0.681" transform="translate(4.53)" fill="#12782e"/>
  <path id="Path_1342" data-name="Path 1342" d="M5.279,43.85H29.6a5.279,5.279,0,1,0,0-10.558H5.279a.851.851,0,1,1,0-1.7H29.63a5.245,5.245,0,0,0,0-10.49H9.775a4.734,4.734,0,0,0-1.317-4.7.68.68,0,0,0-.467-.185.672.672,0,0,0-.5.214.681.681,0,0,0,.028.962A3.38,3.38,0,0,1,8.34,21.1H8.106a.682.682,0,0,1-.681-.681A2.214,2.214,0,0,0,3,20.317c0,.034,0,.273,0,.324a5,5,0,0,0,.547,2.133A3.373,3.373,0,0,1,2.9,17.386a.682.682,0,0,0,.029-.962.682.682,0,0,0-.963-.029,4.733,4.733,0,0,0,3.126,8.177,5.011,5.011,0,0,0,2.949.955H29.63a.817.817,0,0,1,0,1.635H5.279a5.279,5.279,0,1,0,0,10.558H29.6a.851.851,0,1,1,0,1.7H5.279a5.279,5.279,0,0,0,0,10.558H30a2.191,2.191,0,0,0,2.106-1.5h2.083a.681.681,0,0,0,0-1.362H32.111A2.168,2.168,0,0,0,30,45.553H5.279a.851.851,0,0,1,0-1.7Zm24.215,3.065H30a.851.851,0,1,1,0,1.7h-.511Zm-24.215,0H28.132v1.7H5.279a3.917,3.917,0,0,1,0-7.833H29.6a2.214,2.214,0,1,0,0-4.427H5.279a3.917,3.917,0,1,1,0-7.833H29.63a2.18,2.18,0,0,0,0-4.359H8.038A2.676,2.676,0,0,1,7.3,24.1a3.7,3.7,0,0,1-2.933-3.42c0-.063,0-.3,0-.315a.851.851,0,0,1,1.7.057,2.043,2.043,0,0,0,2.043,2.043H29.63a3.883,3.883,0,0,1,0,7.765H5.279a2.214,2.214,0,1,0,0,4.427H29.6a3.917,3.917,0,1,1,0,7.833H5.279a2.214,2.214,0,0,0,0,4.427Z" transform="translate(0 -15.106)" fill="#12782e"/>
</svg>
