<svg xmlns="http://www.w3.org/2000/svg" width="49.052" height="34.969" viewBox="0 0 49.052 34.969">
  <g id="_046-treadmill" data-name="046-treadmill" transform="translate(0 -73.5)">
    <circle id="Ellipse_58" data-name="Ellipse 58" cx="1" cy="1" r="1" transform="translate(4 98.5)" fill="#12782e"/>
    <circle id="Ellipse_59" data-name="Ellipse 59" cx="1" cy="1" r="1" transform="translate(43 98.5)" fill="#12782e"/>
    <path id="Path_1319" data-name="Path 1319" d="M49.052,99.08c0-.958-1.978-8.807-1.978-8.807a.958.958,0,1,0-1.866.434l.942,4.05a4.636,4.636,0,0,0-1.622-.337L44.2,94.41,41.3,81.906a.954.954,0,0,0-.933-.742H28.837V79.248H42.543l.712,3.06a.954.954,0,0,0,.341.537.958.958,0,0,0,1.525-.97l-.611-2.626h.71a2.874,2.874,0,0,0,0-5.748H35.831a4.8,4.8,0,0,0-4.694,3.832h-7.09a.958.958,0,0,0-.958.958v3.832a.958.958,0,0,0,.958.958H39.6l2.623,11.28L5.771,93.429a5.657,5.657,0,0,0-4.063,9.707,5.643,5.643,0,0,0,1.435,1.017l-.634,3.169a.958.958,0,0,0,.939,1.146H45.6a.958.958,0,0,0,.939-1.146l-.758-3.789a4.662,4.662,0,0,0,3.268-4.454ZM35.831,75.416H45.22a.958.958,0,1,1,0,1.916h-12.1A2.879,2.879,0,0,1,35.831,75.416ZM25.005,79.248h1.916v1.916H25.005Zm-20.388,27.3.371-1.857a5.7,5.7,0,0,0,.635.037c.049,0,38.251-.975,38.251-.975l.559,2.8ZM47.03,99.846a2.713,2.713,0,0,1-2.551,1.979l-38.756.99a3.672,3.672,0,0,1-2.677-1.051,3.755,3.755,0,0,1,0-5.369,3.673,3.673,0,0,1,2.58-1.052l37.048.945s1.923.051,1.98.057a2.706,2.706,0,0,1,2.232,1.578,2.808,2.808,0,0,1,.144,1.924Z" fill="#12782e"/>
    <circle id="Ellipse_60" data-name="Ellipse 60" cx="0.958" cy="0.958" r="0.958" transform="translate(44.206 85.333)" fill="#12782e"/>
  </g>
</svg>
