<svg xmlns="http://www.w3.org/2000/svg" width="46.953" height="33.221" viewBox="0 0 46.953 33.221">
  <g id="_030-swimming_pool" data-name="030-swimming pool" transform="translate(0 -74.873)">
    <path id="Path_1374" data-name="Path 1374" d="M46.265,83.407h-6.4V81.269a6.4,6.4,0,0,0-12.1-2.884,6.4,6.4,0,0,0-12.1,2.884v2.139H10.015a.688.688,0,0,0,0,1.376h5.641v12.2a4.7,4.7,0,0,0-1.212.877,3.344,3.344,0,0,1-4.724,0,4.757,4.757,0,0,0-6.67,0,3.317,3.317,0,0,1-1.675.908V84.783H7.017a.688.688,0,1,0,0-1.376H.688A.688.688,0,0,0,0,84.1V99.529q.11.666.688.688a4.686,4.686,0,0,0,3.335-1.381,3.344,3.344,0,0,1,4.724,0,4.757,4.757,0,0,0,6.67,0,3.49,3.49,0,0,1,4.724,0,4.757,4.757,0,0,0,6.663.007,3.39,3.39,0,0,1,4.731-.007,4.757,4.757,0,0,0,6.67,0,3.344,3.344,0,0,1,4.724,0,4.686,4.686,0,0,0,3.335,1.381q.578-.022.688-.688V84.1a.688.688,0,0,0-.688-.688ZM19.9,84.783l7.17.011v1.462H19.9Zm0,2.849h7.17V89.1H19.9Zm4.3-4.224H19.9V81.269a2.15,2.15,0,1,1,4.3,0v2.139ZM19.9,90.48h7.17v1.484H19.9Zm0,2.86h7.17v1.473H19.9Zm-2.87,3.2V81.269a5.02,5.02,0,0,1,10.04-.038c0,.013,0,.025,0,.038v2.139H25.578V81.269a3.525,3.525,0,1,0-7.051,0V96.543a4.755,4.755,0,0,0-1.495,0Zm8.814,1.313a3.435,3.435,0,0,1-4.731.007,4.7,4.7,0,0,0-1.212-.877v-.8h7.17v.784A4.724,4.724,0,0,0,25.846,97.856Zm14.722-1.375a4.685,4.685,0,0,0-3.335,1.381,3.345,3.345,0,0,1-4.725,0,4.728,4.728,0,0,0-1.19-.868V91.3a.688.688,0,0,0-1.376,0v5.241a4.8,4.8,0,0,0-1.495-.007V81.269c0-.013,0-.025,0-.038a5.02,5.02,0,0,1,10.041.038v2.139H36.994V81.269a3.526,3.526,0,0,0-7.051,0V88.3a.688.688,0,1,0,1.376,0V84.783H45.578V98.771a3.317,3.317,0,0,1-1.675-.908,4.686,4.686,0,0,0-3.335-1.381Zm-9.25-13.074V81.269a2.15,2.15,0,0,1,4.3,0v2.139Z" fill="#12782e"/>
    <path id="Path_1375" data-name="Path 1375" d="M46.267,356.815a3.319,3.319,0,0,1-2.362-.979,4.722,4.722,0,0,0-6.67,0,3.344,3.344,0,0,1-4.724,0,4.786,4.786,0,0,0-6.663-.007,3.435,3.435,0,0,1-4.731.007,4.722,4.722,0,0,0-6.67,0,3.37,3.37,0,0,1-4.724,0,4.722,4.722,0,0,0-6.67,0,3.318,3.318,0,0,1-2.362.979.688.688,0,0,0,0,1.376,4.686,4.686,0,0,0,3.335-1.381,3.345,3.345,0,0,1,4.725,0,4.757,4.757,0,0,0,6.67,0,3.345,3.345,0,0,1,4.725,0,4.838,4.838,0,0,0,6.67,0,3.37,3.37,0,0,1,4.724,0,4.757,4.757,0,0,0,6.67,0,3.345,3.345,0,0,1,4.725,0,4.686,4.686,0,0,0,3.335,1.381.688.688,0,1,0,0-1.376Z" transform="translate(-0.002 -253.945)" fill="#12782e"/>
    <path id="Path_1376" data-name="Path 1376" d="M286.989,398.776a3.319,3.319,0,0,1-2.362-.978,4.722,4.722,0,0,0-6.67,0,3.344,3.344,0,0,1-4.724,0,4.817,4.817,0,0,0-6.67,0,3.32,3.32,0,0,1-1.1.734.688.688,0,0,0,.517,1.275,4.684,4.684,0,0,0,1.554-1.029l.007-.007a3.344,3.344,0,0,1,4.724,0,4.757,4.757,0,0,0,6.67,0,3.345,3.345,0,0,1,4.724,0,4.686,4.686,0,0,0,3.335,1.381.688.688,0,1,0,0-1.376Z" transform="translate(-240.724 -292.058)" fill="#12782e"/>
    <path id="Path_1377" data-name="Path 1377" d="M22.244,398.542a3.317,3.317,0,0,1-1.128-.743,4.722,4.722,0,0,0-6.67,0,3.37,3.37,0,0,1-4.724,0,4.722,4.722,0,0,0-6.67,0,3.318,3.318,0,0,1-2.362.978.688.688,0,0,0,0,1.376,4.686,4.686,0,0,0,3.335-1.381,3.345,3.345,0,0,1,4.724,0,4.757,4.757,0,0,0,6.67,0,3.345,3.345,0,0,1,4.724,0,4.684,4.684,0,0,0,1.593,1.049.688.688,0,0,0,.507-1.279Z" transform="translate(-0.002 -292.059)" fill="#12782e"/>
  </g>
</svg>
