<svg xmlns="http://www.w3.org/2000/svg" width="38.2" height="33" viewBox="0 0 38.2 33">
  <g id="_021-amenities" data-name="021-amenities" transform="translate(0 -34.847)">
    <path id="Path_1385" data-name="Path 1385" d="M96.346,382.153H80.56a.56.56,0,0,0,0,1.119H96.346a1.077,1.077,0,0,1,.933,1.156c0,.33-.088.709-.772.709h-4.2a.56.56,0,0,0,0,1.119h4.2a1.743,1.743,0,0,0,1.891-1.828A2.175,2.175,0,0,0,96.346,382.153Z" transform="translate(-74.031 -321.394)" fill="#12782e"/>
    <path id="Path_1386" data-name="Path 1386" d="M210,43.164a7.452,7.452,0,0,0-.77-.747.556.556,0,0,0,.085-.3v-5.6a1.681,1.681,0,0,0-1.679-1.679h-4.477a1.681,1.681,0,0,0-1.679,1.679v5.6a.556.556,0,0,0,.085.3,7.381,7.381,0,0,0-1.763,2.167,7.422,7.422,0,0,0-1.764-2.168.556.556,0,0,0,.085-.295v-5.6a1.681,1.681,0,0,0-1.679-1.679h-4.477a1.681,1.681,0,0,0-1.679,1.679v5.6a.556.556,0,0,0,.083.293,7.487,7.487,0,0,0-2.636,5,.56.56,0,0,0,.492.62.567.567,0,0,0,.064,0,.56.56,0,0,0,.555-.5,6.278,6.278,0,0,1,3.094-4.863h4.527a6.231,6.231,0,0,1,2.746,3.332,8.524,8.524,0,0,0-.346,2.45v1.59a.56.56,0,0,0,1.119,0v-1.59a6.378,6.378,0,0,1,3.145-5.782h4.527a6.438,6.438,0,0,1,3.146,5.782v9.048a.56.56,0,0,0,1.119,0V48.463a7.772,7.772,0,0,0-1.927-5.3Zm-18.591-1.6V38.425a3.541,3.541,0,0,0,.7.07,3.94,3.94,0,0,0,1.462-.29h3.433v3.357Zm.56-5.6h4.477a.56.56,0,0,1,.56.56v.56h-3.544a.559.559,0,0,0-.22.045,2.627,2.627,0,0,1-1.832.145v-.75A.56.56,0,0,1,191.971,35.966Zm10.632,5.6V38.425a3.541,3.541,0,0,0,.7.07,3.94,3.94,0,0,0,1.462-.29H208.2v3.357Zm.56-5.6h4.477a.56.56,0,0,1,.56.56v.56h-3.544a.559.559,0,0,0-.22.045,2.627,2.627,0,0,1-1.832.145v-.75A.56.56,0,0,1,203.162,35.966Z" transform="translate(-173.729)" fill="#12782e"/>
    <path id="Path_1387" data-name="Path 1387" d="M37.64,237.148a.56.56,0,0,0-.56.56v4.18a.56.56,0,0,1-.56.56H27.228a5.345,5.345,0,0,0,.123-1.156,5.865,5.865,0,0,0-1.088-3.359v-7.682a.56.56,0,0,0-1.119,0v6.512a4.934,4.934,0,0,0-1.494-.792,2.448,2.448,0,0,0,.27-1.169,1.948,1.948,0,0,0-1.925-2.052h-.412a2.039,2.039,0,0,0,.225-.933v-1.238a2.78,2.78,0,0,0-2.194-2.732,27.345,27.345,0,0,0-5.606-.693,27.351,27.351,0,0,0-5.606.693,2.78,2.78,0,0,0-2.194,2.732v1.238a2.038,2.038,0,0,0,.263,1,7.525,7.525,0,0,0-4.3,2.122A7.229,7.229,0,0,0,0,240.022a5.859,5.859,0,0,0,1.642,4.166,5.446,5.446,0,0,0,3.9,1.616h17.09a4.854,4.854,0,0,0,3.386-1.2,3.964,3.964,0,0,0,.8-1.038h9.7a1.681,1.681,0,0,0,1.679-1.679v-4.18a.56.56,0,0,0-.56-.56Zm-15,7.538H5.545a4.449,4.449,0,0,1-4.426-4.663,6.1,6.1,0,0,1,1.841-4.287,6.426,6.426,0,0,1,4.551-1.869H9.953a.56.56,0,1,0,0-1.119h-1.7a.934.934,0,0,1-.933-.933v-1.238a1.668,1.668,0,0,1,1.316-1.639,26.227,26.227,0,0,1,5.365-.667,26.223,26.223,0,0,1,5.365.667,1.668,1.668,0,0,1,1.316,1.639v1.238a.934.934,0,0,1-.933.933H12.191a.56.56,0,0,0,0,1.119h9.8a.844.844,0,0,1,.806.933c0,.425-.112.933-.646.933H7.02a4.162,4.162,0,0,0-2.73,1.091,3.779,3.779,0,0,0-1.306,2.826,3.2,3.2,0,0,0,3.052,3.171h10a.56.56,0,0,0,0-1.119h-10A2.078,2.078,0,0,1,4.1,239.649a2.976,2.976,0,0,1,2.916-2.8H22.154a4.339,4.339,0,0,1,4.078,4.439c0,2.094-1.378,3.395-3.6,3.395Z" transform="translate(0 -177.957)" fill="#12782e"/>
  </g>
</svg>
