<svg xmlns="http://www.w3.org/2000/svg" width="22.559" height="35" viewBox="0 0 22.559 35">
  <g id="_033-arcade" data-name="033-arcade" transform="translate(-91)">
    <path id="Path_1405" data-name="Path 1405" d="M346,497h1.055v1.055H346Z" transform="translate(-237.592 -463.055)" fill="#12782e"/>
    <path id="Path_1406" data-name="Path 1406" d="M112.021,0H92.538A1.54,1.54,0,0,0,91,1.538V2.563h1.025V1.538a.513.513,0,0,1,.513-.513h19.482a.513.513,0,0,1,.513.513V5.127H92.025V3.589H91V35h16.406V33.975H92.025V25.122h20.508v8.853h-2.051V35h3.076V1.538A1.54,1.54,0,0,0,112.021,0Zm-6.152,18.457a.513.513,0,1,1,.513.513A.513.513,0,0,1,105.868,18.457Zm1.025,1.45a1.538,1.538,0,1,0-1.025,0V21.02H98.69V19.907a1.538,1.538,0,1,0-1.025,0V21.02H95.144l.943-11.792h12.383l.943,11.792h-2.521V19.907Zm-9.228-1.45a.513.513,0,1,1,.513.513A.513.513,0,0,1,97.665,18.457ZM108.774,8.2H95.785L93.051,6.152h18.457Zm-13.693.753L94.093,21.3l-2.067,2.067V6.665ZM94.8,22.046h2.864v1.025H98.69V22.046h7.178v1.025h1.025V22.046h2.864l2.051,2.051H92.75Zm15.665-.742-.988-12.348,3.055-2.291V23.371Z" fill="#12782e"/>
    <path id="Path_1407" data-name="Path 1407" d="M346,30h1.055v1.055H346Z" transform="translate(-237.592 -27.891)" fill="#12782e"/>
    <path id="Path_1408" data-name="Path 1408" d="M376,30h1.055v1.055H376Z" transform="translate(-265.605 -27.891)" fill="#12782e"/>
    <path id="Path_1409" data-name="Path 1409" d="M128,389.5v-7h-7v7Zm-5.941-5.941h4.887v4.887h-4.887Z" transform="translate(-27.891 -356.605)" fill="#12782e"/>
    <path id="Path_1410" data-name="Path 1410" d="M175.5,421h1.055v1.582H175.5Z" transform="translate(-78.731 -392.398)" fill="#12782e"/>
  </g>
</svg>
