<svg xmlns="http://www.w3.org/2000/svg" width="46.609" height="35.298" viewBox="0 0 46.609 35.298">
  <g id="_008-blueprint" data-name="008-blueprint" transform="translate(0 -62.125)">
    <path id="Path_1422" data-name="Path 1422" d="M16.161,96.058H3.51a2.147,2.147,0,0,1-2.145-2.145A2.112,2.112,0,0,1,3.554,91.79a2.1,2.1,0,0,1,2.1,2.1.683.683,0,0,0,1.366,0V81.262a.683.683,0,0,0-1.366,0v9.874a3.573,3.573,0,0,0-4.29,0v-25.5a2.145,2.145,0,1,1,4.29,0V78.287a.683.683,0,0,0,1.366,0V69.146H27.514a.683.683,0,0,0,0-1.366H7.021V65.636a3.511,3.511,0,1,0-7.021,0V93.913a3.514,3.514,0,0,0,3.51,3.51H16.161A.683.683,0,0,0,16.161,96.058Z" transform="translate(0 0)" fill="#12782e"/>
    <path id="Path_1423" data-name="Path 1423" d="M230.242,124.255H214.8a.683.683,0,0,0,0,1.366h14.755v26.911H203.453a.683.683,0,0,0,0,1.366h26.789a.683.683,0,0,0,.683-.683V124.938A.683.683,0,0,0,230.242,124.255Z" transform="translate(-184.315 -56.474)" fill="#12782e"/>
    <path id="Path_1424" data-name="Path 1424" d="M93.189,156V178.62a.683.683,0,0,0,.683.683h19.835a.683.683,0,0,0,.683-.683V156a.683.683,0,0,0-.683-.683H93.872A.683.683,0,0,0,93.189,156Zm9.849,8.483v-7.8H104.5V167.31a.683.683,0,0,0,.683.683h7.842v4.29H94.555v-7.118h7.8a.683.683,0,0,0,.683-.683Zm-8.483,9.166h7.118v4.29H94.555Zm8.483,4.29v-4.29h9.987v4.29Zm9.987-11.311h-7.159v-9.945h7.159Zm-11.352-9.945V163.8H94.554v-7.118Z" transform="translate(-84.706 -84.707)" fill="#12782e"/>
    <path id="Path_1425" data-name="Path 1425" d="M354.227,160.65a.667.667,0,0,0-.137-.956l-5.655-4.242a.683.683,0,0,0-.819,0l-5.655,4.242a.683.683,0,0,0-.137.956c.351.468.966.224,1.277-.1v4.668h-.731a.683.683,0,0,0,0,1.366h11.311a.683.683,0,0,0,0-1.366h-.731v-4.668C353.334,160.9,353.846,161.09,354.227,160.65Zm-9.76-1.129,3.559-2.669,3.559,2.669v5.692h-1.462v-3.559a.683.683,0,0,0-.683-.683h-2.828a.683.683,0,0,0-.683.683v3.559h-1.462Zm2.828,5.692v-2.876h1.462v2.876h-1.462Z" transform="translate(-310.582 -84.707)" fill="#12782e"/>
    <path id="Path_1426" data-name="Path 1426" d="M410.141,311.992a.683.683,0,0,0,0-1.365h-5.6a.683.683,0,0,0,0,1.365Z" transform="translate(-367.101 -225.88)" fill="#12782e"/>
    <path id="Path_1427" data-name="Path 1427" d="M381.965,341.689h-8.483a.683.683,0,0,0,0,1.366h8.483A.683.683,0,0,0,381.965,341.689Z" transform="translate(-338.866 -254.114)" fill="#12782e"/>
    <path id="Path_1428" data-name="Path 1428" d="M410.141,403.814h-5.6a.683.683,0,0,0,0,1.366h5.6A.683.683,0,0,0,410.141,403.814Z" transform="translate(-367.101 -310.584)" fill="#12782e"/>
    <path id="Path_1429" data-name="Path 1429" d="M438.082,372.632h-2.8a.683.683,0,0,0,0,1.366h2.8A.683.683,0,0,0,438.082,372.632Z" transform="translate(-395.042 -282.24)" fill="#12782e"/>
  </g>
</svg>
