<svg id="_042-key_card" data-name="042-key card" xmlns="http://www.w3.org/2000/svg" width="35.386" height="35.386" viewBox="0 0 35.386 35.386">
  <path id="Path_1337" data-name="Path 1337" d="M35.184,8.5a.7.7,0,0,0-.489-.2H25.987V.691A.691.691,0,0,0,25.3,0H10.091A.691.691,0,0,0,9.4.691v7.6H.691A.691.691,0,0,0,0,8.985V34.7a.691.691,0,0,0,.691.691h34a.691.691,0,0,0,.691-.691V20.319a.691.691,0,1,0-1.382,0V34H1.382V9.676H9.4v3.11H7.672a.691.691,0,0,0-.691.691v8.777a4.843,4.843,0,0,0,4.838,4.838H23.637a4.843,4.843,0,0,0,4.838-4.838V13.477a.691.691,0,0,0-.691-.691h-1.8V9.676H34V14.1a.691.691,0,1,0,1.382,0V8.985A.7.7,0,0,0,35.184,8.5ZM23.222,1.382H24.6v11.4H23.222Zm-2.765,0H21.84v11.4H20.458Zm-9.676,0h8.294v11.4H10.782ZM27.093,14.168v8.086a3.46,3.46,0,0,1-3.456,3.456H11.818a3.46,3.46,0,0,1-3.456-3.456V14.168Z" fill="#12782e"/>
  <circle id="Ellipse_77" data-name="Ellipse 77" cx="0.5" cy="0.5" r="0.5" transform="translate(33.937 17)" fill="#12782e"/>
  <path id="Path_1338" data-name="Path 1338" d="M141.691,232.4a.691.691,0,0,0,.691-.691v-6.013a.691.691,0,1,0-1.382,0V231.7A.691.691,0,0,0,141.691,232.4Z" transform="translate(-131.255 -209.449)" fill="#12782e"/>
  <path id="Path_1339" data-name="Path 1339" d="M352.691,232.4a.691.691,0,0,0,.691-.691v-6.013a.691.691,0,1,0-1.382,0V231.7A.691.691,0,0,0,352.691,232.4Z" transform="translate(-327.672 -209.449)" fill="#12782e"/>
  <path id="Path_1340" data-name="Path 1340" d="M272,414.073A2.073,2.073,0,1,0,274.073,412,2.076,2.076,0,0,0,272,414.073Zm2.765,0a.691.691,0,1,1-.691-.691A.692.692,0,0,1,274.765,414.073Z" transform="translate(-253.201 -383.525)" fill="#12782e"/>
  <path id="Path_1341" data-name="Path 1341" d="M352,414.073A2.073,2.073,0,1,0,354.073,412,2.076,2.076,0,0,0,352,414.073Zm2.765,0a.691.691,0,1,1-.691-.691A.692.692,0,0,1,354.765,414.073Z" transform="translate(-327.672 -383.525)" fill="#12782e"/>
  <ellipse id="Ellipse_78" data-name="Ellipse 78" cx="1" cy="0.5" rx="1" ry="0.5" transform="translate(11.937 4)" fill="#12782e"/>
  <ellipse id="Ellipse_79" data-name="Ellipse 79" cx="1" cy="0.5" rx="1" ry="0.5" transform="translate(11.937 10)" fill="#12782e"/>
  <ellipse id="Ellipse_80" data-name="Ellipse 80" cx="1" cy="0.5" rx="1" ry="0.5" transform="translate(11.937 7)" fill="#12782e"/>
</svg>
