<svg xmlns="http://www.w3.org/2000/svg" width="41.005" height="35.198" viewBox="0 0 41.005 35.198">
  <g id="_008-lobby" data-name="008-lobby" transform="translate(0 -36.244)">
    <path id="Path_1388" data-name="Path 1388" d="M35.981,200.9c3.033-2.252,4.855-7.964,5.024-15.83a1.8,1.8,0,0,0-1.8-1.845h-.446a3.012,3.012,0,0,0-2.732,1.755l-3.553,7.768a3.088,3.088,0,0,0-1.628-.675v-2.443c0-1.2-.929-2.4-3-2.4H19.027a3.172,3.172,0,0,0-2.4.876,3.172,3.172,0,0,0-2.4-.876H9.549a.6.6,0,1,0,0,1.2H14.22c1.095,0,1.8.472,1.8,1.2v5.212a.6.6,0,1,0,1.2,0v-5.212c0-.73.708-1.2,1.8-1.2h8.812c1.095,0,1.8.472,1.8,1.2v2.441a2.443,2.443,0,0,0-2.4,2.366V196.9H23.82a1.8,1.8,0,0,0-1.412,2.925,7.179,7.179,0,0,0,3.224,2.141l-.679,2.144H17.306l-.393-1.241c2.062-.2,3-1.187,3-2.164a1.4,1.4,0,0,0-1.4-1.4H17.224v-.73c0-.347.428-.471.829-.471h2.563a.6.6,0,0,0,0-1.2H18.053a2.3,2.3,0,0,0-1.43.441,2.388,2.388,0,0,0-1.429-.441H6.009v-2.466a2.443,2.443,0,0,0-2.4-2.366v-2.441c0-.73.708-1.2,1.8-1.2H7.146a.6.6,0,1,0,0-1.2H5.408c-2.075,0-3,1.207-3,2.4v2.441A2.443,2.443,0,0,0,0,194.438v10.277a.6.6,0,0,0,.6.6H3.926a.6.6,0,1,0,0-1.2H1.2v-9.676c0-.73.708-1.2,1.8-1.2s1.8.472,1.8,1.2v4.87h-.2a1.4,1.4,0,0,0-1.4,1.4c0,.977.935,1.961,3,2.164l-.948,2.994a.6.6,0,1,0,1.146.363l.29-.914h9.737l.29.914a.6.6,0,1,0,1.146-.363l-.175-.551h6.887l-.175.551a.6.6,0,1,0,1.146.363l.29-.914h6.812a.6.6,0,1,0,0-1.2H26.215l.571-1.8a12.915,12.915,0,0,0,2.989.343,11.692,11.692,0,0,0,5.148-1.114l1.485,4.691a.6.6,0,0,0,1.146-.363Zm-29.973-2.8h9.186c.4,0,.829.124.829.471v.73H6.009Zm-1.6,2.6a.2.2,0,0,1,.2-.2h13.9a.2.2,0,0,1,.2.2c0,.327-.636,1-2.6,1h-9.1a4.051,4.051,0,0,1-2.18-.461c-.312-.2-.423-.415-.423-.54Zm2.663,3.4.381-1.2h8.214l.381,1.2Zm30.048-18.633a1.807,1.807,0,0,1,1.639-1.053h.4l-4.9,10.721a3.011,3.011,0,0,1-2.673,1.752,4.187,4.187,0,0,0,.882-1.253Zm-8.677,8.957c0-.73.708-1.2,1.8-1.2a1.83,1.83,0,0,1,1.68.713l-.549,1.2a3.012,3.012,0,0,1-2.732,1.755h-.2Zm-5.092,4.642a.6.6,0,0,1,.472-.974h7.705a4.216,4.216,0,0,0,3.825-2.457l4.424-9.673c-.288,7.241-2.087,12.518-4.873,14.205a10.044,10.044,0,0,1-5.127,1.271C27.02,201.452,24.5,200.521,23.349,199.08Z" transform="translate(0 -135.208)" fill="#12782e"/>
    <path id="Path_1389" data-name="Path 1389" d="M30.6,48.415H57.839a.6.6,0,0,0,.6-.6V36.845a.6.6,0,0,0-.6-.6h-8.42a.6.6,0,1,0,0,1.2h7.819v1.445a45.446,45.446,0,0,0-5.156,3.3c-.885-.546-3.18-1.856-4.8-1.856a9.517,9.517,0,0,0-4.274,1.437A24.2,24.2,0,0,1,31.2,44.8V37.446H47.016a.6.6,0,1,0,0-1.2H30.6a.6.6,0,0,0-.6.6V47.814A.6.6,0,0,0,30.6,48.415Zm12.954-5.567a8.736,8.736,0,0,1,3.729-1.307c1.359,0,3.707,1.362,4.5,1.886a.6.6,0,0,0,.7-.028,43.4,43.4,0,0,1,4.754-3.133v6.946H31.2V46.007A25.261,25.261,0,0,0,43.555,42.848Z" transform="translate(-27.597)" fill="#12782e"/>
  </g>
</svg>
