<svg xmlns="http://www.w3.org/2000/svg" width="38.488" height="35.331" viewBox="0 0 38.488 35.331">
  <g id="Group_1144" data-name="Group 1144" transform="translate(0 -21)">
    <circle id="Ellipse_61" data-name="Ellipse 61" cx="1" cy="1" r="1" transform="translate(18 47)" fill="#12782e"/>
    <path id="Path_1320" data-name="Path 1320" d="M37.736,21H.752A.752.752,0,0,0,0,21.752v4.134a.752.752,0,0,0,.752.752H3.608V40.733a15.715,15.715,0,0,0,.336,3.144A15.5,15.5,0,0,0,4.862,46.8a15.671,15.671,0,0,0,8.309,8.3,15.47,15.47,0,0,0,2.928.909,15.7,15.7,0,0,0,3.144.317A15.6,15.6,0,0,0,34.4,44.447a.752.752,0,0,0-.552-.909.761.761,0,0,0-.179-.022.75.75,0,0,0-.73.574,14.169,14.169,0,0,1-1.026,2.844h-1.24a3.706,3.706,0,0,1-3.524-2.555,8.293,8.293,0,0,0-7.882-5.714,8.321,8.321,0,0,0-7.486,4.724c-.114.238-.443,1.1-.443,1.1a3.719,3.719,0,0,1-3.485,2.441H6.581a14.07,14.07,0,0,1-1.469-6.2V35.658H33.3v1.879a.752.752,0,1,0,1.5,0v-10.9h2.932a.752.752,0,0,0,.752-.752V21.752A.752.752,0,0,0,37.736,21ZM7.851,48.438a5.226,5.226,0,0,0,4.9-3.43s.284-.752.37-.936a6.79,6.79,0,0,1,10.131-2.61,6.742,6.742,0,0,1,2.467,3.385,5.209,5.209,0,0,0,4.953,3.591h.389a14.06,14.06,0,0,1-11.813,6.39h0A14.006,14.006,0,0,1,9.278,50.7a14.233,14.233,0,0,1-1.84-2.261ZM33.3,34.155H5.112v-4.51H33.3Zm0-6.014H5.112v-1.5H33.3Zm3.683-3.007H1.5V22.5H36.984Z" fill="#12782e"/>
    <path id="Path_1321" data-name="Path 1321" d="M188.95,314.4a5.45,5.45,0,1,0-5.45-5.45A5.456,5.456,0,0,0,188.95,314.4Zm0-9.4A3.947,3.947,0,1,1,185,308.95,3.951,3.951,0,0,1,188.95,305Z" transform="translate(-169.706 -261.264)" fill="#12782e"/>
  </g>
</svg>
