<svg xmlns="http://www.w3.org/2000/svg" width="32.52" height="35.426" viewBox="0 0 32.52 35.426">
  <g id="_007-conference" data-name="007-conference" transform="translate(-21)">
    <path id="Path_1351" data-name="Path 1351" d="M52.828,23.871H50.89V20.34a2.7,2.7,0,0,0-.069-5.4H44.5l.282-2.007h1.128a.692.692,0,0,0,.692-.692V7.611a.692.692,0,0,0-.692-.692h-.786L45.7,5.074l.718.482a.692.692,0,1,0,.771-1.149L44.752,2.768a2.078,2.078,0,1,0-.876,1.079l.631.423-.835,2.649h-3.3a.692.692,0,0,0,0,1.384h4.843v3.252H29.3V8.3h4.843a.692.692,0,0,0,0-1.384h-3.3L30.013,4.27l.631-.423a2.076,2.076,0,1,0-.876-1.079L27.326,4.407A.692.692,0,1,0,28.1,5.556l.718-.482L29.4,6.919h-.786a.692.692,0,0,0-.692.692v4.636a.692.692,0,0,0,.692.692h1.128l.282,2.007H23.7a2.7,2.7,0,0,0-.069,5.4v3.53H21.692a.692.692,0,0,0-.692.692v4.013a.692.692,0,0,0,.692.692h.692v5.466a.692.692,0,1,0,1.384,0V29.268h6.227v5.466a.692.692,0,1,0,1.384,0V29.268h1.384v5.466a.692.692,0,0,0,1.384,0V29.268h6.227v5.466a.692.692,0,1,0,1.384,0V29.268h1.384v5.466a.692.692,0,0,0,1.384,0V29.268h6.227v5.466a.692.692,0,1,0,1.384,0V29.268h.692a.692.692,0,0,0,.692-.692V24.563A.692.692,0,0,0,52.828,23.871ZM42.8,2.768a.692.692,0,1,1,.692-.692A.693.693,0,0,1,42.8,2.768ZM31.725,1.384a.692.692,0,1,1-.692.692A.693.693,0,0,1,31.725,1.384ZM44.456,16.329h6.366a1.315,1.315,0,0,1,0,2.629H44.456a1.315,1.315,0,1,1,0-2.629Zm5.051,4.013v3.529H45.77V20.342Zm-5.12,0v3.53H43.245l.509-3.622A2.69,2.69,0,0,0,44.386,20.34ZM31.379,27.884H22.384V25.255h8.995Zm-6.366-4.013V20.342h3.736v3.529Zm5.12,0V20.34a2.689,2.689,0,0,0,.633-.091l.509,3.622Zm-.069-4.913H23.7a1.315,1.315,0,0,1,0-2.629h6.366a1.315,1.315,0,0,1,0,2.629Zm2.608,4.913-.619-4.406.018-.019a2.692,2.692,0,0,0,1.937.895v3.53Zm1.405-4.913a1.315,1.315,0,1,1,0-2.629h6.366a1.315,1.315,0,1,1,0,2.629Zm5.051,1.384v3.529H35.392V20.342Zm2.629,7.542H32.762V25.255h8.995Zm.09-4.013H40.512V20.34a2.692,2.692,0,0,0,1.937-.895l.018.019Zm1.2-8.526a2.718,2.718,0,0,0-.6.5,2.692,2.692,0,0,0-2.007-.9H34.077a2.692,2.692,0,0,0-2.007.9,2.719,2.719,0,0,0-.6-.5l-.338-2.406H43.383Zm9.091,12.539H43.141V25.255h8.995Z" fill="#12782e"/>
    <circle id="Ellipse_89" data-name="Ellipse 89" cx="0.5" cy="0.5" r="0.5" transform="translate(37 7)" fill="#12782e"/>
  </g>
</svg>
