<svg xmlns="http://www.w3.org/2000/svg" width="38.729" height="22" viewBox="0 0 38.729 22">
  <path id="Path_1362" data-name="Path 1362" d="M35.928,116.446h2.35a.567.567,0,0,0,.567-.567v-4.7a.567.567,0,0,0-.567-.567h-2.35a.567.567,0,0,0-.567.567v1.782H26.926a2.917,2.917,0,0,0-5.723,0h-3.56a2.917,2.917,0,0,0-5.723,0H3.6v-1.782a.567.567,0,0,0-.567-.567H.683a.567.567,0,0,0-.567.567v4.7a.567.567,0,0,0,.567.567h2.35a.567.567,0,0,0,.567-.567V114.1H16.471a1.786,1.786,0,0,1-1.69,1.215.567.567,0,0,0-.567.567v1.782h-.648a1.7,1.7,0,0,0-1.7,1.7v2.055l-3.849,2.8a.567.567,0,1,0,.667.918l4.082-2.969a.567.567,0,0,0,.234-.459v-2.344a.568.568,0,0,1,.567-.567H16a.568.568,0,0,1,.567.567v2.344a.567.567,0,0,0,.234.459l11.246,8.18c.384.331.346,1.138-.339,1.132H20.659a.567.567,0,1,0,0,1.135H36.987a1.715,1.715,0,0,0,1.007-3.184l-4.288-3.119a.567.567,0,1,0-.667.918l4.288,3.119a.614.614,0,0,1-.339,1.132H29.343a1.736,1.736,0,0,0-.006-1.233h4.008c.641,0,.792-.652.334-1.026l-9.28-6.75a.574.574,0,0,0-.672,0l-2.293,1.667-1.048-.762,1.661-1.208a.567.567,0,0,0,.234-.459v-2.344a.568.568,0,0,1,.567-.567h2.43a.568.568,0,0,1,.567.567v2.344a.567.567,0,0,0,.234.459l4.959,3.607a.567.567,0,0,0,.667-.918l-4.726-3.437v-2.055a1.7,1.7,0,0,0-1.7-1.7h-.648v-1.27a2.926,2.926,0,0,0,2.294-2.294h8.435v1.782a.567.567,0,0,0,.567.567ZM2.466,115.311H1.251v-3.565H2.466Zm21.6-3.565a1.786,1.786,0,0,1,1.69,1.215h-3.38a1.785,1.785,0,0,1,1.69-1.215Zm-9.283,0a1.786,1.786,0,0,1,1.69,1.215h-3.38A1.786,1.786,0,0,1,14.781,111.747Zm9.283,11.881L31.6,129.11H28.274L22.4,124.838Zm0-8.316a.567.567,0,0,0-.567.567v1.782h-.648a1.7,1.7,0,0,0-1.7,1.7v2.055l-1.724,1.254L17.7,121.418v-2.055a1.7,1.7,0,0,0-1.7-1.7h-.648v-1.27a2.926,2.926,0,0,0,2.294-2.294h8.111a1.786,1.786,0,0,1-1.69,1.215ZM36.5,111.747h1.215v3.565H36.5Z" transform="translate(-0.116 -110.612)" fill="#12782e"/>
</svg>
