<svg xmlns="http://www.w3.org/2000/svg" width="39.956" height="34.805" viewBox="0 0 39.956 34.805">
  <g id="_037-sauna" data-name="037-sauna" transform="translate(0 -33.006)">
    <path id="Path_1380" data-name="Path 1380" d="M449.217,48.224a.585.585,0,1,0,1.037.543,8.392,8.392,0,0,0,0-8,7.251,7.251,0,0,1,0-6.909.585.585,0,0,0-1.037-.544,8.392,8.392,0,0,0,0,8A7.252,7.252,0,0,1,449.217,48.224Z" transform="translate(-413.226)" fill="#12782e"/>
    <path id="Path_1381" data-name="Path 1381" d="M38.2,52.594h-.642a3.006,3.006,0,0,0-3.13-2.341,3.22,3.22,0,0,0-2.6,1.171,3.475,3.475,0,0,0-5.2,0,3.22,3.22,0,0,0-2.6-1.171,3.006,3.006,0,0,0-3.13,2.341h-.642A1.758,1.758,0,0,0,18.5,54.349v.585H8.657a.585.585,0,0,0,0,1.171H18.5v3.512H1.171V56.105H6.316a.585.585,0,0,0,0-1.171H1.171V51.423h17.91a.585.585,0,1,0,0-1.171H1.171V47.326a.586.586,0,0,1,.585-.585H22.541a7.831,7.831,0,0,1-.6,1.484.585.585,0,1,0,1.037.543,8.979,8.979,0,0,0,.773-2.028h3.47a7.831,7.831,0,0,1-.6,1.484.585.585,0,1,0,1.037.543,8.979,8.979,0,0,0,.773-2.028h3.47a7.83,7.83,0,0,1-.6,1.484.585.585,0,1,0,1.037.543,8.98,8.98,0,0,0,.773-2.028h2.038a.585.585,0,0,0,0-1.171H33.319a8.468,8.468,0,0,0-.974-4.8,7.251,7.251,0,0,1,0-6.909.585.585,0,0,0-1.037-.544,8.392,8.392,0,0,0,0,8,7.305,7.305,0,0,1,.829,4.254h-3.5a8.468,8.468,0,0,0-.974-4.8,7.251,7.251,0,0,1,0-6.909.585.585,0,0,0-1.037-.544,8.392,8.392,0,0,0,0,8,7.305,7.305,0,0,1,.829,4.254h-3.5a8.468,8.468,0,0,0-.974-4.8,7.251,7.251,0,0,1,0-6.909.585.585,0,0,0-1.037-.544,8.392,8.392,0,0,0,0,8,7.305,7.305,0,0,1,.829,4.254H5.073V42.839H20.6a.585.585,0,1,0,0-1.171H5.073V38.937H19.328a.585.585,0,0,0,0-1.171H5.073V35.62a.586.586,0,0,1,.585-.585H19.74a.585.585,0,1,0,0-1.171H5.658A1.758,1.758,0,0,0,3.9,35.62v9.95H1.756A1.758,1.758,0,0,0,0,47.326V60.2a.585.585,0,0,0,.585.585H18.5v6.438a.585.585,0,0,0,.585.585h20.29a.585.585,0,0,0,.585-.585V54.349A1.758,1.758,0,0,0,38.2,52.594Zm-3.772-1.171a1.918,1.918,0,0,1,1.925,1.171H32.5A1.918,1.918,0,0,1,34.428,51.423Zm-5.2,0a1.918,1.918,0,0,1,1.925,1.171H27.3A1.918,1.918,0,0,1,29.226,51.423Zm-5.2,0a1.918,1.918,0,0,1,1.925,1.171H22.1A1.918,1.918,0,0,1,24.023,51.423Zm-3.772,2.341H38.2a.586.586,0,0,1,.585.585v2.926H19.666V54.349A.586.586,0,0,1,20.251,53.764Zm-.585,12.877V63.129H32.087a.585.585,0,1,0,0-1.171H19.666V58.447h19.12v3.512H34.428a.585.585,0,1,0,0,1.171h4.357v3.512Z" transform="translate(0 -0.001)" fill="#12782e"/>
  </g>
</svg>
