<svg id="_013-elevator" data-name="013-elevator" xmlns="http://www.w3.org/2000/svg" width="35" height="35" viewBox="0 0 35 35">
  <path id="Path_1344" data-name="Path 1344" d="M34.8.2a.689.689,0,0,0-.483-.2H.684A.684.684,0,0,0,0,.684V34.316A.684.684,0,0,0,.684,35H34.316A.684.684,0,0,0,35,34.316V30.488a.684.684,0,0,0-1.367,0h0v3.145H32.266V11.074a.684.684,0,0,0-.684-.684H11.621a.684.684,0,0,0-.684.684V33.633H1.367V1.367H33.633V24.336a.684.684,0,0,0,1.367,0V.684A.689.689,0,0,0,34.8.2ZM30.9,33.633H23.652V11.758H30.9ZM22.285,11.758V33.633H20.918V11.758Zm-9.98,0h7.246V33.633H12.3Z" fill="#12782e"/>
  <ellipse id="Ellipse_83" data-name="Ellipse 83" cx="0.5" cy="1" rx="0.5" ry="1" transform="translate(34 26.583)" fill="#12782e"/>
  <path id="Path_1345" data-name="Path 1345" d="M40.742,195a.742.742,0,0,0-.742.742v9.277a.742.742,0,0,0,.742.742H46.68a.742.742,0,0,0,.742-.742v-9.277A.742.742,0,0,0,46.68,195Zm5.2,9.277H41.484v-7.793h4.453Z" transform="translate(-37.031 -182.121)" fill="#12782e"/>
  <path id="Path_1346" data-name="Path 1346" d="M234,46.086a.742.742,0,0,0,.742.742H245.43a.742.742,0,0,0,.742-.742,6.086,6.086,0,0,0-12.172,0Zm2.352-2.684,1.942,1.942h-2.75A4.576,4.576,0,0,1,236.352,43.4Zm8.276,1.942h-4.234L237.4,42.351a4.6,4.6,0,0,1,7.227,2.993Z" transform="translate(-218.65 -37.031)" fill="#12782e"/>
  <ellipse id="Ellipse_84" data-name="Ellipse 84" cx="0.5" cy="1" rx="0.5" ry="1" transform="translate(6 15.583)" fill="#12782e"/>
  <circle id="Ellipse_85" data-name="Ellipse 85" cx="0.5" cy="0.5" r="0.5" transform="translate(6 19.297)" fill="#12782e"/>
</svg>
