<svg xmlns="http://www.w3.org/2000/svg" width="42.883" height="29.878" viewBox="0 0 42.883 29.878">
  <path id="_005-bed" data-name="005-bed" d="M40.954,90.645H30.928a.628.628,0,0,0,0,1.256h8.1v6.549H16.866V91.9H28.19a.628.628,0,1,0,0-1.256H13.9a2.578,2.578,0,0,0-2.213-3.9H10.041a.628.628,0,1,0,0,1.256h1.645a1.323,1.323,0,1,1,0,2.646h-6.5a1.324,1.324,0,0,1-1.323-1.29V89.29A1.324,1.324,0,0,1,5.181,88H7.3a.628.628,0,1,0,0-1.256H5.181a2.563,2.563,0,0,0-1.323.366V79.566a1.929,1.929,0,0,0-3.858,0v27.317a.628.628,0,0,0,.628.628h2.6a.628.628,0,0,0,.628-.628v-3.274H14.87a.628.628,0,1,0,0-1.256H3.858V99.707H39.025v2.646H17.607a.628.628,0,0,0,0,1.256H39.025v3.278a.628.628,0,0,0,.628.628h2.6a.628.628,0,0,0,.628-.628V92.574a1.931,1.931,0,0,0-1.929-1.929ZM15.61,91.9V98.45H14.265V91.9ZM1.256,106.255V79.566a.673.673,0,0,1,1.345,0v26.689ZM3.858,91.9h9.15v6.549H3.858Zm37.768,14.357H40.281V103c0-.007,0-.014,0-.022V91.9h.672a.673.673,0,0,1,.673.673v13.684Z" transform="translate(0 -77.637)" fill="#12782e"/>
</svg>
