<svg xmlns="http://www.w3.org/2000/svg" width="40.4" height="30.659" viewBox="0 0 40.4 30.659">
  <g id="_036-spa" data-name="036-spa" transform="translate(0 -61.723)">
    <path id="Path_1378" data-name="Path 1378" d="M39.807,76.963a.593.593,0,0,0,.593-.593V72.138a.593.593,0,0,0-.593-.593H36.1V70.218a3.054,3.054,0,0,0,2.455-2.99c0-1.467-2.133-4.629-2.561-5.248a.593.593,0,0,0-.976,0c-.428.619-2.561,3.781-2.561,5.248a3.053,3.053,0,0,0,2.455,2.99v1.328h-3.7a.593.593,0,0,0-.593.593v6.809a5.533,5.533,0,0,0-.562-.028H27.032c2.059-1.257,1.9-7.522,1.934-10.526q-.145-.783-.9-.517c-.128.076-2.9,1.725-5.1,3.369-.943-2.023-2.006-3.934-2.212-4.3a.593.593,0,0,0-1.034,0c-.2.362-1.239,2.224-2.172,4.215-2.186-1.616-4.866-3.21-4.989-3.283q-.75-.266-.9.517c.035,2.983.313,9.889,1.932,10.526H9.78V72.138a.593.593,0,0,0-.593-.593h-3.7V70.217a3.054,3.054,0,0,0,2.455-2.99c0-1.467-2.133-4.629-2.561-5.248a.593.593,0,0,0-.976,0c-.428.619-2.561,3.781-2.561,5.248A3.053,3.053,0,0,0,4.3,70.217v1.328H.593A.593.593,0,0,0,0,72.138V91.789a.593.593,0,0,0,.593.593h9.69a.593.593,0,0,0,0-1.186h-9.1v-1.27H39.214V91.2H12.867a.593.593,0,0,0,0,1.186h26.94a.593.593,0,0,0,.593-.593V78.955a.593.593,0,1,0-1.186,0v9.786H33.472A5.505,5.505,0,0,0,31.806,79.2V72.731h7.408v3.639a.593.593,0,0,0,.593.593ZM27.756,69.457c-.078,2.492-.343,6.773-1,7.916a3.1,3.1,0,0,1-3.461,1.445,4.262,4.262,0,0,0,1.221-2.989,10.92,10.92,0,0,0-1.049-3.474C24.9,71.262,26.692,70.117,27.756,69.457Zm-7.519-.988a43.737,43.737,0,0,1,3.091,7.36,3.1,3.1,0,0,1-2.5,3.033,3.162,3.162,0,0,1-1.186,0,3.1,3.1,0,0,1-2.5-3.033,39.084,39.084,0,0,1,3.091-7.36Zm-7.364.988c1.035.642,2.757,1.744,4.174,2.808a11.19,11.19,0,0,0-1.087,3.563,4.263,4.263,0,0,0,1.252,3.02,3.1,3.1,0,0,1-3.336-1.476c-.66-1.142-.925-5.423-1-7.916Zm-9.846-2.23c0-.679.973-2.452,1.863-3.84.89,1.387,1.863,3.16,1.863,3.84a1.866,1.866,0,0,1-1.27,1.766V67.232a.593.593,0,1,0-1.186,0v1.761a1.866,1.866,0,0,1-1.27-1.766ZM5.168,88.741H1.186V72.731H8.594v6.193A3.908,3.908,0,0,0,4.911,82.8,3.867,3.867,0,0,0,6.2,85.686,2.436,2.436,0,0,0,5.168,88.741Zm29.208-4.318a4.355,4.355,0,0,1-4.318,4.318H7.133a1.037,1.037,0,0,1,0-2.074l22.528,0a2.219,2.219,0,0,0,0-4.438l-7.986-.017h0a.593.593,0,0,0,0,1.186l7.985.017a1.033,1.033,0,0,1,0,2.066l-21.009,0A2.683,2.683,0,0,1,6.1,82.8,2.713,2.713,0,0,1,8.786,80.1H30.059A4.323,4.323,0,0,1,34.376,84.423ZM35.51,66.642a.593.593,0,0,0-.593.593v1.758a1.866,1.866,0,0,1-1.27-1.766c0-.679.973-2.452,1.863-3.84.89,1.387,1.863,3.16,1.863,3.84a1.866,1.866,0,0,1-1.27,1.766V67.235A.593.593,0,0,0,35.51,66.642Z" transform="translate(0 0)" fill="#12782e"/>
    <path id="Path_1379" data-name="Path 1379" d="M120.458,321l-10.887-.024h0a.652.652,0,0,0,0,1.3l10.887.024h0a.652.652,0,0,0,0-1.3Z" transform="translate(-100.645 -238.882)" fill="#12782e"/>
  </g>
</svg>
