<svg xmlns="http://www.w3.org/2000/svg" width="22.943" height="35.499" viewBox="0 0 22.943 35.499">
  <g id="bonfire" transform="translate(-90.548 0)">
    <g id="Group_843" data-name="Group 843" transform="translate(92.775 0)">
      <g id="Group_842" data-name="Group 842">
        <path id="Path_1430" data-name="Path 1430" d="M138.884,7.476a.631.631,0,0,0-1.053.7,11.041,11.041,0,0,1,1.989,7.507,6.633,6.633,0,0,1-4.343,5.47,7.258,7.258,0,0,0,.145-1.5A5.173,5.173,0,0,0,134,16.189a6.03,6.03,0,0,1-1.806-3.9.631.631,0,0,0-.984-.492,7.256,7.256,0,0,0-3.519,4.983,7.39,7.39,0,0,0,1.172,4.723,7.867,7.867,0,0,1-2.989-1.526,5.321,5.321,0,0,1-1.942-4.085c-.064-2.832,1.183-4,2.762-5.477a11.153,11.153,0,0,0,4.226-8.7,25.169,25.169,0,0,1,5.752,4.9.631.631,0,1,0,.967-.811A26.192,26.192,0,0,0,130.608.073a.631.631,0,0,0-.926.558c0,5.259-1.959,7.093-3.854,8.866-1.592,1.49-3.239,3.031-3.161,6.427a6.621,6.621,0,0,0,2.386,5.018,9.8,9.8,0,0,0,5.178,2.116.631.631,0,0,0,.551-1.04c-.511-.591-2.156-2.7-1.842-5.067a5.508,5.508,0,0,1,2.135-3.475A7.8,7.8,0,0,0,133.033,17a4.019,4.019,0,0,1,1.326,2.647,4.57,4.57,0,0,1-.459,2.2.631.631,0,0,0,.713.915,9.373,9.373,0,0,0,4.258-2.344,7.565,7.565,0,0,0,2.2-4.589A12.265,12.265,0,0,0,138.884,7.476Z" transform="translate(-122.664 0)" fill="#12782e"/>
      </g>
    </g>
    <g id="Group_845" data-name="Group 845" transform="translate(90.548 22.892)">
      <g id="Group_844" data-name="Group 844" transform="translate(0)">
        <path id="Path_1431" data-name="Path 1431" d="M113.08,337.766l-3.472-1.295,3.472-1.3a.631.631,0,0,0,.371-.812l-1.412-3.786a.631.631,0,0,0-.812-.371l-6.748,2.516a.631.631,0,0,0,.441,1.183l6.156-2.3.971,2.6L107.8,335.8l-9.711-3.622a.631.631,0,0,0-.441,1.183l14.4,5.37-.971,2.6-19.085-7.117.971-2.6,2.662.993a.631.631,0,0,0,.441-1.183l-3.253-1.213a.631.631,0,0,0-.812.371l-1.412,3.785a.631.631,0,0,0,.371.812l3.472,1.295-3.472,1.3a.631.631,0,0,0-.371.812L92,342.364a.63.63,0,0,0,.812.371l9.208-3.434,9.207,3.434a.631.631,0,0,0,.812-.371l1.412-3.785a.631.631,0,0,0-.371-.812Zm-20.117,3.565-.971-2.6,4.246-1.584,3.976,1.483Z" transform="translate(-90.548 -330.168)" fill="#12782e"/>
      </g>
    </g>
  </g>
</svg>
