<svg xmlns="http://www.w3.org/2000/svg" width="46.504" height="35.423" viewBox="0 0 46.504 35.423">
  <g id="_040-microwave" data-name="040-microwave" transform="translate(0 -61)">
    <path id="Path_1353" data-name="Path 1353" d="M46.238,61.266A.915.915,0,0,0,45.6,61H.908A.909.909,0,0,0,0,61.908V95.515a.908.908,0,0,0,.908.908H7.266a.908.908,0,0,0,.908-.908V92.79h10.99a.908.908,0,0,0,0-1.817H1.817V89.157h27.43v1.817H27.339a.908.908,0,1,0,0,1.817h10.99v2.725a.908.908,0,0,0,.908.908H45.6a.908.908,0,0,0,.908-.908V61.908A.915.915,0,0,0,46.238,61.266ZM29.247,83.331,27.43,81.514V72.276l1.817-1.817Zm1.817-15.973H44.687v5.45H31.063Zm13.624-1.817H31.063V62.817H44.687ZM29.247,62.817v1.817H1.817V62.817ZM6.358,92.79v1.817H1.817V92.79ZM1.817,66.45h27.43v1.44L25.88,71.257a.909.909,0,0,0-.266.642V81.89a.909.909,0,0,0,.266.642L29.247,85.9v1.44H1.817Zm29.247,8.175H44.687V90.973H31.063ZM44.687,94.606H40.146V92.79h4.541Z" fill="#12782e"/>
    <circle id="Ellipse_91" data-name="Ellipse 91" cx="1" cy="1" r="1" transform="translate(22 91)" fill="#12782e"/>
    <circle id="Ellipse_92" data-name="Ellipse 92" cx="1" cy="1" r="1" transform="translate(33 80)" fill="#12782e"/>
    <circle id="Ellipse_93" data-name="Ellipse 93" cx="1" cy="1" r="1" transform="translate(37 80)" fill="#12782e"/>
    <circle id="Ellipse_94" data-name="Ellipse 94" cx="1" cy="1" r="1" transform="translate(41 80)" fill="#12782e"/>
    <path id="Path_1359" data-name="Path 1359" d="M131.9,254.382a.791.791,0,0,0-.721-.444H127.94l2.992-3.839a.8.8,0,0,0-1.261-.993l-4,5.121a.814.814,0,0,0,.631,1.312h3.217l-2.049,2.551-.063-.322a.8.8,0,1,0-1.57.31l.4,2.01a.809.809,0,0,0,.785.653h2a.8.8,0,0,0,0-1.6h-.336l3.122-3.907A.809.809,0,0,0,131.9,254.382Z" transform="translate(-113.053 -178.487)" fill="#12782e"/>
  </g>
</svg>
