<svg xmlns="http://www.w3.org/2000/svg" width="47.242" height="35.306" viewBox="0 0 47.242 35.306">
  <g id="_036-laptop" data-name="036-laptop" transform="translate(0 -64.679)">
    <path id="Path_1411" data-name="Path 1411" d="M45.858,94.449V66.755a2.078,2.078,0,0,0-2.076-2.076H3.46a2.078,2.078,0,0,0-2.076,2.076v2.768H2.768V66.755a.693.693,0,0,1,.692-.692H43.782a.693.693,0,0,1,.692.692V94.449H26.643l-.692,1.463h-4.66L20.6,94.449H2.768V70.907H1.384V94.449H0v2.076a3.464,3.464,0,0,0,3.46,3.46H37.554V98.6H3.46a2.078,2.078,0,0,1-2.076-2.076v-.692H19.723l.692,1.463h6.413l.692-1.463H45.858v.692A2.078,2.078,0,0,1,43.782,98.6H41.706v1.384h2.076a3.464,3.464,0,0,0,3.46-3.46V94.449Z" fill="#12782e"/>
    <path id="Path_1412" data-name="Path 1412" d="M422,432.321h1.384v1.384H422Z" transform="translate(-383.062 -333.72)" fill="#12782e"/>
    <path id="Path_1413" data-name="Path 1413" d="M83.938,94.679H45V120.3H83.938Zm-1.384,24.234H46.384V96.063h36.17Z" transform="translate(-40.848 -27.232)" fill="#12782e"/>
    <path id="Path_1414" data-name="Path 1414" d="M422,124.679h1.384v1.384H422Z" transform="translate(-383.062 -54.464)" fill="#12782e"/>
    <path id="Path_1415" data-name="Path 1415" d="M422,154.679h1.384v1.384H422Z" transform="translate(-383.062 -81.696)" fill="#12782e"/>
  </g>
</svg>
