<svg xmlns="http://www.w3.org/2000/svg" width="30" height="35.414" viewBox="0 0 30 35.414">
  <g id="_036-washing_machine" data-name="036-washing machine" transform="translate(-41)">
    <path id="Path_1332" data-name="Path 1332" d="M70.54.2a.7.7,0,0,0-.489-.2H41.692A.692.692,0,0,0,41,.692V34.722a.692.692,0,0,0,.692.692H70.051a.692.692,0,0,0,.692-.692V28.013a.692.692,0,1,0-1.383,0v2.559H61.75a.692.692,0,0,0-.692.692v2.767H50.684V31.264a.692.692,0,0,0-.692-.692H42.383V9.684H69.359v12.1a.692.692,0,0,0,1.383,0V.692A.7.7,0,0,0,70.54.2Zm-8.1,31.753h6.917v2.075H62.442Zm-13.142,0v2.075H42.383V31.956ZM42.383,8.3V1.383H69.359V8.3Z" fill="#12782e"/>
    <circle id="Ellipse_69" data-name="Ellipse 69" cx="1" cy="1" r="1" transform="translate(69 24)" fill="#12782e"/>
    <path id="Path_1333" data-name="Path 1333" d="M149.235,166.121a8.542,8.542,0,1,0,0,4.842h2.425a.692.692,0,0,0,.692-.692v-3.458a.692.692,0,0,0-.692-.692Zm-8.192,9.58a7.159,7.159,0,1,1,7.159-7.159A7.167,7.167,0,0,1,141.042,175.7Zm9.926-6.121h-1.383V167.5h1.383Z" transform="translate(-85.171 -148.933)" fill="#12782e"/>
    <path id="Path_1334" data-name="Path 1334" d="M178.276,200a5.776,5.776,0,1,0,5.776,5.776A5.782,5.782,0,0,0,178.276,200Zm0,1.383a4.4,4.4,0,0,1,4.366,3.915c-1.027.326-2.891.683-3.963-.085a4.849,4.849,0,0,0-4.066-.8,5.655,5.655,0,0,0-.563.167A4.4,4.4,0,0,1,178.276,201.383Zm0,8.784a4.4,4.4,0,0,1-4.375-4.015,3.673,3.673,0,0,1,3.972.185,4.326,4.326,0,0,0,2.55.717,8.635,8.635,0,0,0,2.133-.3A4.4,4.4,0,0,1,178.276,210.168Z" transform="translate(-122.404 -186.166)" fill="#12782e"/>
    <path id="Path_1335" data-name="Path 1335" d="M228.075,40a2.075,2.075,0,1,0,2.075,2.075A2.077,2.077,0,0,0,228.075,40Zm0,2.767a.692.692,0,1,1,.692-.692A.692.692,0,0,1,228.075,42.767Z" transform="translate(-172.204 -37.233)" fill="#12782e"/>
    <circle id="Ellipse_70" data-name="Ellipse 70" cx="1" cy="1" r="1" transform="translate(62 4)" fill="#12782e"/>
    <circle id="Ellipse_71" data-name="Ellipse 71" cx="1" cy="1" r="1" transform="translate(59 4)" fill="#12782e"/>
    <ellipse id="Ellipse_72" data-name="Ellipse 72" cx="0.5" cy="1" rx="0.5" ry="1" transform="translate(66 4)" fill="#12782e"/>
    <ellipse id="Ellipse_73" data-name="Ellipse 73" cx="0.5" cy="1" rx="0.5" ry="1" transform="translate(51 4)" fill="#12782e"/>
    <ellipse id="Ellipse_74" data-name="Ellipse 74" cx="0.5" cy="1" rx="0.5" ry="1" transform="translate(48 4)" fill="#12782e"/>
    <ellipse id="Ellipse_75" data-name="Ellipse 75" cx="0.5" cy="1" rx="0.5" ry="1" transform="translate(45 4)" fill="#12782e"/>
  </g>
</svg>
