<svg id="_034-water_slide" data-name="034-water slide" xmlns="http://www.w3.org/2000/svg" width="35.094" height="35.094" viewBox="0 0 35.094 35.094">
  <path id="Path_1329" data-name="Path 1329" d="M34.408,28.24h-4.4a4.452,4.452,0,0,0-2.522-7.49V15.777a4.188,4.188,0,0,0,1.132-.332,4.46,4.46,0,0,0,2.638-4.069,4.124,4.124,0,0,0-.272-1.5,4.082,4.082,0,0,0-.753-1.236,6,6,0,0,0-2.444-1.6L24.533,5.815a.68.68,0,0,0-.241-.045.7.7,0,0,0-.241,1.358h0c1.489.548,2.67.988,3.253,1.208A4.679,4.679,0,0,1,29.2,9.548a2.675,2.675,0,0,1,.685,1.831,3.082,3.082,0,0,1-2.969,3.079S7.526,7.447,7.454,7.423A3.428,3.428,0,0,1,5.841,6.29a3,3,0,0,1-.634-1.84c0-.05,0-.144,0-.144a3.115,3.115,0,0,1,2.82-2.927c.067-.005.139-.008.206-.008A4.056,4.056,0,0,1,9.691,1.7l8.573,3.224a.678.678,0,0,0,.241.044.685.685,0,0,0,.241-1.327L10.176.417A5.486,5.486,0,0,0,8.233,0c-.1,0-.21,0-.315.013a4.451,4.451,0,0,0-2.834,1.35,4.55,4.55,0,0,0-1.246,2.88s0,.137,0,.207a4.341,4.341,0,0,0,.246,1.443,4.4,4.4,0,0,0,.674,1.235,4.681,4.681,0,0,0,1.008.961,4.841,4.841,0,0,0,1.255.633l.59.2v4.9a4.191,4.191,0,0,0-1.131.332A4.46,4.46,0,0,0,3.838,18.23a4.122,4.122,0,0,0,.273,1.492,4.263,4.263,0,0,0,.739,1.241,5.517,5.517,0,0,0,2.366,1.586c.022.008.187.058.393.142V28.24H.685A.685.685,0,0,0,0,28.925v5.483a.685.685,0,0,0,.685.685H34.408a.686.686,0,0,0,.685-.685V28.925a.685.685,0,0,0-.685-.685Zm-4.524-3.087A3.084,3.084,0,1,1,26.8,22.068,3.088,3.088,0,0,1,29.885,25.153Zm-3.77-4.758-1.371-.513V16.638l1.371-.508Zm-1.28-5.253-6.412,2.375-8.164-3.054,6.413-2.375Zm-1.462,2v2.224l-2.987-1.117ZM11.721,10.357c.617.21,2.925,1.019,2.925,1.019L11.721,12.46ZM8.979,9.4c.206.077,1.165.4,1.371.477v3.088l-1.371.507ZM5.9,20.077a2.784,2.784,0,0,1-.687-1.848,3.083,3.083,0,0,1,2.968-3.081l16.412,6.139A4.45,4.45,0,0,0,22.6,26.646h0L7.675,21.258A4.177,4.177,0,0,1,5.9,20.077ZM22.98,28.24H19.6V27.02Zm-4.747-1.714V28.24H16.861V26.031C17.067,26.107,18.232,26.525,18.232,26.525Zm-2.742-.99v2.7h-3.77V24.175C12.886,24.606,14.257,25.079,15.491,25.536ZM10.35,23.68V28.24H8.979V23.185c.411.144.854.308,1.346.486.008,0,.025.006.025.009ZM33.723,33.723H1.371V32.352H33.723Zm0-2.742H1.371V29.61H33.723Z" fill="#12782e"/>
  <circle id="Ellipse_67" data-name="Ellipse 67" cx="0.685" cy="0.685" r="0.685" transform="translate(20.713 4.684)" fill="#12782e"/>
</svg>
