<svg xmlns="http://www.w3.org/2000/svg" width="25.379" height="35.119" viewBox="0 0 25.379 35.119">
  <g id="_003-charging" data-name="003-charging" transform="translate(-71)">
    <circle id="Ellipse_86" data-name="Ellipse 86" cx="0.686" cy="0.686" r="0.686" transform="translate(78.374 4.424)" fill="#12782e"/>
    <circle id="Ellipse_87" data-name="Ellipse 87" cx="0.686" cy="0.686" r="0.686" transform="translate(75.287 4.424)" fill="#12782e"/>
    <path id="Path_1347" data-name="Path 1347" d="M111.686,105a.686.686,0,0,0,0,1.372h6.173a.686.686,0,1,0,0-1.372Z" transform="translate(-37.256 -97.798)" fill="#12782e"/>
    <path id="Path_1348" data-name="Path 1348" d="M130.8,145h-4.115a.686.686,0,0,0,0,1.372H130.8a.686.686,0,1,0,0-1.372Z" transform="translate(-51.227 -135.054)" fill="#12782e"/>
    <path id="Path_1349" data-name="Path 1349" d="M130.987,253.584a.678.678,0,0,0-.618-.38h-2.778l2.564-3.29a.688.688,0,0,0-1.081-.851l-3.43,4.389a.7.7,0,0,0,.541,1.124h2.757l-1.756,2.186-.054-.276a.686.686,0,1,0-1.345.266l.343,1.723a.693.693,0,0,0,.673.559h1.715a.686.686,0,1,0,0-1.372h-.288l2.675-3.348A.693.693,0,0,0,130.987,253.584Z" transform="translate(-50.761 -231.734)" fill="#12782e"/>
    <circle id="Ellipse_88" data-name="Ellipse 88" cx="0.686" cy="0.686" r="0.686" transform="translate(94.219 19.998)" fill="#12782e"/>
    <path id="Path_1350" data-name="Path 1350" d="M96.379,15.09V10.975a.686.686,0,0,0-.686-.686H92.949a.686.686,0,0,0-.686.686H90.892a5.5,5.5,0,0,0-5.056,3.347c-.012.029-.023.083-.034.083H84.032V7.854C84.032,3.523,81.109,0,77.516,0S71,3.523,71,7.854V34.433a.686.686,0,0,0,.686.686H83.346a.686.686,0,0,0,.686-.686V28.808h6.859a5.487,5.487,0,0,0,5.477-5.153.686.686,0,0,0-.643-.726h-.042a.687.687,0,0,0-.684.645,4.117,4.117,0,0,1-4.106,3.863H84.032V26.065h6.859a2.744,2.744,0,0,0,0-5.487,4.115,4.115,0,1,1,0-8.231h1.372v1.326l-1.385.046a2.744,2.744,0,0,0,.013,5.487,4.117,4.117,0,0,1,1.4.243.679.679,0,0,0,.233.041.685.685,0,0,0,.621-.977.68.68,0,0,0-.388-.353,5.466,5.466,0,0,0-1.866-.326,1.372,1.372,0,1,1,0-2.744l1.372-.046v.046a.686.686,0,0,0,.686.686h2.744a.686.686,0,0,0,.686-.686ZM82.661,33.747H72.372V12.669a5.874,5.874,0,0,0,10.289,0ZM77.516,14.336c-2.837,0-5.144-2.908-5.144-6.482s2.308-6.482,5.144-6.482,5.144,2.908,5.144,6.482S80.353,14.336,77.516,14.336Zm6.516,1.44H85.4v1.372H84.032Zm2.979,4.566a5.473,5.473,0,0,0,3.88,1.607,1.372,1.372,0,1,1,0,2.744H84.032V18.52h1.776c.009,0,.018.051.027.074a5.5,5.5,0,0,0,1.176,1.749Zm8-5.938H93.635V11.661h1.372Z" fill="#12782e"/>
  </g>
</svg>
