<svg xmlns="http://www.w3.org/2000/svg" width="26.6" height="35" viewBox="0 0 26.6 35">
  <g id="toilet-bathroom-restroom-clean-hygiene-wc-closet" transform="translate(-13 -7)">
    <path id="Path_1417" data-name="Path 1417" d="M37.5,7H31.9a2.106,2.106,0,0,0-2.1,2.1V19.6H13.7a.7.7,0,1,0,0,1.4H29.8v1.4H15.1A2.106,2.106,0,0,0,13,24.5,11.936,11.936,0,0,0,24,36.358a4.538,4.538,0,0,1-1.918,2.73A1.591,1.591,0,0,0,21.4,40.4,1.607,1.607,0,0,0,23,42H37.5a2.106,2.106,0,0,0,2.1-2.1V33.6a.7.7,0,0,0-1.4,0v4.2H25a4.942,4.942,0,0,0,.469-2.107.7.7,0,0,0-.686-.7A10.532,10.532,0,0,1,14.4,24.5a.7.7,0,0,1,.7-.7H38.2V28a.7.7,0,1,0,1.4,0V9.1A2.106,2.106,0,0,0,37.5,7Zm.7,32.2v.7a.7.7,0,0,1-.7.7H23a.2.2,0,0,1-.2-.2.2.2,0,0,1,.077-.161A6.557,6.557,0,0,0,24.06,39.2Zm0-16.8h-7V12.6h1.526a2.1,2.1,0,1,0,0-1.4H31.2V9.1a.7.7,0,0,1,.7-.7h5.6a.7.7,0,0,1,.7.7ZM34,11.9a.7.7,0,1,1,.7.7A.7.7,0,0,1,34,11.9Z" fill="#12782e"/>
    <circle id="Ellipse_96" data-name="Ellipse 96" cx="1" cy="1" r="1" transform="translate(37.6 29.688)" fill="#12782e"/>
  </g>
</svg>
