<svg xmlns="http://www.w3.org/2000/svg" width="34.816" height="34.796" viewBox="0 0 34.816 34.796">
  <g id="_035-parking" data-name="035-parking" transform="translate(0)">
    <path id="Path_1330" data-name="Path 1330" d="M34.8,23.99a.679.679,0,1,0-1.359,0v8.427L28,26.708V15.223l5.437-5.709v8.359a.68.68,0,0,0,1.359,0V5.1a.68.68,0,0,0-.68-.68H24.534V.68a.68.68,0,0,0-.68-.68H10.942a.68.68,0,0,0-.68.68V4.417H.68A.68.68,0,0,0,0,5.1S0,34.122,0,34.125a.68.68,0,0,0,.68.671H34.115a.681.681,0,0,0,.68-.657C34.8,34.133,34.8,23.99,34.8,23.99ZM24.534,5.777h8.9V7.136h-8.9ZM11.621,1.359H23.174V11.553H11.621Zm-.68,11.553H23.854a.68.68,0,0,0,.68-.68V8.5h8l-5.5,5.777H7.767L2.266,8.5h8v3.738a.68.68,0,0,0,.68.68Zm8.835,6.524H15.019a.68.68,0,0,0-.679.68V26.3H8.155V15.631H26.64V26.3H20.456V20.116A.68.68,0,0,0,19.776,19.437ZM15.7,25.814v-1.24l3.4-1.456v1.24Zm3.4.022v4.882H15.7V27.292ZM15.7,23.1V20.8h3.4v.843ZM1.359,5.777h8.9V7.136h-8.9Zm0,3.738L6.8,15.223V26.708L1.359,32.417ZM11.282,31.4v2.039H2.266l5.5-5.777H14.34v3.058H11.961A.68.68,0,0,0,11.282,31.4Zm10.874,2.039H12.641V32.077h9.514v1.359Zm1.359,0V31.4a.68.68,0,0,0-.68-.68H20.456V27.66h6.572l5.5,5.777Z" transform="translate(0)" fill="#12782e"/>
    <circle id="Ellipse_68" data-name="Ellipse 68" cx="0.68" cy="0.68" r="0.68" transform="translate(33.414 21.565) rotate(-88.167)" fill="#12782e"/>
    <path id="Path_1331" data-name="Path 1331" d="M223.352,40H221.68a.672.672,0,0,0-.565.3.875.875,0,0,0-.114.369V46.8a.68.68,0,0,0,1.359,0V44.815l.991,0a2.406,2.406,0,1,0,0-4.811Zm0,3.452-.984,0c0-.375,0-.811,0-1.05,0-.2,0-.656,0-1.046h.99a1.046,1.046,0,1,1,0,2.093Z" transform="translate(-205.982 -37.282)" fill="#12782e"/>
  </g>
</svg>
